<svg width="363" height="720" viewBox="0 0 363 720" fill="none" xmlns="http://www.w3.org/2000/svg">
<g clip-path="url(#clip0_1625_101202)">
<path d="M361.488 351.171C361.406 347.515 361.081 343.86 360.513 340.204C359.782 335.168 359.701 329.969 358.888 324.933C357.832 317.784 356.532 310.636 355.151 303.487C354.014 297.313 352.714 291.14 351.252 284.966C350.765 282.935 349.546 280.986 349.14 278.955C347.516 271.4 344.104 264.495 341.748 257.184C339.717 250.929 335.98 245.487 332.731 239.882C329.725 234.683 326.395 229.727 323.146 224.691C321.196 221.685 319.328 218.68 317.134 215.918C314.454 212.425 311.042 209.419 308.849 205.764C305.031 199.346 299.344 194.553 295.283 188.38C293.983 186.349 291.708 184.887 289.921 183.181C285.697 179.2 281.473 175.22 277.086 171.402C274 168.721 270.75 166.203 267.42 163.766C263.845 161.085 260.271 158.567 256.534 156.049C252.473 153.287 248.249 150.688 244.106 148.088C239.557 145.245 235.089 142.483 230.459 139.721C224.61 136.228 218.761 132.572 212.587 129.567C208.363 127.536 204.383 125.18 200.321 122.906C196.584 120.875 192.766 118.925 189.273 116.57C182.937 112.427 176.682 108.121 170.508 103.735C167.99 101.948 165.716 99.9168 163.279 98.0484C160.111 95.5302 157.999 92.1996 156.455 88.5441C153.125 80.3396 151.5 71.8913 152.8 63.0369C153.856 55.1573 157.917 49.471 164.497 44.9219C168.721 41.9975 173.433 40.5353 177.982 39.2356C181.719 38.1795 186.268 38.4232 190.167 39.398C198.209 41.4289 205.195 45.4093 210.313 52.3141C211.694 54.1825 213.562 55.7259 215.105 57.5943C220.142 63.768 225.178 69.9417 230.134 76.1967C231.19 77.4964 232.083 79.0398 232.814 80.5833C235.576 87.0007 240.775 91.7122 244.349 97.561C245.649 99.6731 247.518 101.46 249.142 103.41C253.123 107.959 256.453 112.833 259.702 117.951C262.789 122.825 266.77 127.13 270.425 131.76C271.238 132.816 272.05 133.872 272.862 135.009C277.817 142.32 282.935 149.469 291.14 153.612C292.683 154.343 293.82 155.805 295.364 156.536C301.944 159.948 309.173 161.004 316.484 161.816C326.639 162.954 335.087 159.298 342.235 153.206C347.516 148.738 351.74 142.727 352.958 135.334C353.771 130.704 354.095 126.236 353.283 121.525C352.633 117.626 352.552 113.564 351.009 109.908C349.628 106.74 348.165 103.653 346.297 100.729C345.079 98.7795 344.023 96.6674 342.723 94.7178C340.123 90.7374 337.118 87.0819 334.193 83.264C329.725 77.5776 325.42 71.7288 321.927 65.3927C320.952 63.6055 320.952 61.331 320.302 59.3814C318.515 54.02 319.084 48.5774 319.246 43.1348C319.328 40.4541 320.465 37.7734 321.115 35.0927C321.277 34.6053 321.521 34.0367 321.521 33.5493C321.765 30.6249 322.252 27.7005 322.171 24.7761C322.09 21.3643 321.521 18.1962 318.84 15.4343C315.591 12.1037 312.667 8.4482 307.549 7.9608C305.193 7.79833 302.837 7.2297 300.563 7.39217C298.613 7.4734 296.745 8.28573 294.876 8.9356C289.596 10.9664 285.535 14.3782 283.341 19.9833C281.96 20.0645 280.579 20.1458 279.036 20.227C277.168 22.0954 277.817 24.6948 277.33 26.9694C276.518 31.2747 275.624 35.5801 275.056 39.9667C274.649 43.7034 273.918 47.3589 274.406 51.3393C275.056 56.3758 276.274 61.0873 278.386 65.7176C279.036 67.261 280.092 68.7232 281.229 69.8605C283.423 72.135 285.941 74.0846 288.134 76.4404C290.571 79.0398 292.764 81.8018 294.958 84.5637C298.288 88.4629 302.025 92.0371 305.437 95.7739C309.417 100.16 313.885 104.385 316.16 109.99C317.216 112.508 317.216 115.432 317.54 118.194C317.622 119.007 317.134 120.063 316.566 120.631C313.235 124.124 309.011 126.155 304.381 125.343C301.213 124.774 298.288 122.662 295.526 120.875C293.658 119.738 292.358 117.788 290.652 116.407C286.834 113.239 284.397 109.259 282.123 104.953C280.986 102.922 279.361 101.135 278.142 99.1044C275.868 95.0428 273.512 90.9811 271.481 86.8382C268.069 79.7709 264.983 72.5412 261.408 65.4739C259.54 61.8184 257.265 58.4066 254.991 54.9136C251.335 49.3897 247.68 43.8659 243.862 38.5045C242.4 36.4736 240.45 34.9302 238.744 33.0619C235.576 29.4876 232.652 25.7509 229.321 22.3391C228.022 20.9581 226.153 19.7396 224.285 19.171C221.929 18.4399 220.223 17.3026 219.33 15.0281C216.161 15.7592 213.968 14.4595 211.856 12.3474C209.338 9.82916 206.576 7.63587 203.002 6.41737C200.077 5.36134 197.478 3.08681 194.553 2.19324C189.273 0.568581 183.912 -0.974849 178.226 0.162415C177.494 0.324882 176.601 -5.09918e-05 175.87 -5.09918e-05C170.59 0.568581 165.228 1.38091 160.029 3.16804C159.867 3.24928 159.786 3.33051 159.704 3.33051C154.018 3.57421 149.307 6.33614 144.595 9.01683C140.615 11.2914 136.309 13.241 133.629 17.3026C133.547 17.3839 133.466 17.5463 133.385 17.6276C127.049 20.5519 125.099 27.4568 120.631 32.1683C118.763 34.1179 116.976 36.8798 116.407 40.1291C115.92 42.9723 113.808 45.4905 112.752 48.3337C111.533 51.6643 110.315 55.1573 109.746 58.6503C109.015 63.1181 108.852 67.6672 108.609 72.135C108.528 74.4095 108.69 76.6841 108.852 78.9586C109.34 85.2948 110.152 91.5497 112.021 97.561C112.914 100.323 114.539 102.76 115.757 105.441C116.895 107.796 117.707 110.396 119.088 112.589C121.2 116.001 123.474 119.25 126.236 122.093C127.699 123.556 128.673 125.668 130.136 127.13C131.923 128.836 134.197 129.973 136.228 131.516C138.665 133.385 140.94 135.334 143.295 137.284C146.707 140.046 150.2 142.808 153.693 145.489C155.237 146.707 157.024 147.682 158.648 148.819C161.816 150.931 164.903 152.962 168.071 155.155C168.559 155.48 168.884 156.13 169.615 156.942C164.578 156.455 160.029 156.049 155.48 155.48C149.388 154.668 143.377 153.937 137.365 152.881C128.023 151.175 118.6 151.012 109.259 150.444C105.928 150.281 102.597 149.956 99.2669 149.55C97.1549 149.307 95.6114 147.763 94.9616 145.895C93.1744 140.94 90.0063 137.446 83.9951 136.147C85.2948 134.847 86.1884 134.035 87.0007 133.141C87.5693 132.491 88.3817 131.679 88.2192 131.029C87.9755 129.567 86.6758 129.892 85.6197 130.217C83.5077 130.704 81.883 131.841 81.1519 133.872C80.3396 136.147 79.1211 137.934 76.3592 138.827C73.1098 135.091 68.642 135.497 63.6868 137.04C64.7428 135.334 65.5551 134.116 66.3675 132.816C63.0369 131.76 60.5999 133.06 60.275 136.39C59.9501 139.152 58.8128 141.427 57.7568 143.701C54.7511 144.92 51.7455 146.057 48.5774 147.276C47.9275 144.839 46.0592 142.889 47.7651 140.371C48.0088 140.046 47.6026 138.909 47.1964 138.746C46.5466 138.421 45.5718 138.34 45.0032 138.584C43.2973 139.396 42.4849 142.645 43.3785 144.514C44.7595 147.357 46.0592 149.794 44.6782 153.449C43.541 156.374 43.9471 160.111 44.5158 163.36C44.9219 165.553 46.5466 167.746 48.09 169.452C52.2329 174.083 57.2694 177.494 62.4683 180.987C67.0986 184.156 72.8661 185.049 76.9278 189.192C77.4964 189.761 78.6337 189.923 79.5273 190.248C81.2332 190.898 83.1015 191.385 84.7262 192.198C88.9503 194.472 93.4994 195.366 98.2109 196.341C104.303 197.559 110.233 199.752 116.245 201.539C119.656 202.514 123.068 203.652 126.561 204.545C133.629 206.413 140.696 208.119 147.763 209.988C150.688 210.719 153.531 211.612 156.861 212.506C155.724 216.243 153.856 218.923 152.231 221.767C151.825 222.416 151.094 222.985 150.769 223.635C148.575 229.484 143.539 231.19 138.096 232.164C131.354 233.302 124.693 232.652 117.951 231.758C113.32 231.108 108.69 230.702 104.06 230.865C99.2669 230.946 95.2053 232.733 92.7683 237.607C91.3061 240.531 90.25 243.456 89.1128 246.461C86.4321 253.204 84.0763 260.19 80.3396 266.526C76.9278 272.375 73.6785 278.305 70.3479 284.154C69.6168 285.372 68.5608 286.509 67.586 287.565C66.1238 289.109 64.4991 290.49 62.9557 292.033C59.1377 295.851 55.7259 300.238 51.5018 303.487C46.7903 307.143 43.216 311.692 40.1292 316.403C37.1235 320.952 32.8994 324.12 29.4064 328.02C27.3756 330.213 25.6697 332.487 24.1262 335.006C22.2579 338.092 22.4203 341.017 23.4764 344.185C23.8825 345.403 24.1262 346.703 24.5324 348.409C22.2579 349.303 20.0646 350.115 17.9525 350.927C19.8209 354.42 21.7705 354.014 25.5072 352.471C28.919 351.009 28.8378 350.927 32.4932 352.552C32.1683 356.695 34.1991 360.025 36.9611 362.869C35.0927 365.874 32.8182 364.899 30.6249 363.6C29.8938 366.605 31.9246 369.042 34.5241 368.149C36.9611 367.255 39.8855 367.499 41.7538 364.981C42.16 364.493 43.1348 364.412 43.9471 364.25C46.2217 363.925 48.5774 363.6 50.6895 363.275C51.9892 364.493 53.3702 365.793 54.8324 367.174C52.0704 369.448 48.9836 369.773 45.653 368.392C45.3281 371.398 46.7903 372.86 49.6334 372.779C52.8015 372.698 55.5635 371.398 58.1629 369.611C58.8128 369.205 59.4627 368.392 60.1125 368.474C63.1994 368.717 65.3114 366.768 67.8297 365.549C71.5664 363.762 74.6533 361 77.9026 358.644C80.827 356.532 83.8326 354.339 85.701 351.009C86.757 349.221 88.3817 347.678 90.0063 346.459C94.1492 343.291 96.5862 338.824 99.8356 335.006C104.466 329.4 109.096 323.714 113.645 318.028C114.864 316.566 115.92 314.941 116.895 313.316C119.656 308.93 123.149 305.193 126.724 301.538C127.455 300.806 128.267 299.994 129.079 299.425C131.76 297.72 134.278 298.369 136.878 300.644C139.64 303.081 142.727 305.193 145.814 307.224C149.388 309.58 152.962 311.935 156.78 313.722C161.248 315.753 165.959 317.216 170.59 318.84C173.352 319.815 176.114 320.709 178.957 321.277C183.993 322.333 189.111 323.795 194.147 323.877C199.915 324.039 205.764 322.902 211.856 322.333C212.425 325.014 213.4 327.938 213.075 331.188C212.831 333.137 213.4 335.087 213.481 337.036C213.562 341.342 213.481 345.728 213.481 350.034C213.481 350.277 213.643 350.684 213.481 350.846C211.125 353.445 211.694 356.857 211.775 359.7C211.856 365.712 209.257 370.829 207.307 376.11C205.764 380.171 203.733 384.152 201.621 387.97C198.859 392.925 195.285 397.311 191.142 400.886C187.324 399.505 183.749 398.286 179.525 396.743C181.637 394.712 183.343 393.006 185.13 391.3C187.242 389.351 189.598 387.482 191.629 385.451C195.041 382.04 194.878 377.409 191.142 374.322C187.811 371.56 184.318 369.611 179.444 370.586C175.87 371.317 171.971 370.423 168.396 371.967C164.985 373.429 161.492 374.566 158.08 376.191C154.83 377.734 151.744 379.521 148.575 381.227C145.976 380.334 143.458 379.44 140.94 378.547C141.346 377.328 141.589 376.272 142.077 375.216C142.889 373.429 142.321 372.292 140.858 371.073C135.497 366.768 129.811 367.093 123.637 368.799C119.819 369.855 116.082 370.911 112.67 373.104C109.746 374.891 106.74 376.597 103.491 378.465C99.998 375.703 95.9364 376.922 92.0372 377.815C90.4937 378.14 89.0315 380.009 87.9755 381.471C86.2696 383.827 84.8074 385.858 81.3956 385.451C80.2584 385.37 78.7149 386.182 77.8214 387.076C75.4656 389.513 73.2723 392.194 70.8353 395.118C67.7484 393.9 64.2554 394.306 60.8436 395.687C60.5999 395.768 60.4375 395.849 60.275 396.012C56.2946 390.569 49.7147 388.701 44.6782 384.314C42.8911 384.964 42.7286 386.182 43.6222 387.482C44.1908 388.295 45.0844 389.188 45.978 389.513C50.1208 391.138 53.4514 394.062 56.7007 396.905C57.1069 397.23 57.5131 397.474 57.838 397.636C57.7568 397.718 57.6755 397.799 57.5943 397.799C57.1881 398.124 56.8632 398.692 56.457 398.855C55.7259 399.18 55.1573 399.586 54.5887 399.992C50.6895 398.043 46.7091 396.337 42.8099 394.387C41.0227 393.493 40.4541 394.468 39.5605 396.337C43.8659 398.449 48.09 400.561 52.3954 402.754C51.6643 404.216 51.3393 405.922 51.0956 407.628C47.6026 406.328 44.2721 404.541 40.3729 404.785C39.8855 404.785 39.4793 404.947 38.9919 405.11C38.9107 405.435 38.8294 405.76 38.7482 406.085C42.6474 408.115 46.709 409.659 50.8519 411.04C50.8519 411.121 50.8519 411.121 50.8519 411.202C50.7707 413.883 51.0956 416.482 52.1517 418.838C54.6699 422.088 58.7316 425.499 62.1434 427.124C64.7428 428.342 67.5047 430.048 70.5104 430.292C71.1602 430.373 72.135 433.054 71.6476 433.704C71.079 433.704 70.2667 438.253 67.5047 439.146C63.6055 439.146 61.1686 441.259 59.0565 444.02C58.4879 444.752 57.838 445.726 57.1069 445.889C51.0144 447.107 49.146 452.469 46.7903 456.937C45.653 459.049 46.5466 462.298 46.5466 464.979C46.5466 465.304 47.034 465.791 46.9528 466.035C45.8967 468.959 48.0088 470.746 49.3897 472.777C49.6334 473.102 49.7959 473.346 50.0396 473.671C49.5522 473.589 49.146 473.589 48.6586 473.589C46.1404 473.427 43.6222 473.589 40.9415 473.589C40.6166 472.046 39.9667 470.178 39.8042 468.228C39.0731 459.536 29.0815 452.306 20.0646 454.012C17.6276 454.5 15.0281 454.662 12.6723 455.393C8.36699 456.612 5.84876 459.861 4.22409 463.76C2.2745 468.715 1.7871 473.914 3.33053 479.032C3.9804 481.307 4.46779 483.906 6.66109 485.612C7.22972 486.018 7.47342 486.912 7.87959 487.561C8.77315 489.105 10.1541 489.917 11.6163 490.892C15.678 493.491 20.3083 492.923 24.4512 493.41C25.8321 495.36 24.9386 497.553 25.2635 499.665C24.5324 499.828 23.7201 499.99 22.989 500.315C18.8461 501.777 14.9469 503.646 11.5351 506.245C9.26055 507.951 7.71712 510.632 6.09246 513.069C3.33053 517.293 2.19327 522.329 0.243669 526.96C-0.568663 528.747 -0.162497 531.102 -0.162497 533.215C-0.162497 534.92 0.487369 536.626 0.406136 538.332C-0.0812635 543.612 2.11203 547.918 5.03643 551.979C7.55466 555.391 10.1541 558.803 12.6723 562.134C13.0785 562.621 13.6471 563.027 14.1345 563.352C16.1654 564.652 18.1962 565.951 20.227 567.089C21.9329 568.064 23.6388 568.713 24.6136 569.12C24.6949 571.15 24.7761 573.263 24.7761 575.293C24.8573 578.624 25.2635 581.954 25.0198 585.285C24.6949 590.809 27.0506 594.789 31.4372 597.714C36.23 600.963 41.4289 602.425 47.1964 602.263C48.2525 602.263 49.3897 602.1 50.4458 602.344C54.9136 603.156 59.1377 601.857 63.3619 600.557C64.4991 600.232 65.7989 600.232 66.8549 599.826C71.4039 597.876 74.0846 594.627 75.0594 589.834C78.2275 590.565 84.9699 591.946 87.7318 592.027C90.8999 592.027 93.6618 593.083 96.5862 593.652C101.623 594.627 106.578 596.251 111.614 597.389C115.676 598.282 119.738 598.77 123.799 599.663C127.049 600.394 130.136 601.45 133.385 602.181C137.284 602.994 141.102 603.887 145.164 603.969C153.612 604.131 161.248 601.857 168.721 598.201C173.352 596.008 178.226 594.139 183.018 592.271C187.73 590.484 191.954 593.896 191.304 599.013C191.223 599.501 190.979 600.069 190.654 600.394C188.461 602.75 186.268 605.025 183.993 607.299C182.612 608.68 181.15 610.142 179.688 611.442C178.632 612.417 177.413 613.31 176.357 614.285C175.464 615.016 174.651 615.829 173.758 616.641C173.352 617.047 173.189 617.616 172.783 617.859C168.884 620.053 164.985 622.084 161.004 624.277C158.973 625.414 156.78 626.47 154.912 627.851C151.337 630.532 146.951 631.425 143.052 633.131C138.015 635.325 132.816 637.112 127.536 638.574C119.819 640.767 112.508 643.854 104.872 646.291C99.3482 647.997 95.0428 651.084 91.0624 655.227C88.4629 657.907 85.2948 659.938 82.3704 662.294C79.0399 665.056 75.5468 667.655 72.3787 670.58C68.2358 674.398 66.6112 679.353 67.1798 684.877C67.4235 687.151 67.1798 688.939 65.7989 690.888C64.5804 692.513 64.093 694.787 63.6056 696.818C63.1994 698.362 64.5803 699.743 67.0986 700.311C67.586 698.037 68.1546 695.762 68.8045 693C70.3479 694.056 71.5664 695.031 72.8661 695.6C74.2471 696.331 75.8718 696.737 76.7653 697.062C78.2275 700.23 79.446 702.829 80.6645 705.591C80.5021 707.703 80.1771 710.222 80.1771 712.659C80.1771 713.227 81.4769 713.715 82.7766 714.771C83.1015 712.171 83.3452 710.303 83.5889 708.516C87.4069 709.003 90.9811 710.628 94.7991 708.922C95.3677 708.678 96.3425 709.003 96.9112 709.491C97.2361 709.734 97.2361 710.709 97.0736 711.278C96.505 713.227 95.7739 715.096 95.124 716.964C94.7179 718.101 94.8803 719.239 96.0988 719.645C97.3986 720.051 97.9672 719.239 98.2921 718.02C98.8608 715.989 99.6731 714.04 100.485 711.846C102.11 712.171 103.572 712.74 104.953 712.659C109.746 712.252 113.483 710.303 116.813 706.566C120.875 701.936 124.206 696.412 130.054 693.569C130.704 693.244 131.192 692.432 131.76 691.944C136.066 687.883 141.021 685.202 146.788 683.902C150.038 683.171 153.125 681.953 156.293 680.896C156.78 680.734 157.267 680.409 157.755 680.328C164.335 678.703 170.427 675.779 176.601 673.26C181.475 671.23 186.105 668.711 190.898 666.518C192.685 665.706 194.635 665.3 196.503 664.569C201.783 662.375 207.063 660.182 212.344 657.989C215.105 656.851 217.867 655.552 220.629 654.496C224.61 652.952 228.671 651.653 232.733 650.19C238.907 647.835 245.08 645.398 251.254 643.042C251.985 642.717 252.798 642.148 253.448 642.229C256.616 642.717 258.24 640.686 259.946 638.655C261.977 636.218 264.414 634.025 265.308 630.776C265.714 629.395 266.282 627.932 266.12 626.47C265.795 622.896 265.064 619.322 264.739 615.747C264.333 611.28 264.252 606.731 264.008 602.263C263.764 597.957 263.114 593.571 263.358 589.265C263.845 579.761 265.47 570.419 270.994 562.296C273.431 558.722 276.274 555.472 279.036 552.061C281.717 548.73 284.397 545.399 287.159 542.069C290.977 537.439 295.201 533.133 298.694 528.341C302.269 523.385 306.899 519.242 309.498 513.556C310.392 511.607 312.179 509.982 313.641 508.276C317.54 503.727 320.871 498.853 323.471 493.41C325.095 490.08 327.532 487.237 329.238 483.987C333.381 476.433 336.793 468.553 339.88 460.511C343.291 451.575 347.028 442.802 349.384 433.541C350.602 428.83 352.796 424.362 354.095 419.569C355.233 415.508 355.558 411.284 356.37 407.141C356.614 405.841 357.101 404.622 357.426 403.323C357.67 402.348 357.832 401.292 357.995 400.236C358.238 398.774 358.482 397.393 358.726 395.93C359.294 392.762 360.188 389.675 360.513 386.507C361.081 380.577 361.731 374.566 361.813 368.636C362.381 362.625 361.65 356.939 361.488 351.171ZM52.4766 498.122C46.3841 498.609 40.1292 498.609 34.1179 500.478C32.3308 499.503 30.2187 499.097 28.0254 499.178C28.7565 497.066 28.5128 494.791 28.3504 492.598C28.3504 492.354 28.3504 492.192 28.2691 491.948C30.1375 490.892 33.468 488.942 35.1739 487.318C35.4176 487.399 35.7426 487.561 35.9863 487.643C39.6418 488.861 43.2973 489.836 47.034 490.892C47.9276 491.136 48.8211 491.298 49.7147 491.542C53.6139 492.76 54.02 493.654 52.4766 498.122ZM54.1013 479.113C53.8576 481.225 53.6139 483.256 53.3702 485.368C53.3702 485.693 53.2889 486.018 53.2889 486.343C53.2077 487.074 53.1265 487.886 53.0452 488.618C48.4149 487.399 44.1096 486.262 39.8042 485.124C38.8294 484.881 37.8546 484.637 36.9611 484.393C37.286 483.743 37.6109 483.175 37.9359 482.525C38.2608 481.956 38.5045 481.307 38.8294 480.738C39.3981 479.601 40.0479 478.382 40.6166 477.164C42.3225 477.082 44.0284 477.001 45.8967 476.92C48.6586 476.757 51.5018 476.676 54.4262 476.514C54.345 477.407 54.2637 478.22 54.1013 479.113ZM65.6364 487.561C65.7176 487.155 65.7176 486.83 65.7989 486.424C66.1238 483.825 66.4487 481.388 66.8549 478.788C75.0594 480.413 83.3452 480.9 89.8439 487.318C86.3508 488.861 82.8578 489.674 79.3648 489.998C78.7962 490.08 78.3088 490.08 77.7401 490.161C77.5777 490.161 77.4964 490.161 77.334 490.161C76.9278 490.161 76.5216 490.242 76.1155 490.242C75.953 490.242 75.7905 490.242 75.5468 490.242C75.2219 490.242 74.8157 490.242 74.4908 490.242C74.3283 490.242 74.0846 490.242 73.9222 490.242C73.5972 490.242 73.1911 490.242 72.8661 490.242C72.6224 490.242 72.46 490.242 72.2163 490.242C71.8913 490.242 71.4852 490.242 71.1602 490.161C70.9165 490.161 70.7541 490.161 70.5104 490.161C70.1854 490.161 69.7793 490.08 69.4543 490.08C69.2919 490.08 69.0482 490.08 68.8857 489.998C68.4795 489.998 68.0734 489.917 67.6672 489.917C67.5047 489.917 67.3423 489.917 67.1798 489.836C66.6112 489.755 66.0425 489.755 65.4739 489.674C65.4739 488.942 65.5552 488.211 65.6364 487.561ZM74.4096 501.452C73.9222 501.29 73.4348 501.046 73.0286 500.884C70.1854 499.828 67.261 499.015 64.2554 498.528C64.3366 498.203 64.4179 497.878 64.4179 497.634C64.4991 497.066 64.4991 496.578 64.5804 496.091C64.7428 494.791 64.9053 493.979 65.3927 493.573C65.5551 493.41 65.7176 493.329 65.9613 493.248C66.6924 493.004 67.7484 493.085 69.3731 493.248C73.2723 493.492 77.0903 493.654 80.9894 493.167C81.6393 493.085 82.2892 493.004 82.939 492.842C83.5889 492.679 84.2388 492.598 84.8074 492.435C84.9699 492.435 85.1323 492.354 85.2136 492.273C86.4321 491.948 87.6506 491.542 89.1128 491.055C89.3565 493.085 89.194 495.035 88.9503 496.985C88.9503 496.985 88.9503 496.985 88.9503 497.066C88.7066 498.853 88.3004 500.64 87.8943 502.427C87.813 502.915 87.7318 503.402 87.6506 503.889C87.6506 504.052 87.5693 504.133 87.5693 504.296C87.4881 504.783 87.4069 505.352 87.3256 505.839C87.3256 505.92 87.3256 506.001 87.3256 506.083C87.2444 506.651 87.1632 507.22 87.1632 507.789C82.7766 505.352 78.6337 503.158 74.4096 501.452ZM134.278 543.45C131.76 545.156 129.486 547.105 127.211 549.136C122.662 553.117 117.138 552.711 111.614 551.411C106.578 550.192 101.46 549.055 96.505 547.755C92.5246 546.699 88.5441 545.399 84.4825 544.343C84.5637 543.694 84.5637 543.125 84.6449 542.475C85.6197 536.058 86.8382 529.721 87.813 523.304C88.5441 518.755 88.8691 514.044 89.6002 509.494C90.0876 506.489 90.8999 503.564 91.3873 500.559C91.7122 498.609 92.0372 496.66 92.2809 494.71C95.7739 495.928 99.2669 497.228 102.679 498.609C107.228 500.396 111.533 502.915 115.838 505.27C116.813 505.758 117.382 507.057 118.032 508.032C120.631 511.525 123.312 514.937 124.368 519.486C124.855 521.679 126.886 523.467 128.186 525.416C128.836 526.391 129.892 527.366 129.973 528.503C130.46 533.621 133.06 537.926 135.497 543.044C135.253 543.044 134.685 543.125 134.278 543.45Z" fill="#FBF0DF"/>
<path d="M27.8629 563.027C28.2691 570.825 28.7565 578.543 28.919 586.341C29.0002 590.403 30.5436 593.327 33.8742 595.195C35.7426 596.252 37.6922 597.389 39.723 597.714C44.597 598.526 49.471 598.851 54.345 599.42C54.9948 599.501 55.7259 599.338 56.2946 599.095C58.7316 598.364 61.0873 597.308 63.6055 596.983C69.5356 596.17 72.0538 592.352 72.7849 587.072C73.516 581.792 74.3283 576.593 76.2779 571.557C76.5216 570.825 76.4404 570.013 76.5216 569.282C76.7653 566.52 76.8466 563.758 77.4152 561.078C78.1463 557.585 79.5273 554.254 80.2584 550.761C81.0707 546.618 81.3956 542.394 82.0455 538.17C83.0203 531.996 84.0763 525.822 85.0511 519.649C85.2136 518.43 85.0511 517.13 85.0511 515.587C77.7401 517.293 70.9978 518.999 64.0117 517.699C63.5243 517.618 62.9557 517.699 62.3871 517.78C56.457 518.755 50.6895 517.78 44.9219 516.643C43.6222 516.399 42.4037 515.831 41.104 515.343C42.5662 517.455 44.272 519.405 46.1404 521.842C51.8267 523.06 53.5326 524.441 52.1517 527.609C49.7147 526.96 47.1964 526.228 44.9219 525.579C44.0283 527.609 43.1348 529.072 42.6474 530.696C42.0788 532.89 44.5157 533.783 45.1656 535.489C45.2468 535.733 45.3281 535.976 45.3281 536.301C45.3281 537.682 46.1404 538.17 47.3589 538.82C49.6334 540.119 51.6643 541.906 53.6139 543.694C53.9388 544.019 54.1013 544.993 53.8576 545.4C53.6139 545.806 52.7203 546.131 52.2329 546.049C51.3393 545.806 50.527 545.237 49.7147 544.831C48.5774 544.262 47.4401 543.612 46.5466 543.044C46.0592 543.369 45.8967 543.45 45.8967 543.612C45.653 544.1 45.4093 544.587 45.2468 545.075C43.8659 550.355 39.6418 552.629 35.0927 554.335C32.7369 555.229 30.1375 555.472 27.2943 555.96C27.538 558.478 27.7005 560.753 27.8629 563.027Z" fill="#E56960"/>
<path d="M39.3168 510.713C39.398 510.876 39.398 511.038 39.4793 511.119C40.2916 511.282 41.6726 511.607 43.9471 512.175C49.5522 513.8 55.2385 514.612 61.1685 514.45C62.8744 514.369 64.6616 514.531 66.3675 514.612C71.7288 515.018 77.009 514.693 82.0455 512.581C82.939 512.175 83.5889 511.363 84.4012 510.713C83.7514 509.901 83.264 508.926 82.3704 508.439C79.6085 506.895 76.8465 505.189 73.8409 504.296C70.5916 503.24 67.261 501.452 63.8492 502.102C63.8492 503.483 63.8492 504.539 63.8492 505.595C63.9305 506.733 64.0117 507.87 64.0929 509.17C62.7932 509.576 61.5747 510.063 60.275 510.307C55.8884 511.119 52.8828 508.601 52.7203 504.133C52.7203 503.483 52.5578 502.833 52.3141 501.696C49.8771 501.615 47.5214 501.371 45.2468 501.615C42.4037 501.859 39.6417 502.346 36.7986 502.752C37.4484 503.646 38.0171 504.702 38.342 505.92C40.1291 506.245 41.9975 506.326 43.7846 506.976C44.7594 507.301 45.9779 508.357 46.2216 509.251C46.3841 509.982 41.6726 508.845 39.3168 510.713Z" fill="#E56960"/>
<path d="M30.6249 481.144C31.9246 481.55 32.8994 481.875 34.1991 482.363C34.6865 480.982 35.0927 479.844 35.4989 478.545C32.8994 478.382 32.8994 478.382 30.6249 481.144Z" fill="#FBF0DF"/>
<path d="M21.283 463.354C20.6332 464.329 20.0645 464.816 19.9833 465.385C19.9021 467.172 22.3391 470.99 23.9637 471.477C24.5324 471.64 25.4259 471.64 25.7509 471.234C26.0758 470.909 26.157 469.934 25.9133 469.447C25.4259 468.391 24.7761 467.335 24.1262 466.36C23.3951 465.466 22.5015 464.654 21.283 463.354Z" fill="#334D66"/>
<path d="M11.535 477.489C12.9972 480.657 15.5155 481.632 20.5519 481.225C19.9833 478.057 18.1149 477.245 11.535 477.489Z" fill="#334D66"/>
<path d="M13.3221 469.122C14.3782 473.183 18.9272 472.777 20.7956 476.351C21.5267 474.158 21.8516 472.452 20.3894 471.802C18.1961 470.746 16.7339 467.497 13.3221 469.122Z" fill="#334D66"/>
<path d="M86.9194 426.88C85.8634 423.631 84.9698 420.788 83.995 417.782C87.2443 419.001 89.925 419.976 92.9306 421.113C90.8186 423.144 89.0315 424.85 86.9194 426.88Z" fill="#334D66"/>
<path d="M361.488 351.171C361.406 347.516 361.082 343.86 360.513 340.204C359.782 335.168 359.701 329.969 358.888 324.933C357.832 317.784 356.533 310.636 355.152 303.487C354.014 297.313 352.715 291.14 351.252 284.966C350.765 282.935 349.546 280.986 349.14 278.955C347.516 271.4 344.104 264.495 341.748 257.184C339.717 250.929 335.98 245.487 332.731 239.882C329.726 234.683 326.395 229.727 323.146 224.691C321.196 221.685 319.328 218.68 317.134 215.918C314.454 212.425 311.042 209.419 308.849 205.764C305.031 199.346 299.344 194.553 295.283 188.38C293.983 186.349 291.708 184.887 289.921 183.181C285.697 179.2 281.473 175.22 277.086 171.402C274 168.721 270.75 166.203 267.42 163.766C263.845 161.085 260.271 158.567 256.534 156.049C252.473 153.287 248.249 150.688 244.106 148.088C239.557 145.245 235.089 142.483 230.459 139.721C224.61 136.228 218.761 132.573 212.587 129.567C208.363 127.536 204.383 125.18 200.321 122.906C196.584 120.875 192.766 118.925 189.273 116.57C182.937 112.427 176.682 108.121 170.508 103.735C167.99 101.948 165.716 99.9168 163.279 98.0484C160.111 95.5302 157.999 92.1996 156.455 88.5441C153.125 80.3396 151.5 71.8913 152.8 63.0369C153.856 55.1573 157.917 49.471 164.497 44.9219C168.721 41.9975 173.433 40.5353 177.982 39.2356C181.719 38.1795 186.268 38.4232 190.167 39.398C198.209 41.4289 205.195 45.4093 210.313 52.3141C211.694 54.1825 213.562 55.7259 215.105 57.5943C220.142 63.768 225.178 69.9417 230.134 76.1967C231.19 77.4964 232.083 79.0398 232.814 80.5833C235.576 87.0007 240.775 91.7122 244.349 97.561C245.649 99.6731 247.518 101.46 249.142 103.41C253.123 107.959 256.453 112.833 259.703 117.951C262.789 122.825 266.77 127.13 270.425 131.76C271.238 132.816 272.05 133.872 272.862 135.01C277.818 142.32 282.935 149.469 291.14 153.612C292.683 154.343 293.82 155.805 295.364 156.536C301.944 159.948 309.174 161.004 316.485 161.816C326.639 162.954 335.087 159.298 342.235 153.206C347.516 148.738 351.74 142.727 352.958 135.334C353.771 130.704 354.095 126.236 353.283 121.525C352.633 117.626 352.552 113.564 351.009 109.908C349.628 106.74 348.165 103.653 346.297 100.729C345.079 98.7795 344.023 96.6674 342.723 94.7178C340.123 90.7374 337.118 87.0819 334.193 83.264C329.726 77.5776 325.42 71.7289 321.927 65.3927C320.952 63.6055 320.952 61.331 320.302 59.3814C318.515 54.02 319.084 48.5774 319.246 43.1348C319.328 40.4541 320.465 37.7734 321.115 35.0927C321.277 34.6053 321.521 34.0367 321.521 33.5493C321.765 30.6249 322.252 27.7005 322.171 24.7761C322.09 21.3643 321.521 18.1962 318.84 15.4343C315.591 12.1037 312.667 8.4482 307.549 7.9608C305.193 7.79834 302.837 7.2297 300.563 7.39217C298.613 7.4734 296.745 8.28573 294.876 8.9356C289.596 10.9664 285.535 14.3782 283.341 19.9833C281.96 20.0645 280.579 20.1458 279.036 20.227C277.168 22.0954 277.818 24.6948 277.33 26.9694C276.518 31.2747 275.624 35.5801 275.056 39.9667C274.649 43.7034 273.918 47.3589 274.406 51.3393C275.056 56.3758 276.274 61.0873 278.386 65.7176C279.036 67.261 280.092 68.7232 281.229 69.8605C283.423 72.135 285.941 74.0846 288.134 76.4404C290.571 79.0398 292.764 81.8018 294.958 84.5637C298.288 88.4629 302.025 92.0371 305.437 95.7739C309.417 100.16 313.885 104.385 316.16 109.99C317.216 112.508 317.216 115.432 317.541 118.194C317.622 119.007 317.134 120.063 316.566 120.631C313.235 124.124 309.011 126.155 304.381 125.343C301.213 124.774 298.288 122.662 295.526 120.875C293.658 119.738 292.358 117.788 290.652 116.407C286.834 113.239 284.397 109.259 282.123 104.953C280.986 102.922 279.361 101.135 278.142 99.1044C275.868 95.0428 273.512 90.9811 271.481 86.8382C268.07 79.7709 264.983 72.5412 261.408 65.4739C259.54 61.8184 257.266 58.4066 254.991 54.9136C251.336 49.3897 247.68 43.8659 243.862 38.5045C242.4 36.4737 240.45 34.9302 238.744 33.0619C235.576 29.4876 232.652 25.7509 229.321 22.3391C228.022 20.9581 226.153 19.7396 224.285 19.171C221.929 18.4399 220.223 17.3026 219.33 15.0281C216.162 15.7592 213.968 14.4595 211.856 12.3474C209.338 9.82916 206.576 7.63587 203.002 6.41737C200.077 5.36134 197.478 3.08681 194.554 2.19324C189.273 0.568581 183.912 -0.974849 178.226 0.162415C177.495 0.324882 176.601 -5.09769e-05 175.87 -5.09769e-05C170.59 0.568581 165.228 1.38091 160.029 3.16804C159.867 3.24928 159.786 3.33051 159.704 3.33051C154.018 3.57421 149.307 6.33614 144.595 9.01683C140.615 11.2914 136.309 13.241 133.629 17.3026C133.547 17.3839 133.466 17.5463 133.385 17.6276C127.049 20.5519 125.099 27.4568 120.631 32.1683C118.763 34.1179 116.976 36.8798 116.407 40.1291C115.92 42.9723 113.808 45.4905 112.752 48.3337C111.533 51.6643 110.315 55.1573 109.746 58.6503C109.015 63.1181 108.853 67.6672 108.609 72.135C108.528 74.4096 108.69 76.6841 108.853 78.9586C109.34 85.2948 110.152 91.5498 112.021 97.561C112.914 100.323 114.539 102.76 115.757 105.441C116.895 107.796 117.707 110.396 119.088 112.589C121.2 116.001 123.474 119.25 126.236 122.093C127.699 123.556 128.673 125.668 130.136 127.13C131.923 128.836 134.197 129.973 136.228 131.516C138.665 133.385 140.94 135.334 143.295 137.284C146.707 140.046 150.2 142.808 153.693 145.489C155.237 146.707 157.024 147.682 158.648 148.819C161.817 150.931 164.903 152.962 168.072 155.155C168.559 155.48 168.884 156.13 169.615 156.942C164.578 156.455 160.029 156.049 155.48 155.48C149.388 154.668 143.377 153.937 137.365 152.881C128.024 151.175 118.6 151.012 109.259 150.444C105.928 150.281 102.598 149.956 99.267 149.55C97.1549 149.307 95.6115 147.763 94.9616 145.895C93.1745 140.94 90.0064 137.447 83.9951 136.147C85.2949 134.847 86.1884 134.035 87.0008 133.141C87.5694 132.491 88.3817 131.679 88.2193 131.029C87.9756 129.567 86.6758 129.892 85.6198 130.217C83.5078 130.704 81.8831 131.841 81.152 133.872C80.3397 136.147 79.1212 137.934 76.3592 138.827C73.1099 135.091 68.6421 135.497 63.6869 137.04C64.7429 135.334 65.5552 134.116 66.3675 132.816C63.037 131.76 60.6 133.06 60.2751 136.39C59.9501 139.152 58.8129 141.427 57.7568 143.701C54.7512 144.92 51.7456 146.057 48.5775 147.276C47.9276 144.839 46.0592 142.889 47.7651 140.371C48.0088 140.046 47.6027 138.909 47.1965 138.746C46.5466 138.421 45.5719 138.34 45.0032 138.584C43.2973 139.396 42.485 142.645 43.3786 144.514C44.7595 147.357 46.0592 149.794 44.6783 153.449C43.541 156.374 43.9472 160.111 44.5158 163.36C44.922 165.553 46.5466 167.746 48.0901 169.452C52.233 174.083 57.2694 177.494 62.4684 180.987C67.0986 184.156 72.8662 185.049 76.9279 189.192C77.4965 189.761 78.6338 189.923 79.5273 190.248C81.2332 190.898 83.1016 191.385 84.7262 192.198C88.9504 194.472 93.4994 195.366 98.211 196.341C104.303 197.559 110.233 199.752 116.245 201.539C119.657 202.514 123.068 203.652 126.561 204.545C133.629 206.413 140.696 208.119 147.763 209.988C150.688 210.719 153.531 211.612 156.861 212.506C155.724 216.243 153.856 218.923 152.231 221.767C151.825 222.416 151.094 222.985 150.769 223.635C148.576 229.484 143.539 231.19 138.096 232.164C131.354 233.302 124.693 232.652 117.951 231.758C113.32 231.108 108.69 230.702 104.06 230.865C99.267 230.946 95.2053 232.733 92.7683 237.607C91.3061 240.531 90.2501 243.456 89.1128 246.461C86.4321 253.204 84.0764 260.19 80.3397 266.526C76.9279 272.375 73.6785 278.305 70.348 284.154C69.6169 285.372 68.5608 286.509 67.586 287.565C66.1238 289.109 64.4992 290.49 62.9558 292.033C59.1378 295.851 55.726 300.238 51.5019 303.487C46.7904 307.143 43.2161 311.692 40.1292 316.403C37.1236 320.952 32.8995 324.12 29.4064 328.02C27.3756 330.213 25.6697 332.487 24.1263 335.006C22.2579 338.092 22.4204 341.017 23.4764 344.185C23.8826 345.403 24.1263 346.703 24.5325 348.409C22.2579 349.303 20.0646 350.115 17.9526 350.927C19.8209 354.42 21.7705 354.014 25.5073 352.471C28.9191 351.009 28.8378 350.927 32.4933 352.552C32.1684 356.695 34.1992 360.025 36.9611 362.869C35.0928 365.874 32.8182 364.899 30.6249 363.6C29.8938 366.605 31.9247 369.042 34.5241 368.149C36.9611 367.255 39.8855 367.499 41.7539 364.981C42.1601 364.493 43.1349 364.412 43.9472 364.25C46.2217 363.925 48.5775 363.6 50.6895 363.275C51.9893 364.493 53.3702 365.793 54.8324 367.174C52.0705 369.448 48.9836 369.773 45.6531 368.392C45.3282 371.398 46.7903 372.86 49.6335 372.779C52.8016 372.698 55.5635 371.398 58.163 369.611C58.8129 369.205 59.4627 368.392 60.1126 368.474C63.1995 368.717 65.3115 366.768 67.8297 365.549C71.5665 363.762 74.6533 361 77.9027 358.644C80.8271 356.532 83.8327 354.339 85.701 351.009C86.7571 349.221 88.3817 347.678 90.0064 346.459C94.1493 343.291 96.5863 338.824 99.8356 335.006C104.466 329.401 109.096 323.714 113.645 318.028C114.864 316.566 115.92 314.941 116.895 313.316C119.657 308.93 123.15 305.193 126.724 301.538C127.455 300.806 128.267 299.994 129.08 299.425C131.76 297.72 134.279 298.369 136.878 300.644C139.64 303.081 142.727 305.193 145.814 307.224C149.388 309.58 152.962 311.935 156.78 313.723C161.248 315.753 165.959 317.216 170.59 318.84C173.352 319.815 176.114 320.709 178.957 321.277C183.993 322.333 189.111 323.795 194.147 323.877C199.915 324.039 205.764 322.902 211.856 322.333C212.425 325.014 213.4 327.938 213.075 331.188C212.831 333.137 213.4 335.087 213.481 337.036C213.562 341.342 213.481 345.728 213.481 350.034C213.481 350.277 213.643 350.684 213.481 350.846C211.125 353.446 211.694 356.857 211.775 359.7C211.856 365.712 209.257 370.829 207.307 376.11C205.764 380.171 203.733 384.152 201.621 387.97C198.859 392.925 195.285 397.311 191.142 400.886C187.324 399.505 183.75 398.286 179.525 396.743C181.637 394.712 183.343 393.006 185.13 391.3C187.243 389.351 189.598 387.482 191.629 385.451C195.041 382.04 194.878 377.409 191.142 374.322C187.811 371.561 184.318 369.611 179.444 370.586C175.87 371.317 171.971 370.423 168.396 371.967C164.985 373.429 161.492 374.566 158.08 376.191C154.83 377.734 151.744 379.521 148.576 381.227C145.976 380.334 143.458 379.44 140.94 378.547C141.346 377.328 141.589 376.272 142.077 375.216C142.889 373.429 142.321 372.292 140.858 371.073C135.497 366.768 129.811 367.093 123.637 368.799C119.819 369.855 116.082 370.911 112.67 373.104C109.746 374.891 106.74 376.597 103.491 378.465C99.9981 375.703 95.9364 376.922 92.0372 377.815C90.4938 378.14 89.0316 380.009 87.9756 381.471C86.2697 383.827 84.8075 385.858 81.3957 385.451C80.2584 385.37 78.715 386.182 77.8214 387.076C75.4657 389.513 73.2724 392.194 70.8354 395.118C67.7485 393.9 64.2555 394.306 60.8437 395.687C60.6 395.768 60.4375 395.849 60.2751 396.012C56.2946 390.569 49.7147 388.701 44.6783 384.314C42.8912 384.964 42.7287 386.182 43.6223 387.482C44.1909 388.295 45.0844 389.188 45.978 389.513C50.1209 391.138 53.4515 394.062 56.7008 396.905C57.107 397.23 57.5131 397.474 57.8381 397.636C57.7568 397.718 57.6756 397.799 57.5944 397.799C57.1882 398.124 56.8633 398.692 56.4571 398.855C55.726 399.18 55.1574 399.586 54.5887 399.992C50.6895 398.043 46.7091 396.337 42.8099 394.387C41.0228 393.493 40.4542 394.468 39.5606 396.337C43.866 398.449 48.0901 400.561 52.3954 402.754C51.6643 404.216 51.3394 405.922 51.0957 407.628C47.6027 406.328 44.2721 404.541 40.3729 404.785C39.8855 404.785 39.4794 404.947 38.992 405.11C38.9107 405.435 38.8295 405.76 38.7483 406.085C42.6475 408.115 46.7091 409.659 50.852 411.04C50.852 411.121 50.852 411.121 50.852 411.202C50.7708 413.883 51.0957 416.482 52.1517 418.838C53.4515 420.463 55.0761 422.169 56.8633 423.631C56.8633 423.956 56.782 424.281 56.7008 424.525C56.0509 427.855 57.5131 430.455 59.1378 432.973C60.4375 435.085 62.7933 431.023 65.3927 428.667C67.586 429.724 69.9418 430.617 72.5413 430.211C75.9531 429.723 79.8523 430.698 82.7766 427.855C82.208 425.743 81.8831 423.712 81.0708 421.925C79.3649 418.107 80.5834 413.233 87.1632 414.858C91.1437 415.264 96.9925 419.407 97.5611 420.463C99.4295 424.281 95.1241 423.55 92.8496 425.499C88.9504 428.667 87.2445 432.485 88.463 437.766C89.2753 441.584 91.1437 444.833 93.7431 447.189C98.1297 451.169 103.816 451.088 108.771 448.732C112.67 446.864 116.407 444.752 120.55 443.208C121.281 442.964 122.094 442.64 122.825 442.396C120.55 440.527 118.357 438.334 116.57 435.816C116.813 435.572 116.976 435.329 117.22 435.004C117.626 435.004 118.113 434.922 118.357 435.085C121.119 437.116 123.881 439.228 126.643 441.259C128.592 440.771 130.542 440.527 132.573 440.527C129.892 438.659 127.13 436.791 124.368 435.085C123.556 434.597 123.068 433.623 122.175 432.648C124.124 431.998 125.262 432.404 126.561 433.216C132.085 436.791 137.69 440.284 143.377 443.696C144.595 444.427 144.92 445.077 144.351 446.133C144.514 446.458 144.595 446.782 144.758 447.107C146.382 451.575 145.326 455.718 143.458 459.861C141.346 464.573 137.772 466.685 132.573 466.441C128.755 466.278 124.937 466.766 121.2 466.278C117.869 465.872 114.783 466.603 111.696 467.334C109.015 467.984 106.416 469.203 103.735 469.771C99.1045 470.746 94.6367 472.94 89.6815 472.208C86.4321 471.721 83.0203 471.477 79.9335 470.584C77.4965 469.853 79.1212 466.278 80.7458 466.928C84.4013 468.39 88.3817 468.228 88.3817 468.228C88.3817 468.228 88.8691 468.228 89.6002 468.228C90.3313 464.816 91.3874 459.699 93.8244 457.586C95.6927 460.43 97.8048 462.948 97.9673 466.928C100.648 466.278 103.41 465.547 103.41 465.547C107.878 464.654 112.102 463.679 116.326 462.867C117.301 462.704 118.357 462.785 119.413 462.785C121.444 462.785 123.393 462.867 125.424 462.867C126.561 462.867 127.861 462.704 128.917 462.948C133.466 464.085 136.797 461.729 139.721 458.967C140.858 457.911 140.696 455.474 141.346 453.768C142.321 451.25 141.752 449.057 140.533 446.864C140.046 445.97 139.152 444.995 138.34 444.752C136.147 444.264 133.71 443.533 131.598 443.939C131.192 444.021 130.704 444.183 130.298 444.264C130.948 444.752 131.598 445.239 132.248 445.726C133.222 446.458 133.222 447.595 131.598 448.651C129.811 447.514 128.105 446.458 126.399 445.239C123.15 446.133 119.9 447.107 116.813 448.326C115.351 449.138 112.427 450.519 110.477 451.575C109.909 454.175 109.584 456.124 109.096 458.074C108.934 458.805 108.528 459.374 108.04 460.511C103.816 458.724 102.922 458.074 101.46 453.931C97.0737 453.606 91.5498 451.25 87.082 442.964C85.3761 439.553 84.7262 435.572 83.7514 432.16C82.0455 432.567 80.3397 433.217 78.5525 433.379C76.278 433.541 74.0035 433.948 71.7289 433.785C71.1603 433.785 70.348 438.334 67.586 439.228C63.6868 439.228 61.2499 441.34 59.1378 444.102C58.5692 444.833 57.9193 445.808 57.1882 445.97C51.0957 447.189 49.2273 452.55 46.8716 457.018C45.7343 459.13 46.6279 462.379 46.6279 465.06C46.6279 465.385 47.1153 465.872 47.034 466.116C45.978 469.04 48.0901 470.827 49.471 472.858C49.7147 473.183 49.8772 473.427 50.1209 473.752C49.6335 473.671 49.2273 473.671 48.7399 473.671C46.2217 473.508 43.7035 473.671 41.0228 473.671C40.6979 472.127 40.048 470.259 39.8855 468.309C39.1544 459.617 29.1627 452.388 20.1459 454.093C17.7089 454.581 15.1094 454.743 12.7536 455.474C8.44829 456.693 5.93006 459.942 4.30539 463.841C2.3558 468.797 1.8684 473.996 3.41183 479.113C4.06169 481.388 4.54909 483.987 6.74239 485.693C7.31102 486.099 7.55472 486.993 7.96089 487.643C8.85445 489.186 10.2354 489.999 11.6976 490.973C15.7593 493.573 20.3896 493.004 24.5325 493.492C25.9134 495.441 25.0199 497.634 25.3448 499.746C24.6137 499.909 23.8014 500.071 23.0703 500.396C18.9274 501.859 15.0282 503.727 11.6164 506.326C9.34185 508.032 7.79842 510.713 6.17376 513.15C3.41183 517.374 2.27456 522.411 0.324968 527.041C-0.487364 528.828 -0.0811978 531.184 -0.0811978 533.296C-0.0811978 535.002 0.568668 536.708 0.487435 538.413C3.5435e-05 543.694 2.19333 547.999 5.11773 552.061C7.63595 555.472 10.2354 558.884 12.7536 562.215C13.1598 562.702 13.7284 563.108 14.2158 563.433C16.2467 564.733 18.2775 566.033 20.3083 567.17C22.0142 568.145 23.7201 568.795 24.6949 569.201C24.7762 571.232 24.8574 573.344 24.8574 575.375C24.9386 578.705 25.3448 582.036 25.1011 585.366C24.7762 590.89 27.1319 594.871 31.5185 597.795C36.3113 601.044 41.5102 602.506 47.2777 602.344C48.3338 602.344 49.471 602.182 50.5271 602.425C54.9949 603.238 59.219 601.938 63.4431 600.638C64.5804 600.313 65.8801 600.313 66.9362 599.907C71.4852 597.957 74.1659 594.708 75.1407 589.915C78.3088 590.646 85.0512 592.027 87.8131 592.109C90.9812 592.109 93.7431 593.165 96.6675 593.733C101.704 594.708 106.659 596.333 111.696 597.47C115.757 598.364 119.819 598.851 123.881 599.745C127.13 600.476 130.217 601.532 133.466 602.263C137.365 603.075 141.183 603.969 145.245 604.05C153.693 604.212 161.329 601.938 168.803 598.282C173.433 596.089 178.307 594.221 183.1 592.352C187.811 590.565 192.035 593.977 191.385 599.095C191.304 599.582 191.061 600.151 190.736 600.476C188.542 602.831 186.349 605.106 184.074 607.38C182.693 608.761 181.231 610.224 179.769 611.523C178.713 612.498 177.495 613.392 176.439 614.367C175.545 615.098 174.733 615.91 173.839 616.722C173.433 617.128 173.27 617.697 172.864 617.941C168.965 620.134 165.066 622.165 161.085 624.358C159.055 625.495 156.861 626.552 154.993 627.932C151.419 630.613 147.032 631.507 143.133 633.213C138.096 635.406 132.898 637.193 127.617 638.655C119.9 640.849 112.589 643.935 104.953 646.372C99.4295 648.078 95.1241 651.165 91.1437 655.308C88.5442 657.989 85.3761 660.02 82.4517 662.375C79.1212 665.137 75.6281 667.737 72.46 670.661C68.3171 674.479 66.6925 679.434 67.2611 684.958C67.5048 687.233 67.2611 689.02 65.8801 690.969C64.6617 692.594 64.1743 694.869 63.6869 696.899C63.2807 698.443 64.6616 699.824 67.1799 700.392C67.6673 698.118 68.2359 695.843 68.8858 693.081C70.4292 694.138 71.6477 695.112 72.9474 695.681C74.3284 696.412 75.9531 696.818 76.8466 697.143C78.3088 700.311 79.5273 702.911 80.7458 705.673C80.5834 707.785 80.2584 710.303 80.2584 712.74C80.2584 713.309 81.5582 713.796 82.8579 714.852C83.1828 712.253 83.4265 710.384 83.6702 708.597C87.4882 709.084 91.0624 710.709 94.8804 709.003C95.449 708.759 96.4238 709.084 96.9925 709.572C97.3174 709.815 97.3174 710.79 97.1549 711.359C96.5863 713.309 95.8552 715.177 95.2053 717.045C94.7992 718.183 94.9616 719.32 96.1801 719.726C97.4799 720.132 98.0485 719.32 98.3734 718.101C98.9421 716.07 99.7544 714.121 100.567 711.928C102.191 712.253 103.654 712.821 105.035 712.74C109.827 712.334 113.564 710.384 116.895 706.647C120.956 702.017 124.287 696.493 130.136 693.65C130.785 693.325 131.273 692.513 131.842 692.025C136.147 687.964 141.102 685.283 146.87 683.983C150.119 683.252 153.206 682.034 156.374 680.978C156.861 680.815 157.349 680.49 157.836 680.409C164.416 678.784 170.508 675.86 176.682 673.342C181.556 671.311 186.187 668.793 190.979 666.599C192.766 665.787 194.716 665.381 196.584 664.65C201.865 662.457 207.145 660.263 212.425 658.07C215.187 656.933 217.949 655.633 220.711 654.577C224.691 653.034 228.753 651.734 232.814 650.272C238.988 647.916 245.162 645.479 251.336 643.123C252.067 642.798 252.879 642.229 253.529 642.311C256.697 642.798 258.322 640.767 260.027 638.736C262.058 636.299 264.495 634.106 265.389 630.857C265.795 629.476 266.364 628.014 266.201 626.552C265.876 622.977 265.145 619.403 264.82 615.829C264.414 611.361 264.333 606.812 264.089 602.344C263.845 598.039 263.196 593.652 263.439 589.347C263.927 579.842 265.551 570.501 271.075 562.377C273.512 558.803 276.355 555.554 279.117 552.142C281.798 548.811 284.479 545.481 287.241 542.15C291.059 537.52 295.283 533.215 298.776 528.422C302.35 523.467 306.98 519.324 309.58 513.637C310.473 511.688 312.26 510.063 313.723 508.357C317.622 503.808 320.952 498.934 323.552 493.492C325.176 490.161 327.613 487.318 329.319 484.069C333.462 476.514 336.874 468.634 339.961 460.592C343.373 451.656 347.109 442.883 349.465 433.623C350.684 428.911 352.877 424.443 354.177 419.651C355.314 415.589 355.639 411.365 356.451 407.222C356.695 405.922 357.182 404.704 357.507 403.404C357.751 402.429 357.913 401.373 358.076 400.317C358.32 398.855 358.563 397.474 358.807 396.012C359.376 392.844 360.269 389.757 360.594 386.589C361.163 380.659 361.813 374.647 361.894 368.717C362.381 362.625 361.65 356.939 361.488 351.171ZM329.319 132.491C327.776 131.76 326.314 130.867 324.933 129.811C323.146 128.348 323.714 127.13 325.095 126.399C328.02 128.186 330.213 129.973 332.731 130.948C336.062 132.248 339.555 132.897 343.048 133.872C344.429 134.278 346.297 134.116 346.297 136.39C341.017 137.122 335.737 135.416 329.319 132.491ZM344.835 114.051C346.297 114.376 347.597 115.27 348.978 115.92C348.897 116.407 348.815 116.895 348.734 117.382C348.003 117.382 347.191 117.463 346.46 117.382C340.042 116.407 333.625 113.564 327.126 116.732C326.07 114.051 326.07 113.97 327.532 113.483C329.807 112.752 332.081 111.939 334.518 112.345C338.011 112.914 341.504 113.32 344.835 114.051ZM338.336 99.1044C338.824 99.6731 338.905 100.567 339.392 102.191C333.462 98.617 328.426 97.7235 323.958 102.516C322.008 101.46 322.496 100.16 323.389 99.1044C326.07 95.6926 335.412 95.6114 338.336 99.1044ZM298.938 71.5664C296.095 71.6476 294.958 70.023 295.608 67.1798C296.42 63.5243 299.263 61.4935 301.944 59.2189C301.538 59.0565 301.213 58.7315 300.888 58.7315C296.339 58.894 291.871 58.9752 287.403 59.3814C285.129 59.5439 283.829 59.1377 284.073 57.4318C284.56 53.8575 284.966 50.1208 287.647 47.4401C288.784 46.3029 290.246 45.4093 291.546 44.4345C289.353 42.8911 287.322 41.3476 285.21 39.9667C283.585 38.9106 283.504 37.6109 284.235 36.1487C285.535 33.793 286.997 31.7621 289.678 30.5436C294.552 28.3503 299.507 28.1879 304.624 28.6753C306.574 28.8377 308.361 29.7313 309.58 32.0058C308.442 32.2495 307.63 32.7369 307.061 32.4932C301.213 30.2999 295.689 31.4372 290.246 34.0367C288.703 34.7678 288.134 35.8238 287.647 37.3672C290.49 39.723 293.171 41.835 296.826 42.2412C298.451 42.4037 299.994 42.5661 301.619 42.7286C304.462 43.0535 306.98 44.0283 308.524 47.1964C307.224 47.1964 305.843 47.5214 304.706 47.1152C301.213 45.8967 297.882 46.709 294.47 47.4401C290.246 48.3337 288.053 51.2581 287.728 55.5634C291.708 55.5634 295.608 55.7259 299.588 55.5634C303.487 55.401 307.386 55.076 311.286 58.0004C306.33 61.0061 300.888 62.5495 298.37 68.4795C301.7 68.8857 304.543 69.2106 307.468 69.698C308.767 69.8605 310.148 70.1042 311.286 70.6728C313.154 71.5664 312.91 72.7849 311.529 73.9221C307.386 72.0538 303.244 71.4852 298.938 71.5664ZM309.336 89.2752C308.524 85.9447 308.767 85.0511 311.042 84.2388C314.941 82.6953 318.922 82.8578 322.902 83.5889C324.283 83.8326 325.989 84.4825 326.476 87.5693C320.14 85.701 314.372 84.6449 309.336 89.2752ZM312.017 134.928C312.098 134.035 313.316 132.573 314.048 132.573C315.591 132.491 315.51 133.71 315.266 135.172C314.86 138.259 315.266 141.427 317.947 143.539C320.546 145.57 323.471 147.194 326.233 148.982C326.882 149.469 327.451 150.119 328.101 150.688C327.938 151.094 327.776 151.419 327.613 151.825C326.233 151.581 324.689 151.662 323.552 151.012C320.871 149.55 318.353 147.844 315.835 146.057C311.935 143.377 311.773 139.152 312.017 134.928ZM300.482 132.816C300.725 131.192 301.538 129.811 303.893 130.136C303.65 132.248 303.325 134.197 303.243 136.147C303 140.208 303 144.189 307.061 146.788C308.442 147.682 309.092 149.144 308.605 151.256C299.994 146.138 299.101 140.777 300.482 132.816ZM288.54 126.967C289.19 125.668 289.271 123.556 291.465 123.718C292.764 123.799 292.927 125.668 291.546 128.267C290.246 130.785 289.678 133.222 290.165 135.984C290.246 136.553 290.003 137.203 289.84 137.771C288.215 138.178 287.728 137.284 287.403 136.228C286.266 132.897 287.078 129.892 288.54 126.967ZM279.686 114.945C280.336 114.701 281.148 114.782 282.773 114.701C281.798 116.245 281.148 117.138 280.579 118.032C279.605 119.819 277.574 121.281 278.142 123.637C278.386 124.855 278.224 125.668 277.086 125.586C276.437 125.586 275.462 124.693 275.299 123.962C274.568 121.281 277.168 116.001 279.686 114.945ZM274.325 101.866C274.568 101.866 275.218 102.679 275.218 102.922C275.056 103.491 274.568 104.303 274.162 104.385C270.425 104.71 268.232 106.822 266.851 110.071C266.77 110.233 266.445 110.315 265.876 110.558C265.389 109.99 264.901 109.584 264.82 109.177C264.414 106.009 266.77 104.222 268.719 102.76C270.019 101.623 272.375 101.948 274.325 101.866ZM268.719 89.0315C269.288 89.1128 269.613 90.0875 270.588 91.1436C265.226 92.2808 261.815 94.6366 260.19 99.1857C259.784 100.242 259.053 101.379 257.428 100.729C256.941 95.3677 263.764 88.2192 268.719 89.0315ZM262.383 78.7961C256.534 79.3648 251.742 81.6393 248.574 87.5693C247.193 84.4012 247.518 82.4516 249.63 80.6645C252.635 78.2275 255.885 76.1154 260.027 76.0342C262.546 75.953 262.546 75.7905 262.383 78.7961ZM256.372 64.7428C256.291 65.0677 256.291 65.3927 256.21 65.7176C254.991 66.1238 253.773 66.4487 252.635 66.8549C250.767 67.5047 249.061 68.3983 247.193 68.8857C244.999 69.4543 244.349 71.4852 242.887 72.7849C242.237 73.3535 241.1 73.2723 240.125 73.516C240.125 72.7037 239.963 71.7289 240.207 70.9978C241.912 66.6112 250.036 63.1994 254.097 63.1994C254.829 63.2806 255.641 64.1742 256.372 64.7428ZM247.193 52.1517C245.568 52.6391 244.593 52.8828 243.7 53.1265C242.481 53.4514 241.181 53.7763 240.044 54.2637C236.876 55.5634 234.358 57.6755 233.139 61.0873C232.571 62.6307 231.84 63.6055 230.134 63.5243C229.078 60.1937 231.108 56.1321 235.089 53.3702C240.288 49.7959 243.781 49.2273 247.193 52.1517ZM226.234 43.216C230.134 40.6165 234.52 39.1543 239.394 40.0479C239.232 42.6474 239.232 42.6474 236.957 42.8911C232.327 43.3785 228.184 44.9219 225.422 48.9023C224.691 49.9584 224.285 51.2581 223.554 52.8828C221.198 51.7455 221.117 49.9584 222.01 48.4149C223.066 46.4653 224.447 44.4345 226.234 43.216ZM209.257 37.5297C210.556 32.5745 213.562 28.7565 217.218 25.4259C218.842 23.8825 219.898 24.2074 222.173 26.157C220.467 27.4568 218.923 28.594 217.38 29.8125C214.862 31.6809 213.725 34.4428 212.587 37.2047C212.1 38.4232 211.125 39.4793 210.313 40.6165C209.988 40.5353 209.582 40.3728 209.257 40.2916C209.257 39.3168 209.013 38.342 209.257 37.5297ZM197.397 23.9637C198.453 19.7396 199.184 15.4343 200.24 11.2101C200.402 10.3978 201.458 9.82916 202.514 8.77313C203.002 9.9104 203.245 10.2353 203.164 10.3978C201.783 16.734 200.321 23.1514 198.94 29.4876C198.859 29.7313 198.696 29.975 198.615 30.2187C197.884 31.6809 196.747 32.0058 195.122 31.1935C195.934 28.6753 196.828 26.3195 197.397 23.9637ZM181.069 26.7257C183.262 27.2943 183.262 28.4316 182.369 30.2999C180.663 29.4064 180.175 28.4316 181.069 26.7257ZM174.489 10.804C176.439 14.6219 178.144 18.4399 179.932 22.3391C180.5 23.4763 180.825 24.6136 179.119 25.5884C175.626 20.8769 172.702 14.3782 172.133 9.58547C173.108 10.0729 174.164 10.2353 174.489 10.804ZM63.4431 157.674C62.7121 156.049 61.981 154.424 64.2555 152.8C68.4796 155.399 68.0734 160.598 70.5104 164.172C67.586 164.091 65.2303 161.654 63.4431 157.674ZM78.3088 157.186C76.278 154.424 74.3284 151.5 74.0847 148.007C74.0035 146.382 74.9783 145.326 77.1716 145.407C77.4965 147.357 77.5777 149.307 78.1464 151.012C78.7962 152.962 79.8523 154.83 81.0708 157.267C79.6898 157.267 78.5525 157.511 78.3088 157.186ZM88.0568 181.475C86.026 176.357 84.8075 170.996 85.3761 165.472C85.4573 164.578 85.9447 163.685 86.4321 162.954C86.7571 162.548 87.6506 162.304 88.138 162.466C88.6254 162.629 89.1128 163.441 89.1128 163.929C89.1941 164.985 88.9504 166.041 88.7879 167.097C87.9756 172.702 88.8691 177.901 92.6059 182.693C89.8439 183.831 88.9504 183.587 88.0568 181.475ZM108.04 189.598C106.903 186.755 105.684 183.993 104.953 181.069C103.979 177.088 104.385 173.108 105.603 169.209C106.253 167.015 107.065 166.853 108.771 167.909C108.446 170.915 108.04 173.595 108.04 176.276C108.04 178.875 108.121 181.637 108.853 184.074C109.584 186.593 111.208 188.867 112.752 191.873C109.259 191.304 108.69 191.142 108.04 189.598ZM131.029 193.741C127.211 192.441 125.099 189.679 124.449 185.293C123.231 177.17 124.449 171.402 128.024 168.803C129.729 169.696 128.917 170.915 128.511 172.133C126.886 177.413 126.236 182.775 128.511 188.136C129.161 189.679 129.892 190.167 131.435 190.004C131.598 190.004 131.76 190.329 132.166 190.654C131.923 191.548 131.517 192.523 131.029 193.741ZM146.951 179.119C145.001 181.637 144.433 184.399 145.001 187.486C145.732 191.142 146.545 194.716 147.276 198.371C147.357 198.94 147.113 199.509 146.87 201.133C145.57 199.509 144.433 198.696 144.108 197.559C142.808 193.416 141.508 189.192 141.752 184.643C141.914 181.556 143.214 178.957 144.839 176.52C145.814 175.139 146.788 175.464 148.088 176.926C147.601 177.738 147.357 178.55 146.951 179.119ZM53.7764 341.017C51.908 344.591 48.7399 347.597 44.8408 349.384C42.5662 350.44 42.1601 350.277 41.0228 347.516C42.6475 346.622 44.5158 346.135 45.8156 344.916C48.0901 342.723 50.3646 340.367 51.9893 337.605C53.9389 334.193 56.782 332.731 60.3563 332.244C61.8185 332 63.6056 331.837 64.8241 334.275C63.3619 334.762 62.2247 335.087 61.1686 335.574C58.163 336.793 55.4823 337.686 53.7764 341.017ZM62.1434 354.583C60.7625 356.289 58.5692 357.832 55.1574 356.939C56.2134 355.801 57.0257 354.989 57.7568 354.177C59.219 352.633 60.6812 351.09 62.0622 349.465C64.0118 347.109 65.7989 344.591 67.8297 342.235C69.6981 340.123 70.1855 340.205 73.5973 342.479C68.6421 345.647 65.6365 350.277 62.1434 354.583ZM83.8327 336.062C82.8579 336.711 82.0456 336.062 81.2332 335.087C77.9839 331.269 74.5721 327.613 70.9166 323.552C71.0791 323.227 71.4852 322.414 72.0539 321.277C76.8466 324.12 80.1772 327.695 83.5078 331.269C84.0764 331.919 84.645 332.812 84.645 333.625C84.7262 334.437 84.4013 335.655 83.8327 336.062ZM96.0989 325.989C94.7992 324.526 93.6619 323.064 92.3622 321.765C88.7879 318.272 85.8635 314.129 81.152 311.935C79.771 311.285 79.4461 310.148 80.1772 308.93C81.152 307.305 82.533 307.955 83.589 308.849C86.6758 311.367 89.8439 313.885 92.6059 316.647C94.5555 318.596 95.9364 321.115 97.4799 323.389C98.4547 324.608 97.8048 325.339 96.0989 325.989ZM110.477 311.773C108.771 312.748 107.715 312.098 106.659 310.473C103.735 305.924 101.135 301.131 96.83 297.638C95.0429 296.176 93.337 294.551 91.2249 292.683C92.9308 291.14 94.1493 291.465 95.2053 292.439C96.7488 293.739 98.1297 295.201 99.7544 296.42C104.791 300.238 107.228 305.924 110.64 310.879C110.883 311.042 110.64 311.367 110.477 311.773ZM121.85 296.257C119.169 295.445 118.519 293.252 117.788 291.465C115.676 286.347 112.183 282.204 109.096 277.817C107.228 275.137 104.791 272.862 102.679 270.588C103.491 268.557 104.628 268.557 105.684 269.532C108.121 271.725 110.883 273.837 112.752 276.436C115.92 280.904 118.357 285.86 121.281 290.409C122.581 292.358 122.337 294.064 121.85 296.257ZM141.102 283.504C140.696 283.26 140.209 283.098 139.884 282.691C137.203 279.117 135.172 275.218 134.279 270.831C133.71 267.907 134.522 264.82 132.979 261.977C132.735 261.49 133.06 260.677 133.141 260.027C133.872 256.697 134.766 253.366 135.497 249.954C135.741 248.898 135.822 247.517 137.203 247.842C137.934 248.005 138.34 249.386 138.746 250.361C138.909 250.767 138.503 251.335 138.421 251.904C137.853 256.047 136.553 259.865 137.447 264.333C138.503 269.694 139.071 275.056 141.671 279.93C142.239 281.067 143.052 282.448 141.102 283.504ZM93.2557 435.491C95.2053 435.004 96.5863 434.76 96.9925 437.197C94.8804 437.441 94.8804 437.441 93.2557 435.491ZM92.3622 674.073C92.1997 678.622 90.9 682.602 87.0008 685.771C85.9447 686.664 83.589 687.395 84.1576 690.076C84.4013 691.213 82.2892 691.619 81.3957 690.563C80.3397 689.345 80.0147 687.883 81.152 686.502C82.1268 685.446 83.3453 684.552 84.4825 683.658C86.026 682.359 87.6506 681.221 87.9756 678.947C88.138 677.485 88.463 676.104 88.8691 674.723C89.6815 671.798 93.1745 668.793 95.9364 668.712C96.4238 668.712 96.9112 669.361 97.8048 670.093C95.8552 671.555 94.1493 672.773 92.3622 674.073ZM111.29 678.216C109.827 679.597 109.34 680.896 109.746 683.171C110.152 685.039 109.502 687.639 108.446 689.263C105.928 693 102.922 696.331 99.9981 699.824C99.7544 700.149 98.9421 700.311 98.6171 700.149C98.211 699.986 97.7236 699.336 97.7236 699.011C97.886 696.412 98.4547 693.65 100.81 692.432C102.841 691.457 103.735 689.751 104.872 688.208C105.928 686.827 106.659 685.121 106.091 683.009C105.035 679.272 107.715 675.941 112.752 675.454C112.102 676.672 111.858 677.647 111.29 678.216ZM142.564 661.157C141.996 662.213 140.858 662.294 139.802 661.644C135.01 658.639 130.623 655.227 128.755 649.54C127.861 646.697 128.105 646.21 131.354 645.398C132.004 647.591 132.166 650.109 133.385 651.815C135.497 654.658 137.853 657.339 141.183 658.882C142.239 659.37 143.295 659.857 142.564 661.157ZM330.538 296.176C330.863 296.745 330.213 297.801 329.888 299.101C325.176 295.12 321.846 290.652 316.485 288.784C314.779 288.215 313.073 287.403 311.611 286.347C306.574 282.773 301.375 281.635 295.201 283.179C291.059 284.235 288.378 287.078 285.372 289.434C283.423 290.977 282.285 293.658 280.904 295.932C278.711 299.669 276.68 300.157 273.025 297.882C270.1 296.095 267.014 294.47 263.845 293.171C261.896 292.358 259.621 291.546 257.672 291.79C253.691 292.277 249.386 291.302 245.649 293.495C243.131 294.958 240.288 295.445 237.932 297.557C234.358 300.725 230.052 303 227.372 307.143C226.397 308.605 225.016 309.417 223.148 307.305C225.097 304.868 226.803 302.35 228.996 300.238C231.108 298.126 233.87 296.664 236.064 294.633C240.044 290.896 245.162 289.353 250.036 288.215C256.047 286.834 262.14 288.215 267.907 290.571C269.044 291.058 270.182 291.302 271.238 291.871C273.025 292.927 274.731 294.145 276.437 295.283C278.061 292.927 279.117 290.733 280.742 289.028C283.016 286.672 285.86 284.803 288.297 282.529C292.44 278.711 297.476 277.574 302.675 278.549C310.636 280.011 317.459 284.316 323.796 289.271C325.176 290.327 326.639 291.221 327.857 292.439C328.832 293.495 329.807 294.795 330.538 296.176ZM316.647 243.212C317.865 244.187 319.246 245.08 320.546 245.974C324.77 248.736 326.476 253.285 324.689 257.428C322.74 256.616 322.658 256.616 322.577 254.91C322.496 252.229 322.008 249.873 318.922 248.98C318.434 248.817 318.19 248.167 317.784 247.924C313.479 245.568 309.905 241.75 304.218 242.562C300.725 243.05 297.232 243.375 294.227 245.405C291.546 247.193 288.784 248.736 285.941 250.523C284.235 248.98 283.179 247.761 281.879 246.786C278.142 243.943 274.324 241.506 269.532 240.775C266.932 240.369 264.333 239.882 261.733 239.475C261.246 239.394 260.677 239.638 260.19 239.719C258.809 239.963 257.347 240.125 255.966 240.369C254.016 240.694 251.985 240.856 250.117 241.425C241.181 244.106 233.221 248.573 226.559 255.153C225.016 256.616 223.473 258.159 221.929 259.54C221.279 260.19 220.467 260.84 219.655 261.165C218.355 261.733 217.055 260.596 217.624 259.296C218.111 258.078 218.842 256.941 219.817 256.047C222.01 254.016 224.366 252.067 226.641 250.117C231.758 245.893 237.607 242.968 243.537 239.963C247.355 238.013 251.417 237.607 255.478 236.957C258.728 236.389 261.896 235.089 265.226 236.957C265.714 237.282 266.526 237.12 267.176 237.12C273.918 236.795 279.199 240.125 284.073 244.187C287.159 246.705 287.078 246.949 289.921 244.512C293.82 241.1 298.207 239.394 303.568 238.988C308.605 238.744 312.748 240.125 316.647 243.212ZM254.585 175.789C261.571 175.464 268.313 177.251 275.137 178.632C275.299 178.713 275.462 178.957 275.787 179.363C275.543 179.931 275.218 180.663 274.893 181.394C258.24 177.17 242.237 178.144 225.666 183.343C226.397 181.881 226.559 180.744 227.128 180.419C228.753 179.363 230.54 177.982 232.327 177.738C239.8 176.845 247.193 176.195 254.585 175.789ZM232.571 151.256C235.82 151.662 239.313 151.5 242.156 153.612C243.131 154.343 244.187 154.993 243.131 156.78C241.506 156.211 239.8 155.48 238.095 154.993C232.896 153.531 227.778 154.83 222.66 155.399C217.461 155.968 213.237 158.892 209.5 162.466C207.063 164.741 204.708 167.015 202.189 169.29C201.215 170.183 200.077 171.077 198.209 169.696C199.346 168.234 200.159 166.934 201.215 165.878C204.301 162.791 207.145 159.298 210.719 156.942C217.218 152.475 224.529 150.2 232.571 151.256ZM203.977 140.371C206.901 137.771 210.069 138.015 213.318 137.609C214.374 137.446 215.593 138.34 216.649 138.909C216.974 139.071 217.299 139.802 217.218 140.208C217.136 140.615 216.568 141.102 216.162 141.183C215.512 141.346 214.862 141.102 214.212 141.021C210.8 140.615 207.632 140.696 205.195 143.783C204.545 144.595 203.489 145.001 202.677 145.651C201.865 146.301 200.727 146.87 200.402 147.763C199.265 150.769 196.828 153.531 197.884 157.105C197.965 157.349 197.559 157.755 197.234 158.486C193.985 154.83 193.904 153.206 195.853 149.794C197.722 146.057 200.727 143.214 203.977 140.371ZM182.937 132.897C184.724 129.729 188.055 128.511 191.06 127.455C192.685 126.886 194.797 127.942 196.828 128.267C195.61 130.298 195.61 130.379 194.066 130.46C191.629 130.542 189.273 130.785 187.405 132.654C184.318 135.741 182.044 139.152 181.8 143.783C181.719 145.407 181.313 147.032 180.906 148.982C178.632 146.626 177.982 141.508 179.282 139.152C180.581 137.04 181.719 134.928 182.937 132.897ZM148.657 17.3839C150.688 18.2774 152.962 19.171 154.506 20.7144C158.161 24.2887 160.273 28.8377 162.223 33.468C162.629 34.3616 162.385 35.5801 162.223 36.5549C162.141 36.961 161.41 37.5297 161.167 37.4484C160.598 37.286 159.786 36.7174 159.786 36.3924C160.029 32.6557 156.943 30.5436 155.48 27.7005C154.668 26.0758 153.612 24.3699 152.231 23.2326C150.363 21.6892 148.088 20.6332 145.651 19.171C146.057 17.5463 147.195 16.8152 148.657 17.3839ZM129.973 39.9667C136.472 38.2608 142.889 38.1795 148.494 42.4037C150.769 44.1096 153.125 45.8967 153.937 48.9836C151.744 50.1208 150.688 48.9023 149.307 47.7651C147.113 45.8967 144.758 43.7034 142.158 43.0535C136.797 41.7538 131.354 42.16 126.643 45.653C125.993 46.0592 125.099 46.1404 124.043 46.3841C124.937 43.3785 127.455 40.6165 129.973 39.9667ZM122.418 61.6559C124.124 60.1937 125.993 58.7315 128.024 57.838C130.542 56.7819 133.304 55.4822 135.903 55.7259C138.828 55.9696 141.752 57.4318 144.433 58.8128C146.626 59.95 146.87 61.4122 145.895 64.7428C144.595 63.1994 143.945 61.7372 142.808 61.1685C138.096 58.8128 133.222 58.2441 128.43 61.2498C126.968 62.1433 125.587 63.1994 124.043 63.9305C123.312 64.2554 122.418 64.1742 121.606 64.3366C121.85 63.3618 121.769 62.1433 122.418 61.6559ZM123.556 87.4069C121.85 86.6758 121.281 85.6197 122.5 84.2388C123.799 82.6953 125.099 81.0707 126.724 80.0146C133.466 75.5468 140.371 75.628 147.276 79.6897C146.382 82.6953 146.382 82.6141 144.27 81.7205C140.696 80.0959 136.959 80.2583 133.222 80.827C129.08 81.5581 126.399 84.5637 123.556 87.4069ZM131.842 101.541C131.435 102.273 130.379 102.679 129.567 103.247C129.892 93.1744 142.402 87.2444 152.312 92.1184C151.906 92.687 151.581 93.4993 151.094 93.5806C149.794 93.8243 148.413 93.9867 147.113 93.9055C140.533 93.3369 135.335 95.6926 131.842 101.541ZM150.444 110.396C146.788 113.808 144.676 118.032 143.458 122.906C141.102 122.175 140.858 120.631 141.346 119.007C141.589 118.113 142.158 117.301 142.483 116.407C145.164 109.015 151.175 104.547 158.811 104.141C161.898 103.978 163.441 105.034 164.497 108.527C159.136 106.578 154.506 106.578 150.444 110.396ZM160.923 128.592C160.598 130.136 160.192 131.598 159.786 133.141C159.38 133.222 158.892 133.222 158.486 133.304C158.161 132.248 157.43 131.192 157.511 130.217C157.836 126.805 158.567 123.474 161.085 120.794C165.391 116.163 170.021 112.752 176.845 114.62C179.282 115.27 179.607 116.082 178.144 118.925C176.195 117.301 174.083 116.732 171.483 117.382C166.609 118.6 161.898 123.556 160.923 128.592ZM164.01 195.853C166.772 192.279 169.94 188.948 173.352 185.943C176.845 182.856 179.282 178.875 182.125 175.301C183.343 173.758 183.912 172.133 183.506 170.102C183.262 169.046 183.181 167.99 183.262 166.934C183.262 166.528 183.831 165.959 184.237 165.878C184.643 165.797 185.293 166.041 185.618 166.366C187.08 168.071 187.486 174.733 186.105 176.357C182.287 181.069 178.388 185.699 174.408 190.329C173.108 191.792 171.565 193.091 170.346 194.635C167.909 197.64 165.635 200.727 163.36 203.814C162.141 205.52 161.167 205.439 160.111 203.895C161.41 201.052 162.223 198.046 164.01 195.853ZM162.141 250.361C162.06 250.604 162.06 250.848 161.979 251.173C161.492 255.397 160.761 259.621 160.436 263.845C160.111 268.476 159.38 273.187 161.573 277.655C162.629 279.929 163.279 282.366 164.01 284.803C164.172 285.453 163.847 286.266 163.766 286.997C162.954 286.753 162.141 286.591 161.492 286.184C161.004 285.859 160.761 285.047 160.436 284.56C158.242 281.229 157.917 277.33 157.105 273.675C155.968 268.313 156.861 262.789 157.592 257.428C158.405 251.742 160.029 246.218 161.573 240.694C162.466 237.445 163.522 234.276 164.903 231.271C167.34 225.828 170.102 220.629 173.514 215.674C176.439 211.369 179.119 206.901 183.018 203.489C188.136 199.102 193.66 195.203 199.752 192.198C201.702 191.223 203.652 190.329 205.276 189.03C207.957 186.999 210.8 186.105 214.293 186.186C214.293 186.918 214.374 187.324 214.293 187.405C213.806 187.892 213.318 188.38 212.75 188.623C206.82 190.898 201.865 194.797 196.503 198.046C190.898 201.539 185.699 205.601 181.313 210.719C176.926 215.837 174.164 221.848 170.752 227.534C166.447 234.683 164.903 242.725 162.141 250.361ZM179.607 293.089C178.226 289.677 178.226 289.677 181.231 288.134C181.313 290.002 181.962 291.952 179.607 293.089ZM188.461 269.694C187.405 272.943 185.943 276.03 184.562 279.198C184.399 279.605 183.425 280.011 183.018 279.848C182.531 279.686 182.206 278.955 182.044 278.386C181.962 277.899 182.206 277.33 182.369 276.843C183.831 272.618 185.212 268.313 186.836 264.089C188.461 259.865 190.411 255.803 192.279 251.66C193.497 248.898 194.635 246.055 196.259 243.456C199.103 238.988 202.189 234.683 205.276 230.296C206.657 228.346 208.038 226.397 209.663 224.61C212.831 221.198 215.999 217.786 219.411 214.699C222.985 211.45 226.722 208.282 230.702 205.439C233.302 203.57 236.307 202.352 239.232 200.971C242.237 199.59 245.162 198.29 248.574 197.803C251.742 197.315 254.666 198.128 257.672 198.534C263.196 199.265 267.988 202.027 272.05 205.682C273.837 207.307 274.974 207.226 276.924 206.332C280.904 204.464 284.641 201.702 289.596 202.92C293.496 203.895 297.476 204.383 300.482 207.226C301.05 207.794 301.456 208.607 302.188 209.744C300.969 209.744 300.238 209.988 299.75 209.744C292.683 205.845 285.535 204.951 278.63 209.582C275.218 211.856 272.537 210.475 270.344 208.526C266.445 205.114 261.815 203.327 257.022 201.864C255.072 201.215 252.798 200.727 250.767 201.052C243.537 202.271 236.795 205.195 230.865 209.419C220.954 216.486 212.506 225.097 206.089 235.576C204.383 238.257 202.514 240.856 200.808 243.618C198.859 246.786 196.991 250.036 195.285 253.285C193.985 255.722 193.335 258.484 191.873 260.84C190.167 263.602 189.436 266.688 188.461 269.694ZM210.556 273.025C207.307 278.224 203.814 283.26 201.052 288.703C198.94 292.764 196.259 296.745 195.61 301.456C195.528 301.862 194.878 302.187 194.31 302.675C193.904 301.944 193.254 301.375 193.335 300.888C193.579 298.938 193.904 296.988 194.472 295.12C195.366 292.277 196.584 289.515 198.29 286.997C200.646 283.423 202.271 279.28 204.545 275.624C207.307 271.319 210.394 267.257 213.481 263.114C214.212 262.139 215.106 260.921 217.299 261.733C216.649 263.195 216.243 264.495 215.512 265.714C213.887 268.232 212.1 270.506 210.556 273.025ZM204.383 405.11C206.739 407.141 209.175 409.009 211.45 411.04C212.425 411.852 213.156 412.989 213.887 414.046C215.43 416.401 217.055 418.513 219.898 419.488C223.31 420.707 227.047 421.6 229.809 423.631C233.708 426.555 236.795 430.455 240.207 433.948C241.912 435.735 242.4 438.009 242.075 440.365C240.613 440.852 239.557 440.609 239.313 439.309C238.744 436.06 236.307 434.354 234.033 432.567C233.627 432.242 233.058 431.998 232.814 431.592C229.321 426.555 223.879 424.606 218.436 422.575C215.837 421.6 213.643 420.382 212.1 417.782C209.419 413.396 206.414 409.334 201.215 407.466C200.646 407.222 200.402 406.166 199.834 405.272C201.54 403.81 202.921 403.81 204.383 405.11ZM212.831 528.747C213.075 529.234 213.237 529.722 213.562 530.209C215.837 534.352 217.218 538.657 216.568 543.612C215.837 549.461 214.699 554.985 210.881 559.859C207.713 564.002 204.383 567.901 200.24 571.069C199.834 571.394 198.778 571.15 198.209 570.907C198.047 570.826 197.965 569.526 198.29 569.201C200.808 566.439 203.408 563.758 205.845 560.996C207.063 559.615 208.119 558.072 208.932 556.528C209.907 554.66 210.232 552.386 211.369 550.598C212.993 547.918 213.075 545.075 212.993 542.15C212.831 538.82 212.1 535.652 210.719 532.483C208.688 528.016 209.175 526.472 212.669 523.385C214.537 521.679 216.324 519.892 218.355 518.43C223.066 515.1 226.072 510.388 228.996 505.595C230.54 503.158 232.083 500.559 232.896 497.878C234.277 493.329 234.764 488.455 236.226 483.987C237.851 479.113 237.526 474.402 235.82 469.69C238.501 468.797 239.475 469.284 239.719 472.046C240.125 476.676 240.531 481.388 238.744 485.856C238.257 487.074 237.851 488.455 237.851 489.755C237.932 493.979 236.714 498.122 235.008 501.696C231.84 508.438 227.778 514.612 221.929 519.486C218.68 522.167 215.755 525.254 212.831 528.016C212.831 528.503 212.75 528.666 212.831 528.747ZM190.817 479.276C193.66 476.27 195.934 472.858 197.722 469.122C200.077 464.085 200.321 459.211 197.722 454.256C197.315 453.444 196.991 452.55 196.584 451.656C198.047 449.951 199.346 448.163 200.971 446.864C203.814 444.427 204.626 441.259 204.464 437.928C204.058 430.617 201.215 424.362 196.341 418.919C195.528 417.945 194.554 417.295 195.366 415.67C197.397 415.102 198.94 416.076 199.996 417.701C201.783 420.463 203.57 423.306 204.951 426.312C208.932 434.922 209.419 443.208 202.433 450.763C201.54 451.738 201.215 452.631 201.783 454.012C202.433 455.718 202.839 457.586 202.921 459.374C203.245 464.491 202.596 469.284 199.265 473.589C196.259 477.489 194.147 482.119 190.654 485.449C185.455 490.567 178.876 493.979 171.971 496.416C170.508 496.903 168.803 496.985 167.178 496.903C166.609 496.903 166.122 495.929 165.228 494.954C173.108 493.248 179.282 489.511 185.13 485.449C187.405 483.825 188.867 481.307 190.817 479.276ZM180.256 408.765C186.105 414.046 187.161 419.407 182.206 424.931C181.069 426.23 180.094 427.611 179.038 428.911C181.881 437.278 182.612 445.483 179.363 453.85C178.794 455.312 177.819 456.693 177.413 458.155C176.357 462.054 174.57 465.141 170.508 466.522C169.777 466.766 169.046 467.172 168.478 467.741C166.366 469.69 163.766 470.178 161.085 470.34C160.436 470.421 159.704 469.934 159.055 469.69C159.461 468.959 159.704 467.903 160.273 467.497C161.817 466.522 163.604 465.872 165.228 464.979C168.559 463.029 171.971 461.242 173.433 457.343C173.839 456.206 174.489 455.231 174.895 454.093C176.52 449.219 178.063 444.264 177.657 438.984C177.332 435.085 176.763 431.348 174.245 427.936C177.819 424.687 181.15 421.519 182.044 415.914C180.094 413.639 177.901 410.959 175.626 408.278C176.357 406.897 177.17 406.166 178.551 407.141C179.119 407.628 179.607 408.197 180.256 408.765ZM176.195 380.415C183.668 379.521 180.256 382.689 180.256 382.689C180.256 382.689 164.741 389.269 171.565 395.362C171.565 395.362 176.845 403.485 169.696 396.58C162.548 389.757 168.721 381.309 176.195 380.415ZM64.5804 406.491C64.6617 406.085 65.3115 405.435 65.6365 405.516C67.5048 405.76 67.7485 407.059 67.6673 409.09C65.5552 408.928 64.3367 408.44 64.5804 406.491ZM60.5188 408.684C60.7625 409.334 61.3311 410.065 61.2499 410.634C61.0874 411.284 60.2751 411.852 59.7877 412.421C59.3815 411.852 58.6504 411.365 58.5692 410.796C58.3255 409.659 58.9753 408.765 60.5188 408.684ZM66.6112 416.645C65.8801 416.483 65.3115 415.67 64.2555 414.777C65.474 414.289 66.2051 413.721 66.7737 413.883C67.3423 414.045 67.7485 414.858 68.2359 415.426C67.6673 415.833 67.0174 416.726 66.6112 416.645ZM70.348 409.659C68.6421 408.359 70.1043 407.466 70.9978 406.491C72.5413 406.897 73.4348 407.791 72.6225 409.334C72.46 409.74 70.8354 409.984 70.348 409.659ZM73.9222 418.432C73.6785 418.676 72.785 418.595 72.5413 418.351C71.2415 417.132 71.7289 416.076 73.4348 414.614C74.0035 416.158 75.3032 417.132 73.9222 418.432ZM85.8635 401.861C83.5077 401.698 81.3145 403.973 82.208 406.816C79.9335 406.003 78.9587 404.216 78.3901 402.348C78.1464 401.454 78.2276 400.317 78.6338 399.505C79.2024 398.367 80.096 397.311 80.9895 396.337C84.7262 392.113 87.1632 391.869 91.956 394.631C95.3678 396.58 95.9364 403.323 91.8748 404.866C90.9812 405.191 90.1689 405.922 89.1128 406.653C90.2501 403.079 88.2193 402.104 85.8635 401.861ZM91.5498 409.253C90.0064 410.309 88.2193 412.34 88.9504 410.471C89.7627 408.522 95.6927 404.379 96.5863 400.561C97.4799 396.743 95.1241 393.818 93.1745 391.869C91.3061 389.919 87.2445 389.432 82.9391 390.082C82.9391 390.082 80.6646 393.169 78.9587 395.199C77.2528 397.311 76.1968 395.281 77.659 393.493C79.1212 391.706 79.9335 390 79.5273 389.269C79.1212 388.538 86.3509 386.345 90.4126 386.345C94.4742 386.345 97.8048 388.782 100.404 391.788C103.004 394.712 101.46 398.043 98.8608 402.429C96.3426 406.978 93.0933 408.197 91.5498 409.253ZM99.1858 427.855C99.5919 427.936 99.9169 428.505 100.242 428.83C99.7544 429.155 99.3482 429.642 98.8608 429.805C98.6171 429.886 98.211 429.155 97.6423 428.505C98.3734 428.18 98.8608 427.774 99.1858 427.855ZM99.9981 441.421C99.5107 441.34 99.0233 440.852 97.5611 439.878C98.6171 439.553 99.1045 439.147 99.5107 439.228C99.9981 439.39 100.485 439.878 100.81 440.365C100.973 440.527 100.242 441.421 99.9981 441.421ZM102.354 435.735C101.542 435.491 100.892 434.922 99.9169 434.273C100.729 433.623 101.298 432.892 101.542 432.973C102.273 433.298 102.841 434.029 103.491 434.516C103.085 434.922 102.516 435.735 102.354 435.735ZM104.466 431.186C105.197 430.536 105.603 429.886 106.091 429.886C106.578 429.886 107.309 430.536 107.39 430.942C107.472 431.429 106.903 431.998 106.578 432.485C105.928 432.16 105.359 431.754 104.466 431.186ZM109.746 439.634C109.177 439.796 107.878 439.228 107.553 438.659C106.334 436.547 108.04 435.978 109.502 435.247C111.046 437.684 111.127 439.228 109.746 439.634ZM110.721 415.833C106.822 417.376 104.872 417.051 103.491 416.97C102.029 416.889 104.547 415.508 107.228 414.533C110.64 413.314 112.183 409.171 113.158 407.222C114.133 405.191 116.163 402.023 123.312 401.211C130.542 400.398 137.853 400.561 143.458 404.135C148.982 407.709 156.618 411.771 161.41 412.096C166.122 412.34 166.853 412.583 165.797 413.396C164.741 414.208 153.774 417.295 150.769 419.407C147.763 421.519 142.564 422.737 142.564 422.737C142.564 422.737 140.615 421.438 145.407 418.513C147.357 417.376 152.475 414.289 150.444 412.421C148.413 410.634 141.427 408.197 138.584 406.816C135.741 405.435 127.211 403.891 124.124 404.135C121.037 404.379 118.519 405.435 117.138 407.222C115.676 409.09 114.62 414.37 110.721 415.833ZM127.049 424.525C125.911 424.037 124.531 423.956 122.906 423.712C127.211 421.356 126.236 418.595 124.287 416.401C122.337 414.127 118.194 414.208 116.488 417.62C115.107 414.858 115.92 412.34 117.057 410.065C117.626 409.009 118.763 408.034 119.9 407.709C121.444 407.141 123.231 406.978 124.937 406.897C132.248 406.41 134.603 408.359 136.472 415.264C137.69 420.138 132.166 426.718 127.049 424.525ZM142.402 436.385C138.909 435.247 135.253 434.354 131.76 433.216C131.192 433.054 130.867 431.998 130.054 430.861C131.435 430.861 132.085 430.698 132.654 430.861C136.228 431.754 139.802 432.648 143.377 433.785C148.819 435.491 154.262 437.278 159.623 439.147C161.573 439.796 163.766 440.365 164.66 443.452C163.441 443.452 162.466 443.696 161.735 443.452C157.999 442.152 154.343 440.609 150.606 439.228C147.844 438.253 145.164 437.278 142.402 436.385ZM155.155 476.351C152.475 478.138 152.069 477.814 148.738 472.858C151.419 471.477 151.581 471.559 155.155 476.351ZM148.819 485.287C149.956 486.587 150.038 488.049 149.307 489.674C144.108 486.181 142.889 484.962 141.833 482.119C144.758 481.794 146.707 482.85 148.819 485.287ZM131.354 481.144C135.01 482.119 139.152 486.749 139.884 491.136C138.34 492.111 137.609 490.811 137.04 489.917C134.847 486.505 132.004 484.069 127.861 483.5C128.267 481.144 129.323 480.657 131.354 481.144ZM117.463 484.15C120.388 485.856 123.231 487.805 125.911 489.917C128.267 491.867 128.267 493.654 126.318 495.929C124.368 493.979 122.581 491.867 120.469 490.08C118.438 488.374 115.432 487.805 113.97 484.393C115.351 484.312 116.732 483.662 117.463 484.15ZM89.8439 487.318C86.3509 488.861 82.8579 489.674 79.3649 489.999C78.7962 490.08 78.3088 490.08 77.7402 490.161C77.5777 490.161 77.4965 490.161 77.334 490.161C76.9279 490.161 76.5217 490.242 76.1155 490.242C75.9531 490.242 75.7906 490.242 75.5469 490.242C75.222 490.242 74.8158 490.242 74.4909 490.242C74.3284 490.242 74.0847 490.242 73.9222 490.242C73.5973 490.242 73.1911 490.242 72.8662 490.242C72.6225 490.242 72.46 490.242 72.2163 490.242C71.8914 490.242 71.4852 490.242 71.1603 490.161C70.9166 490.161 70.7541 490.161 70.5104 490.161C70.1855 490.161 69.7793 490.08 69.4544 490.08C69.2919 490.08 69.0482 490.08 68.8858 489.999C68.4796 489.999 68.0734 489.917 67.6673 489.917C67.5048 489.917 67.3423 489.917 67.1799 489.836C66.6112 489.755 66.0426 489.755 65.474 489.674C65.5552 488.942 65.6365 488.211 65.7989 487.562C65.8801 487.155 65.8801 486.83 65.9614 486.424C66.2863 483.825 66.6112 481.388 67.0174 478.788C75.0595 480.413 83.3453 480.9 89.8439 487.318ZM88.9504 497.147C88.6254 499.015 88.2193 500.803 87.8943 502.59C87.8131 503.077 87.7319 503.564 87.6506 504.052C87.6506 504.214 87.5694 504.296 87.5694 504.458C87.4882 504.945 87.4069 505.514 87.3257 506.001C87.3257 506.083 87.3257 506.164 87.3257 506.245C87.2445 506.814 87.1632 507.382 87.1632 507.951C82.8579 505.352 78.715 503.158 74.4909 501.534C74.0035 501.371 73.5161 501.127 73.1099 500.965C70.2667 499.909 67.3423 499.097 64.3367 498.609C64.4179 498.284 64.4992 497.959 64.4992 497.716C64.5804 497.147 64.5804 496.66 64.6617 496.172C64.8241 494.872 64.9866 494.06 65.474 493.654C65.6364 493.492 65.7989 493.41 66.0426 493.329C66.7737 493.085 67.8297 493.167 69.4544 493.329C73.3536 493.573 77.1716 493.735 81.0708 493.248C81.7206 493.167 82.3705 493.085 83.0203 492.923C83.6702 492.76 84.3201 492.679 84.8887 492.517C85.0512 492.517 85.2136 492.435 85.2949 492.354C86.5134 492.029 87.7319 491.623 89.1941 491.136C89.3565 493.248 89.1941 495.197 88.9504 497.147ZM59.219 450.032C59.544 447.92 65.8801 444.752 66.7737 445.645C67.6673 446.539 65.0678 451.819 64.9866 453.931C64.9866 454.337 64.9866 454.825 64.9053 455.231C65.8801 456.206 67.0174 457.099 67.6673 457.749C68.5608 458.561 68.0734 458.643 67.4236 459.374C66.7737 460.105 65.149 459.861 64.3367 458.642C63.4431 457.343 62.0622 456.287 60.8437 454.093C59.8689 452.631 59.0566 451.007 59.219 450.032ZM55.9697 503.727C56.1322 499.909 56.2134 496.172 56.3759 491.948L56.4571 489.024C56.5383 488.536 56.6196 488.13 56.6196 487.643C56.6196 487.561 56.6196 487.48 56.6196 487.399C57.0257 484.15 57.107 481.144 58.0818 478.463C59.1378 475.377 61.3311 472.696 63.1995 469.934C64.1743 468.553 65.6365 467.416 66.53 465.953C70.348 459.861 76.278 455.637 80.7458 450.113C81.152 449.544 82.0455 449.382 82.9391 448.976C83.7514 450.113 84.4013 451.007 85.3761 452.388C82.533 455.637 79.6898 458.724 76.9279 461.892C75.7906 463.192 74.897 464.735 73.5973 465.872C69.6169 469.284 66.53 473.346 64.1742 477.976C63.4432 479.438 62.7121 480.9 62.5496 482.606C62.5496 482.85 62.4684 483.175 62.5496 483.5C62.5496 483.5 62.5496 483.5 62.5496 483.581C62.5496 483.906 62.5496 484.231 62.6308 484.556C62.6308 484.718 62.6308 484.881 62.6308 485.043C62.6308 485.125 62.6308 485.206 62.6308 485.287C62.6308 485.937 62.4684 486.505 62.3059 487.237C62.2247 487.643 62.1434 488.049 62.0622 488.374C61.981 488.536 61.981 488.78 61.981 488.943C61.981 488.943 61.2499 491.379 61.1686 493.167C61.0062 497.066 60.8437 500.396 60.7625 503.646C60.6812 505.595 59.6252 506.976 58.0818 506.814C56.0509 506.733 55.8885 505.27 55.9697 503.727ZM60.2751 510.388C61.5748 510.144 62.7933 509.657 64.093 509.251C64.0118 507.951 63.8493 506.814 63.8493 505.677C63.7681 504.62 63.8493 503.564 63.8493 502.184C67.2611 501.452 70.5917 503.321 73.841 504.377C76.8466 505.352 79.6086 506.976 82.3705 508.52C83.1828 509.007 83.7514 510.063 84.4013 510.794C83.6702 511.444 82.9391 512.256 82.0456 512.663C77.0091 514.775 71.7289 515.1 66.3675 514.693C64.6616 514.612 62.8745 514.45 61.1686 514.531C55.3198 514.775 49.5523 513.881 43.9472 512.256C41.6727 511.688 40.2917 511.363 39.4794 511.2C39.3981 511.038 39.3981 510.875 39.3169 510.794C41.6727 508.926 46.3842 510.063 46.2217 509.332C45.978 508.357 44.8408 507.382 43.7847 507.057C42.0788 506.489 40.1292 506.326 38.3421 506.001C38.0172 504.783 37.5298 503.727 36.7987 502.833C39.6418 502.427 42.4038 501.94 45.2469 501.696C47.5215 501.452 49.9584 501.777 52.3142 501.777C52.4767 502.996 52.6391 503.564 52.7204 504.214C52.8828 508.682 55.8885 511.2 60.2751 510.388ZM32.1684 486.018C31.1123 486.83 29.1627 488.049 27.863 488.78C27.7006 487.318 27.5381 485.693 27.3756 483.906C29.1627 484.637 30.7062 485.368 32.1684 486.018ZM30.6249 481.144C32.8995 478.463 32.8995 478.463 35.4989 478.545C35.0928 479.763 34.6866 480.982 34.1992 482.363C32.8995 481.875 31.9247 481.55 30.6249 481.144ZM28.2692 492.517C28.2692 492.273 28.2692 492.111 28.188 491.867C30.0563 490.811 33.3869 488.861 35.0928 487.237C35.3365 487.318 35.6614 487.48 35.9051 487.562C39.5606 488.78 43.2161 489.755 46.9528 490.811C47.8464 491.055 48.7399 491.217 49.6335 491.461C53.6139 492.679 54.0201 493.573 52.3954 498.041C46.303 498.528 40.048 498.528 34.0367 500.396C32.2496 499.422 30.1375 499.015 27.9443 499.097C28.7566 496.985 28.4316 494.71 28.2692 492.517ZM37.9359 482.525C38.2609 481.956 38.5046 481.307 38.8295 480.738C39.3981 479.601 40.048 478.382 40.6166 477.164C42.3225 477.082 44.0284 477.001 45.8968 476.92C48.6587 476.757 51.5019 476.676 54.4263 476.514C54.345 477.407 54.2638 478.22 54.1826 479.032C53.9389 481.144 53.6952 483.175 53.4515 485.287C53.4515 485.612 53.3702 485.937 53.3702 486.262C53.289 486.993 53.2078 487.805 53.1265 488.536C48.4962 487.318 44.1909 486.181 39.8855 485.043C38.9107 484.8 37.9359 484.556 37.0424 484.312C37.2861 483.744 37.611 483.175 37.9359 482.525ZM24.8574 484.069C25.0199 485.856 24.8574 487.724 24.8574 489.755C23.0703 489.674 21.7705 489.836 20.7145 489.511C17.4652 488.455 13.7284 487.886 11.2102 485.856C7.14856 482.525 6.49869 477.245 5.76759 472.208C5.68636 471.559 5.84882 470.909 6.01129 470.259C6.66116 468.228 7.47349 466.197 7.87965 464.166C8.52952 461.161 10.3979 459.536 13.1598 458.724C14.2158 458.399 15.1906 457.993 16.1654 457.749C19.9834 456.774 23.9638 456.043 27.5381 457.668C32.6558 460.105 37.2048 464.491 36.7987 472.046C36.7174 473.671 36.3113 474.483 34.6054 474.808C32.6558 475.214 30.7062 475.783 28.919 476.595C25.751 477.976 24.6137 480.251 24.8574 484.069ZM15.8405 514.856C18.6837 516.074 21.2831 515.668 24.1263 514.531C27.1319 513.394 30.6249 513.312 33.9555 512.987C35.6614 512.825 36.7174 513.719 36.4737 515.424C32.4933 516.074 28.7566 515.993 25.751 517.455C23.1515 518.674 20.6333 518.43 18.0338 518.836C16.2467 518.999 15.2719 517.13 15.8405 514.856ZM20.1459 554.335C17.4652 552.467 14.2158 551.248 13.3223 547.674C14.1346 546.293 15.1094 545.968 16.2467 547.187C17.7901 548.649 19.3335 550.111 20.877 551.654C22.0955 552.873 21.5268 553.604 20.1459 554.335ZM23.5577 533.864C21.7705 533.539 19.8209 533.215 18.1963 532.321C17.059 531.671 16.2467 530.209 15.5968 528.99C15.1094 528.016 15.3531 526.878 16.8153 526.391C17.2215 526.797 17.8713 527.203 18.1963 527.691C20.0646 530.371 22.5829 530.371 25.3448 529.64C26.0759 529.397 26.8882 529.153 27.6193 528.828C31.1936 527.203 34.5241 527.447 38.1796 530.778C36.7174 531.103 35.7426 531.671 35.0928 531.346C31.681 529.965 28.919 531.671 25.9947 532.971C25.2636 533.458 24.37 534.027 23.5577 533.864ZM80.2584 550.68C79.5273 554.173 78.1464 557.503 77.4153 560.996C76.8466 563.677 76.8466 566.439 76.5217 569.201C76.4405 570.013 76.5217 570.826 76.278 571.475C74.3284 576.512 73.5161 581.711 72.785 586.991C72.0539 592.271 69.5356 596.089 63.6056 596.901C61.1686 597.226 58.7316 598.282 56.2946 599.013C55.6448 599.176 54.9949 599.338 54.345 599.338C49.471 598.851 44.5158 598.445 39.7231 597.633C37.6922 597.308 35.7426 596.17 33.8743 595.114C30.4625 593.165 28.919 590.322 28.919 586.26C28.8378 578.461 28.2692 570.744 27.863 562.946C27.7818 560.671 27.6193 558.397 27.4569 555.96C30.3 555.472 32.8995 555.229 35.2552 554.335C39.8043 552.711 44.0284 550.355 45.4094 545.075C45.5719 544.587 45.8156 544.1 46.0592 543.612C46.1405 543.531 46.2217 543.45 46.7091 543.044C47.6839 543.531 48.8212 544.181 49.8772 544.831C50.6895 545.237 51.5019 545.806 52.3954 546.049C52.8828 546.131 53.7764 545.806 54.0201 545.4C54.2638 544.993 54.1013 543.937 53.7764 543.694C51.7456 541.988 49.796 540.119 47.5214 538.82C46.303 538.17 45.4906 537.682 45.4906 536.301C45.4906 536.058 45.4094 535.733 45.3282 535.489C44.6783 533.783 42.2413 532.971 42.8099 530.696C43.2161 529.072 44.1909 527.528 45.0845 525.579C47.4402 526.229 49.8772 526.878 52.3142 527.609C53.6139 524.441 51.9893 523.06 46.303 521.842C44.4346 519.405 42.7287 517.455 41.2665 515.343C42.485 515.912 43.7847 516.399 45.0845 516.643C50.852 517.78 56.6196 518.836 62.5496 517.78C63.037 517.699 63.6056 517.537 64.1742 517.699C71.2415 518.999 77.9027 517.293 85.2136 515.587C85.2136 517.049 85.3761 518.349 85.2136 519.649C84.2388 525.822 83.1828 531.996 82.208 538.17C81.3957 542.313 81.0708 546.537 80.2584 550.68ZM93.012 554.416C90.3313 556.61 89.9252 559.534 90.0064 562.621C90.0064 564.246 90.1689 565.789 89.8439 567.414C89.7627 568.064 88.7067 568.551 88.138 569.201C87.6506 568.632 86.6758 568.145 86.6758 567.576C86.5946 563.433 86.1072 559.128 87.8131 555.148C88.9504 552.467 89.6815 552.142 93.4994 552.711C93.337 553.523 93.337 554.173 93.012 554.416ZM108.365 564.977C108.69 567.657 109.177 570.419 109.584 573.1C109.259 573.263 108.934 573.344 108.609 573.506C108.121 573.181 107.39 572.938 107.065 572.45C104.953 568.551 105.035 564.246 105.684 560.022C105.847 558.884 107.472 557.828 108.609 556.935C109.015 556.61 109.99 557.178 110.965 557.341C109.827 560.021 108.04 562.215 108.365 564.977ZM129.08 574.968C123.474 568.307 122.5 560.509 126.643 557.26C128.755 558.478 126.886 560.184 127.211 561.565C127.455 563.027 127.292 564.489 127.536 565.952C127.861 567.495 128.348 569.038 128.836 570.501C129.323 571.963 131.029 573.181 129.08 574.968ZM127.13 549.136C122.581 553.117 117.057 552.711 111.533 551.411C106.497 550.192 101.379 549.055 96.4238 547.755C92.4434 546.699 88.463 545.4 84.4013 544.344C84.4826 543.694 84.4825 543.125 84.5638 542.475C85.5386 536.058 86.7571 529.722 87.7319 523.304C88.463 518.755 88.7879 514.044 89.519 509.494C90.0064 506.489 90.8187 503.564 91.3061 500.559C91.6311 498.609 91.956 496.66 92.1997 494.71C95.6927 495.929 99.1858 497.228 102.598 498.609C107.147 500.396 111.452 502.915 115.757 505.27C116.732 505.758 117.301 507.057 117.951 508.032C120.55 511.525 123.231 514.937 124.287 519.486C124.774 521.679 126.805 523.467 128.105 525.416C128.755 526.391 129.811 527.366 129.892 528.503C130.379 533.621 132.979 537.926 135.416 543.044C135.172 543.125 134.603 543.287 134.197 543.612C131.76 545.156 129.486 547.105 127.13 549.136ZM150.2 568.632C149.388 568.389 148.413 568.389 147.763 567.982C143.133 564.571 139.234 560.428 135.984 555.716C135.497 554.985 134.847 554.091 134.766 553.279C134.685 552.386 134.847 551.005 135.416 550.517C136.553 549.624 137.203 550.842 137.772 551.817C138.665 553.442 139.396 555.148 140.615 556.528C143.377 559.697 146.463 562.54 149.307 565.627C149.875 566.276 150.281 567.17 150.769 567.901C150.525 568.145 150.363 568.389 150.2 568.632ZM177.738 578.461C177.251 578.461 176.845 577.974 176.357 577.649C171.24 574.075 166.122 570.501 161.004 567.008C159.217 565.789 157.267 564.896 155.643 563.515C152.8 560.996 150.038 558.234 147.52 555.391C146.301 554.091 145.57 552.304 144.595 550.761C144.92 550.436 145.245 550.111 145.57 549.786C146.788 550.68 148.169 551.33 149.063 552.467C154.099 558.884 160.842 563.271 167.584 567.576C171.565 570.176 175.301 573.181 179.119 576.106C179.607 576.431 179.607 577.405 179.769 578.137C179.2 578.218 178.469 578.543 177.738 578.461ZM191.223 521.517C186.836 524.848 181.881 527.853 176.195 528.503C171.565 528.99 166.934 529.072 162.304 528.99C160.273 528.909 158.161 528.016 156.13 527.366C153.856 526.635 154.181 525.335 155.399 523.629C156.374 524.116 157.186 524.848 157.999 524.929C161.41 525.254 164.903 525.335 168.315 525.497C170.021 525.579 171.808 525.091 173.433 525.416C175.87 525.904 177.901 525.091 179.932 524.116C180.906 523.629 181.719 522.817 182.775 522.654C187.405 521.923 189.517 517.618 193.01 515.262C195.528 513.637 196.666 509.819 198.29 506.976C199.509 504.783 200.402 502.427 201.621 500.234C201.946 499.665 202.758 499.015 203.489 498.934C210.8 498.284 214.781 493.573 217.624 487.562C218.923 484.8 219.33 481.713 220.223 478.788C220.873 476.758 221.929 474.808 222.254 472.777C223.716 464.248 224.041 455.718 223.879 447.107C223.879 445.645 223.797 444.752 225.991 444.427C226.397 446.295 227.128 448.163 227.128 450.113C227.128 454.987 226.803 459.861 226.478 464.735C225.91 474.402 223.148 483.5 218.761 492.354C216.486 496.903 212.912 500.315 208.282 501.534C204.383 502.59 202.596 505.189 201.54 508.195C199.265 513.719 195.691 518.105 191.223 521.517ZM146.545 648.484C144.92 646.129 143.702 643.367 143.945 640.28C144.108 637.599 145.326 636.787 148.169 637.843C146.301 639.874 146.87 641.823 147.844 644.017C149.55 647.916 152.231 650.596 156.374 651.734C157.917 652.14 159.623 652.384 159.542 654.739C153.856 655.227 149.55 652.952 146.545 648.484ZM180.744 651.246C176.601 652.059 172.783 651.246 169.128 649.378C163.36 646.454 160.517 641.58 160.354 635.162C160.273 632.888 160.517 632.725 163.116 632.969C162.791 642.961 170.184 649.378 183.1 648.484C183.343 650.678 182.206 651.003 180.744 651.246ZM201.133 639.386C197.315 638.411 193.416 637.437 189.598 636.381C183.343 634.675 179.769 630.532 178.063 624.358C177.576 622.652 177.901 621.515 180.094 620.946C180.825 622.815 181.231 624.683 182.125 626.308C184.399 630.451 187.974 632.888 192.604 634.025C195.691 634.756 198.778 635.65 201.865 636.543C202.921 636.868 203.814 637.437 205.114 638.005C203.733 639.63 202.433 639.711 201.133 639.386ZM248.086 608.761C246.299 611.523 244.431 614.854 241.75 616.235C236.876 618.672 231.352 620.784 225.747 618.347C223.473 617.372 222.01 618.103 220.467 619.647C216.811 623.14 209.907 624.358 205.276 622.327C203.408 621.515 201.621 620.703 199.752 619.972C195.285 618.266 193.741 614.529 195.772 609.899C197.722 609.899 197.478 611.442 197.884 612.661C198.371 614.123 199.021 615.829 200.159 616.641C201.865 617.859 203.977 618.591 206.007 618.997C211.044 619.89 216.08 620.378 219.979 615.666C221.848 613.392 223.716 613.473 226.234 615.098C226.966 615.585 227.859 616.154 228.671 616.072C231.921 615.666 235.333 615.585 238.338 614.448C240.531 613.635 242.319 611.442 244.025 609.574C244.674 608.843 244.756 607.38 244.837 606.324C244.918 604.537 245.73 603.725 247.274 603.238C249.061 605.918 249.467 606.731 248.086 608.761ZM257.347 515.018C256.859 518.674 257.428 522.492 256.859 526.066C255.641 533.052 251.579 538.657 247.599 544.344C245.162 547.837 242.562 551.167 239.963 554.579C242.725 558.641 244.187 562.946 243.375 567.657C241.994 575.456 240.613 583.254 234.358 589.184C232.814 590.646 231.027 591.702 229.484 593.002C226.397 595.52 223.635 598.364 220.711 601.207C218.923 600.394 218.842 599.501 219.817 598.526C222.579 595.764 225.341 592.84 228.347 590.322C231.596 587.56 234.926 584.716 236.389 580.736C237.607 577.324 239.394 573.994 239.638 570.176C239.882 565.708 240.45 561.321 237.851 557.26C236.145 554.579 236.957 551.411 239.232 549.299C240.694 547.918 242.075 546.537 243.212 544.912C245.405 541.744 247.03 538.17 249.467 535.245C252.716 531.265 253.448 526.553 254.016 521.923C254.666 516.237 254.585 510.388 253.935 504.62C253.285 498.609 251.904 493.004 249.142 487.643C248.249 485.937 247.518 484.231 246.786 482.525C248.249 482.363 249.548 482.525 249.955 483.175C252.716 487.968 255.235 492.923 256.21 498.528C257.022 503.808 258.078 509.332 257.347 515.018ZM286.753 488.13C286.428 486.83 286.022 485.774 285.941 484.718C285.697 480.169 285.86 475.62 285.129 470.99C284.154 464.654 281.229 459.455 277.98 454.337C275.543 450.6 272.294 447.27 269.613 443.696C268.719 442.558 267.826 441.096 267.826 439.796C267.826 437.766 266.932 436.222 266.12 434.597C265.795 433.866 264.983 433.054 265.064 432.485C266.12 428.424 262.383 426.637 260.921 423.875C259.134 420.625 255.803 418.27 253.285 415.426C248.899 410.228 243.212 406.653 237.12 404.135C230.377 401.373 223.391 399.017 215.999 398.205C215.268 398.124 214.618 397.636 213.318 396.987C216.649 394.631 219.655 395.118 222.335 395.849C227.047 397.149 231.677 398.855 236.389 400.398C237.038 400.642 237.688 400.804 238.338 400.967C241.669 401.942 244.756 403.404 247.436 405.678C250.767 408.684 254.829 410.715 257.59 414.452C259.621 417.214 262.221 419.488 264.577 422.006C264.658 422.088 264.739 422.25 264.82 422.331C266.282 425.418 268.394 428.099 269.288 431.592C269.938 434.191 271.319 436.71 271.481 439.553C271.563 440.365 272.294 441.177 272.862 441.827C276.193 445.726 279.605 449.544 282.935 453.525C283.666 454.418 284.154 455.637 284.641 456.693C285.453 458.48 286.428 460.267 286.997 462.217C287.809 464.735 288.784 467.334 289.028 469.934C289.434 474.889 289.271 479.844 289.353 484.8C289.271 486.181 288.703 487.237 286.753 488.13ZM310.961 439.796C310.473 438.822 310.148 437.847 309.661 436.872C305.843 428.424 302.025 419.894 297.151 412.015C295.283 408.928 293.008 406.003 290.815 403.16C287.809 399.099 283.91 395.849 279.605 393.331C275.705 391.056 271.563 389.107 267.42 387.32C265.876 386.67 264.089 386.426 262.383 386.345C256.859 386.02 251.498 386.507 246.299 388.538C245.406 388.863 244.106 388.863 243.212 388.457C240.694 387.32 238.176 386.101 235.82 384.558C232.489 382.365 228.671 382.933 225.097 382.689C223.31 382.527 221.36 382.933 219.573 383.177C218.436 383.258 217.543 382.933 217.705 381.796C217.786 381.227 218.517 380.334 219.086 380.252C224.935 379.603 230.784 377.815 236.714 380.74C238.582 381.633 240.613 382.365 242.237 383.664C243.862 384.883 245.487 385.045 247.518 384.477C250.848 383.502 254.422 382.04 257.672 382.446C262.221 383.014 267.338 381.552 271.319 385.126C276.193 385.533 279.686 388.944 283.585 391.219C290.815 395.362 295.689 402.104 299.994 408.928C303.487 414.452 307.386 420.057 308.28 426.88C308.361 427.611 309.174 428.18 309.498 428.911C311.286 432.567 313.479 436.06 314.129 440.609C311.367 440.528 311.286 440.528 310.961 439.796ZM328.507 403.241C327.938 402.835 327.045 402.592 326.801 402.023C326.233 400.723 325.908 399.261 325.501 397.88C323.714 390.894 322.171 383.827 318.434 377.409C315.185 371.804 310.392 367.824 305.681 363.762C302.431 361 298.694 359.051 294.714 357.263C291.465 355.801 288.134 355.233 285.047 355.314C279.28 355.314 273.593 356.532 267.826 357.507C265.795 357.832 263.927 359.213 261.815 359.619C258.078 360.432 254.747 361.813 251.742 364.412C251.092 364.25 250.361 364.25 249.792 363.925C248.086 362.95 246.299 361.894 244.674 360.757C239.475 357.182 233.708 357.263 228.428 361.163C227.372 361.894 226.234 362.787 224.61 361.65C225.991 357.426 229.484 355.07 233.139 354.745C239.313 354.177 245.649 354.664 250.442 360.269C251.579 359.7 252.716 359.132 253.935 358.563C258.484 356.614 262.952 354.502 267.907 353.446C272.7 352.471 277.493 351.74 282.367 351.577C287.159 351.415 291.546 351.821 295.851 353.852C296.907 354.339 298.126 354.42 299.263 354.826C300.157 355.151 301.131 355.314 301.781 355.964C305.762 359.863 310.961 362.056 314.86 366.199C318.597 370.261 322.09 374.241 323.958 379.359C325.501 383.827 326.476 388.538 327.613 393.169C328.263 395.849 328.913 398.611 329.401 401.373C329.563 401.942 328.832 402.592 328.507 403.241ZM342.398 356.126C341.667 354.826 340.854 354.095 340.936 353.446C341.504 347.678 339.555 342.642 336.305 338.255C330.619 330.538 323.796 324.039 314.697 320.465C313.398 319.977 311.529 320.14 310.555 319.246C308.036 317.134 305.031 317.378 302.269 317.459C297.151 317.54 292.115 318.109 287.078 319.571C282.61 320.871 279.036 323.633 275.218 325.826C272.456 327.37 270.669 330.457 268.476 332.975C267.095 334.518 265.795 335.493 263.683 334.112C261.896 332.975 260.109 331.594 258.078 331.025C250.361 328.832 242.887 328.507 236.389 334.356C234.764 335.818 233.058 337.28 231.271 338.824C229.484 337.686 229.646 336.143 230.621 335.006C234.439 330.7 238.826 327.126 244.837 326.395C248.817 325.907 252.554 325.908 256.616 327.126C259.784 328.101 262.627 329.482 265.551 330.944C266.445 329.644 267.176 328.507 267.988 327.451C272.375 322.008 278.224 318.84 284.56 316.322C287.809 315.022 291.059 314.047 294.552 313.804C296.257 313.641 297.963 313.56 299.75 313.479C301.7 313.479 303.65 313.56 305.681 313.641C309.742 313.804 313.398 315.51 317.053 317.053C320.14 318.434 323.308 320.059 325.989 322.09C328.832 324.202 331.188 327.045 333.706 329.482C335.331 331.025 337.443 332.325 338.418 334.193C340.611 338.417 342.235 342.966 343.941 347.434C344.916 350.115 344.429 352.633 342.398 356.126Z" fill="#334D66"/>
</g>
<defs>
<clipPath id="clip0_1625_101202">
<rect width="362.3" height="719.482" fill="white"/>
</clipPath>
</defs>
</svg>
