<svg width="267" height="427" viewBox="0 0 267 427" fill="none" xmlns="http://www.w3.org/2000/svg">
<g clip-path="url(#clip0_799_106047)">
<path d="M137.833 370.017C137.922 370.394 137.909 370.566 137.992 370.649C140.1 372.815 140.426 375.67 140.912 378.429C141.308 380.678 142.093 382.881 141.231 385.245C139.647 389.582 138.606 394.168 136.581 398.281C135.124 401.245 132.518 403.666 130.264 406.183C129.772 406.732 128.603 406.706 127.734 406.879C127.019 407.019 126.169 406.86 125.588 407.192C123.014 408.642 120.306 407.811 118.025 407.019C114.64 405.844 111.695 403.736 109.568 400.511C107.25 396.998 107.058 392.922 105.531 388.962C103.526 388.323 102.676 390.342 101.654 391.517C99.1376 394.404 96.5251 396.908 92.4371 397.259C90.3995 397.438 88.4003 398.058 86.3627 398.192C85.2129 398.269 84.0887 398.211 83.2009 396.742C81.9298 394.641 80.0774 392.865 78.3017 391.121C77.7843 390.616 76.6538 390.482 75.8489 390.578C73.9008 390.795 71.9781 391.249 70.0427 391.607C69.5892 391.69 69.1421 391.779 68.6822 391.836C63.6617 392.488 58.6348 393.088 53.6206 393.817C51.4872 394.123 49.3985 394.73 47.2779 395.152C45.2339 395.554 44.7293 397.464 45.087 399.495C45.4766 401.724 47.725 403.551 46.5433 406.087C46.4922 406.195 46.4858 406.406 46.5561 406.477C48.434 408.31 47.214 411.037 48.4595 413.049C48.5617 413.215 48.6895 413.452 48.6448 413.611C47.8655 416.345 50.0947 418.517 50.0564 421.123C50.0436 421.953 50.5674 422.777 50.5993 423.614C50.6377 424.47 50.6568 425.632 50.1586 426.124C49.6732 426.597 48.4787 426.603 47.6675 426.437C46.307 426.156 45.4063 425.358 45.1572 423.761C44.8506 421.819 44.0969 419.948 43.6753 418.012C43.2665 416.128 43.0685 414.205 42.7108 412.308C42.2062 409.67 41.625 407.045 41.1012 404.407C40.6094 401.916 40.1495 399.418 39.6385 396.755C38.3929 397.636 36.9813 398.435 35.4291 397.279C34.1836 396.352 32.9253 395.433 31.7691 394.398C30.9515 393.67 30.4086 392.609 29.5399 391.977C28.6584 391.338 27.5279 391.038 26.3845 390.533C26.2568 390.751 25.9693 391.019 25.9757 391.281C26.0332 395.752 26.1418 400.223 26.1993 404.701C26.2184 406.08 26.2312 407.486 26.0204 408.84C25.8224 410.149 24.9154 411.171 23.5293 410.801C22.2582 410.462 21.2746 409.651 21.4279 407.901C21.6003 405.934 21.3704 403.934 21.3129 401.948C21.2171 398.531 21.1021 395.12 21.0446 391.702C21.0318 391.051 21.166 390.374 21.3512 389.741C21.7856 388.272 22.0474 386.995 21.3257 385.36C20.7955 384.172 21.6706 382.428 21.5939 380.946C21.4662 378.563 22.3221 376.149 21.1979 373.754C20.853 373.019 21.4598 371.876 21.4726 370.918C21.5173 368.165 21.4917 365.418 21.4917 362.518C20.3356 361.982 18.9367 361.662 17.9914 360.832C16.369 359.407 15.0468 357.651 13.5649 356.067C12.1533 354.559 11.1185 352.943 11.5656 350.727C11.6167 350.459 11.4379 350.024 11.2143 349.833C8.76792 347.674 9.32363 344.429 8.39107 341.74C7.77787 339.977 8.18667 337.863 8.16112 335.902C8.15473 335.25 8.18667 334.599 8.26332 333.953C8.64656 330.849 5.91912 330.281 4.13702 329.118C0.930522 327.036 0.815548 326.659 1.1477 322.839C1.44791 319.377 1.301 315.877 1.25628 312.396C1.23073 310.371 0.975236 308.352 0.904974 306.328C0.892199 305.912 1.21157 305.478 1.39681 305.063C1.58204 304.654 2.04194 304.188 1.95252 303.862C1.01356 300.426 2.18885 297.028 2.09304 293.617C2.02916 291.304 1.86948 288.999 1.84393 286.686C1.82477 285.013 2.03555 283.333 2.01 281.659C1.97807 279.436 1.62037 277.201 1.74812 274.991C1.94613 271.593 2.38686 268.207 2.88508 264.835C2.94896 264.394 3.97095 263.787 4.53943 263.794C6.29598 263.826 8.08447 263.979 9.79631 264.356C12.0958 264.86 14.3378 265.244 16.65 264.496C16.9183 264.407 17.2952 264.586 17.6018 264.701C20.3611 265.71 20.7508 266.432 20.3995 269.357C20.1504 271.388 20.1951 273.464 19.8118 275.463C19.007 279.666 20.1887 283.722 20.425 287.849C20.5208 289.516 20.0546 291.215 20.0865 292.888C20.1376 295.846 20.9616 298.912 20.3931 301.716C19.6777 305.235 21.3768 308.097 21.958 311.814C23.0183 311.668 24.2319 311.508 25.4392 311.316C26.7742 311.105 28.1027 310.773 29.4441 310.646C31.3987 310.454 33.3724 310.473 35.3206 310.269C38.8464 309.905 42.3531 309.419 45.879 309.036C47.5781 308.851 49.3091 308.902 50.9954 308.665C53.512 308.308 55.9967 307.733 58.5134 307.362C59.957 307.152 61.5219 306.819 62.876 307.158C65.5971 307.848 67.8966 306.021 70.6815 306.404C73.3195 306.768 76.1491 305.625 78.9149 305.255C80.5118 305.037 82.1342 305.012 83.7502 304.948C86.8162 304.82 89.8374 304.75 92.897 303.958C95.567 303.262 98.518 303.587 101.348 303.568C102.913 303.556 104.471 303.798 106.036 303.875C110.041 304.067 112.903 306.551 115.579 309.017C118.083 311.323 120.108 314.159 122.267 316.822C122.739 317.41 123.02 318.259 123.122 319.02C123.678 323.088 125.601 322.903 128.558 322.68C131.496 322.456 134.428 322.092 137.347 321.702C140.298 321.306 143.243 320.872 146.168 320.335C148.513 319.901 150.978 321.083 152.243 323.216C152.977 324.455 154.114 325.445 154.874 326.672C156.261 328.914 157.736 331.149 158.726 333.57C159.844 336.304 160.47 339.236 161.3 342.085C161.371 342.334 161.364 342.615 161.332 342.877C160.757 347.846 160.176 352.816 159.582 357.785C159.544 358.104 159.473 358.52 159.256 358.705C156.74 360.813 156.203 364.057 154.593 366.676C154.21 367.302 153.412 367.979 152.728 368.075C148.653 368.624 144.559 368.995 140.477 369.455C139.628 369.595 138.791 369.825 137.833 370.017ZM65.4438 356.68C67.7177 356.935 69.1485 356.118 69.6276 353.94C70.0875 351.838 70.6112 349.756 71.0009 347.642C71.218 346.473 71.6715 345.719 72.9554 345.943C74.0349 346.128 74.4692 346.696 74.3032 347.929C73.971 350.363 73.8497 352.822 73.6453 355.224C75.2805 354.828 76.9348 352.573 77.3947 350.874C78.1868 347.961 77.829 345.08 77.7524 342.168C77.7396 341.599 78.3145 340.679 78.8063 340.526C79.2471 340.386 80.3585 340.98 80.4671 341.42C80.9908 343.586 81.5465 345.802 81.5593 348.006C81.5721 350.088 80.9206 352.177 80.5565 354.265C81.2783 353.735 81.7318 353.001 82.0575 352.215C83.2137 349.469 84.242 346.716 84.1079 343.624C84.0824 343.081 85.2193 342.034 85.8581 342.008C87.0589 341.95 88.6366 342.672 88.1384 344.084C87.3016 346.441 88.3811 349.143 86.6629 351.283C86.5479 351.429 86.7715 351.851 86.9375 352.586C87.6785 351.634 88.247 351.014 88.6877 350.318C90.4251 347.578 91.5812 344.588 92.418 341.452C92.7374 340.264 93.7721 339.779 94.7558 340.398C95.3434 340.769 95.8097 341.836 95.7906 342.576C95.6884 345.885 94.4747 348.823 92.4052 351.423C92.0986 351.806 92.0858 352.432 91.9389 352.943C92.1497 353.09 92.3541 353.237 92.5649 353.384C93.6572 352.234 95.1326 351.257 95.7522 349.89C96.8381 347.476 97.381 344.818 98.1922 342.276C98.4158 341.586 98.6905 340.877 99.0865 340.277C99.7444 339.281 101.45 339.402 101.622 340.52C102.006 343.075 102.376 345.687 100.977 348.134C100.249 349.405 99.6422 350.74 98.9779 352.049C99.1567 352.17 99.342 352.292 99.5208 352.413C100.862 351.059 102.465 349.96 103.091 347.942C103.366 347.06 103.807 346.236 104.107 345.368C104.439 344.41 104.72 343.439 104.982 342.461C105.295 341.267 105.416 340.002 105.883 338.884C106.394 337.658 107.607 337.837 108.093 338.718C108.93 340.239 109.69 341.925 108.84 343.777C107.537 346.62 106.253 349.469 104.829 352.592C106.094 352.158 107.78 352.094 108.38 351.257C109.549 349.622 110.341 347.616 110.865 345.649C111.465 343.4 111.587 341.031 111.951 338.725C112.04 338.137 112.079 337.371 112.455 337.045C113.056 336.521 113.893 336.138 114.672 336.029C115.017 335.978 115.834 336.738 115.834 337.122C115.822 338.98 115.662 340.845 115.426 342.691C115.24 344.135 114.863 345.553 114.576 346.984C114.755 347.048 114.934 347.105 115.113 347.169C116.326 345.432 117.706 343.784 118.715 341.931C121.366 337.064 121.679 331.705 120.191 326.608C118.932 322.296 118.53 317.25 114.008 314.478C113.803 314.357 113.688 314.063 113.573 313.827C111.9 310.192 108.08 307.976 104.222 308.397C103.762 308.448 103.283 308.487 102.823 308.416C99.227 307.873 95.6309 307.765 92.0731 308.614C87.9404 309.604 83.6736 309.394 79.4834 309.924C75.8553 310.384 72.1953 310.805 68.5481 311.31C64.7667 311.84 60.9598 312.147 57.1529 312.485C51.5255 312.99 45.8918 313.456 40.2645 313.903C38.1055 314.076 35.9274 314.088 33.7684 314.274C32.3312 314.395 30.9132 314.765 29.476 314.906C27.8856 315.059 26.2759 315.072 24.6791 315.149C25.3945 316.152 26.3143 316.56 26.9466 317.237C28.6712 319.09 30.102 321.249 31.9672 322.929C35.295 325.918 37.3007 329.591 38.0161 333.89C38.4376 336.413 38.2077 339.044 38.2843 341.625C38.361 344.263 38.8081 346.952 38.4568 349.532C37.9714 353.116 36.8919 356.622 36.036 360.276C37.0963 361.145 38.1247 361.273 38.5973 360.219C39.5299 358.149 40.2836 355.996 40.9735 353.831C41.4334 352.388 41.5739 350.848 42.0018 349.392C42.3595 348.185 43.3688 347.795 44.3524 348.53C45.4127 349.328 46.2048 350.369 45.7129 351.972C45.0039 354.291 44.4802 356.674 43.7456 359.535C44.8634 359.165 45.9429 359.152 46.2878 358.635C47.3801 357.018 48.4404 355.3 49.0408 353.467C49.6029 351.742 49.456 349.801 49.8584 348.006C49.9925 347.399 50.8548 346.575 51.4105 346.556C51.9279 346.537 52.8413 347.393 52.9499 347.974C53.2246 349.526 53.397 351.174 53.1671 352.713C52.9371 354.221 52.1259 355.632 51.6341 357.108C51.4233 357.734 51.3658 358.411 51.2381 359.069C51.9854 358.781 53.2246 358.673 53.397 358.187C54.2849 355.684 56.7696 353.799 56.2331 350.727C56.1117 350.011 56.38 348.996 56.859 348.466C57.3956 347.865 58.3473 347.444 59.1585 347.38C59.5737 347.348 60.5191 348.351 60.4424 348.747C59.9953 351.193 59.414 353.633 58.6795 356.009C58.4176 356.859 57.6064 357.529 56.9293 358.443C58.4367 358.124 59.6951 357.862 60.9662 357.593C61.2919 356.705 61.6624 355.792 61.969 354.853C62.5119 353.167 63.0996 351.487 63.5084 349.762C63.9044 348.082 63.9619 346.313 64.441 344.665C64.5879 344.161 65.6929 343.567 66.2614 343.656C66.8107 343.739 67.6411 344.652 67.6347 345.202C67.6219 347.175 67.4494 349.175 67.0662 351.11C66.7149 352.969 66.0123 354.783 65.4438 356.68ZM137.456 365.233C137.462 365.431 137.469 365.629 137.475 365.827C138.133 365.565 138.957 365.456 139.423 364.996C140.286 364.14 140.777 362.85 141.723 362.141C143.933 360.48 144.814 358.155 145.479 355.671C145.817 354.419 146.628 354.048 147.752 354.495C149.33 355.128 149.809 357.996 148.768 359.363C147.65 360.832 146.711 362.441 145.721 363.936C147.203 364.115 148.404 364.3 149.605 364.37C149.924 364.39 150.378 364.147 150.569 363.879C151.406 362.716 152.326 361.573 152.933 360.282C154.012 357.996 154.919 355.626 155.813 353.263C156.107 352.496 156.229 351.634 156.273 350.81C156.382 348.785 156.529 346.741 156.433 344.723C156.248 340.756 155.967 336.802 153.654 333.327C152.371 331.398 151.406 329.214 149.924 327.464C149.024 326.397 147.484 325.49 146.117 325.298C144.137 325.024 142.061 325.445 140.024 325.605C135.124 325.995 130.219 326.41 125.46 326.806C125.626 328.032 125.882 328.818 125.799 329.572C125.518 332.095 125.269 334.643 124.713 337.115C124.259 339.146 123.589 341.184 122.65 343.036C120.702 346.888 118.766 350.65 118.817 355.179C118.836 357.076 118.083 359.011 117.508 360.877C117.131 362.116 116.454 363.265 115.917 364.453C116.083 364.6 116.256 364.747 116.422 364.894C116.927 364.364 117.604 363.911 117.904 363.285C118.798 361.387 119.59 359.446 120.312 357.478C120.702 356.424 121.225 355.39 122.362 356.028C122.963 356.367 123.269 357.644 123.276 358.507C123.282 359.663 122.873 360.825 122.643 361.988C122.873 362.045 123.11 362.103 123.34 362.16C124.253 359.395 125.128 356.61 126.099 353.863C126.463 352.822 126.878 351.736 127.543 350.88C128.418 349.762 129.772 350.165 129.912 351.608C130.04 352.879 129.887 354.234 129.587 355.492C129.012 357.894 128.245 360.244 127.555 362.62C129.797 360.474 131.937 358.405 132.173 355.077C132.225 354.297 133.323 353.141 134.109 352.975C135.45 352.694 135.399 354.016 135.578 355.032C136.127 358.168 134.69 360.512 132.806 362.754C132.154 363.527 131.643 364.415 131.068 365.246C131.209 365.399 131.343 365.552 131.484 365.705C131.944 365.488 132.557 365.386 132.844 365.028C135.22 362.045 137.041 358.781 138.101 355.064C138.331 354.259 139.596 353.754 140.381 353.109C140.867 354.029 141.889 355.058 141.729 355.843C141.333 357.811 140.49 359.714 139.647 361.566C139.078 362.857 138.203 364.013 137.456 365.233ZM12.3513 333.417C12.4471 333.775 12.5621 334.024 12.5812 334.286C12.8367 337.281 12.7665 340.347 13.418 343.26C13.9354 345.579 15.3215 347.706 16.3371 349.916C16.5287 350.324 17.0333 350.733 16.9886 351.091C16.6373 353.882 19.1348 354.943 20.3803 356.737C20.8977 357.491 21.8494 357.996 22.6862 358.462C23.5804 358.96 24.5385 359.452 25.5286 359.637C27.1446 359.944 29.112 360.621 30.3575 359.995C31.6606 359.344 32.7081 357.44 33.0977 355.894C33.6662 353.646 33.6534 351.225 33.6918 348.868C33.7301 346.747 33.0211 344.505 33.481 342.513C34.7393 337.07 32.8806 332.325 30.8877 327.534C30.6641 327.004 30.3384 326.493 29.9615 326.065C27.8472 323.631 25.7074 321.217 23.5613 318.802C23.3888 318.604 23.1078 318.496 22.9545 318.394C23.0758 319.639 22.9289 320.904 23.3505 321.939C24.3469 324.379 24.0275 326.742 23.1205 328.997C22.7373 329.955 21.6834 330.983 20.7125 331.309C18.0489 332.19 15.264 332.708 12.3513 333.417ZM84.9958 358.698C84.8872 358.443 84.7786 358.194 84.67 357.938C83.335 358.277 82.0064 358.628 80.6715 358.947C80.0902 359.088 79.5026 359.209 78.9085 359.254C76.8518 359.42 74.7758 359.433 72.7319 359.727C71.1925 359.944 69.6914 360.468 68.184 360.896C65.7823 361.573 63.419 362.499 60.9726 362.908C58.0663 363.393 55.077 363.419 52.1323 363.687C49.8392 363.891 47.3354 363.004 45.3489 364.958C45.1636 365.143 44.7101 365.118 44.3907 365.099C42.5001 364.958 40.6158 364.786 38.5398 364.607C39.1211 368.637 39.6193 372.099 40.1239 375.555C40.1495 375.746 40.2581 375.932 40.3219 376.123C41.2801 379.145 42.0593 379.969 45.0486 379.266C47.6611 378.646 50.4588 379.873 52.918 378.231C53.2374 378.02 53.9208 378.416 54.4446 378.448C55.6774 378.519 56.9357 378.697 58.1493 378.551C59.9314 378.327 61.6752 377.771 63.4573 377.509C66.6382 377.043 69.832 376.692 72.6744 376.341C73.3514 373.236 73.856 370.611 74.5331 368.037C74.7184 367.334 75.4146 366.766 75.8937 366.146C76.3599 365.546 76.7815 364.875 77.3436 364.377C79.1449 362.786 80.9717 361.228 82.856 359.74C83.4628 359.254 84.274 359.037 84.9958 358.698ZM16.0752 269.178C12.8559 268.936 9.84741 268.706 6.57064 268.456C6.57064 270.462 6.58342 272.238 6.57064 274.007C6.48761 282.349 6.39818 290.691 6.30876 299.033C6.27682 302.023 6.62813 305.088 6.07881 307.982C5.67001 310.135 5.83609 310.748 8.02698 310.69C8.60824 310.678 9.59829 311.399 9.69411 311.923C9.78992 312.434 9.13201 313.36 8.56992 313.68C6.69839 314.727 5.59336 316.707 5.82331 318.457C6.90279 318.023 8.05253 317.416 9.27253 317.148C9.62384 317.071 10.6586 318.144 10.5756 318.349C10.0518 319.582 9.38751 320.789 8.5763 321.849C8.03337 322.558 7.01777 322.903 6.48122 323.612C6.12352 324.091 6.23849 324.922 6.14268 325.599C6.90918 325.56 7.97588 325.822 8.39107 325.42C9.53442 324.315 10.3456 322.878 11.4123 321.683C11.9553 321.076 12.7026 320.501 13.4627 320.297C13.8587 320.188 14.8999 320.891 14.919 321.268C14.9829 322.335 14.9638 323.599 14.4336 324.455C13.7118 325.631 12.4918 326.499 11.4443 327.54C13.8779 329.195 14.127 326.844 14.6188 325.88C16.3115 322.558 16.8608 322.226 19.9779 323.785C19.8949 323.254 19.8693 322.801 19.7543 322.373C18.9815 319.377 17.9084 316.42 17.4868 313.379C17.0588 310.313 15.462 307.452 15.973 304.233C16.0496 303.741 15.7877 303.204 15.7302 302.68C15.43 299.972 15.1426 297.264 14.8552 294.556C14.8488 294.492 14.8616 294.421 14.8807 294.358C15.3151 292.499 15.775 290.646 16.1518 288.781C16.2349 288.373 16.0305 287.9 15.9602 287.459C15.462 284.368 14.951 281.276 14.4847 278.178C14.4208 277.737 14.5486 277.258 14.6316 276.805C15.1234 274.224 15.6089 271.657 16.0752 269.178ZM43.0238 383.999C42.9216 384.248 42.8578 384.427 42.7811 384.599C41.6058 387.199 44.7165 389.052 43.6753 391.645C44.2566 391.645 44.5249 391.69 44.774 391.638C48.319 390.929 51.8513 390.125 55.4155 389.518C57.2678 389.205 59.1905 389.333 61.0556 389.071C63.5339 388.726 65.9803 388.17 68.4523 387.742C70.3302 387.416 72.2273 387.154 74.1116 386.854C76.3408 386.497 78.5636 385.928 80.8056 385.8C85.8198 385.526 90.8531 385.321 95.8736 385.385C98.403 385.417 100.817 383.775 103.487 385.117C104.196 385.475 105.857 385.334 105.94 383.405C106.049 380.805 106.509 378.225 106.828 375.548C104.931 375.849 102.766 376.2 100.594 376.519C100.211 376.577 99.7891 376.59 99.425 376.475C98.0198 376.04 96.7104 376.091 95.4265 376.903C95.056 377.139 94.545 377.19 94.0851 377.235C91.2427 377.535 88.3747 377.72 85.5515 378.135C83.763 378.404 82.1278 379.483 80.1732 378.864C79.6048 378.685 78.8574 378.947 78.2187 379.1C75.389 379.796 72.5977 380.78 69.7298 381.201C65.4374 381.834 61.0875 382.057 56.7632 382.498C52.177 382.99 47.6036 383.507 43.0238 383.999ZM25.503 365.897C25.8799 367.858 26.2248 369.589 26.5442 371.32C26.6017 371.633 26.672 372.074 26.5123 372.272C25.4903 373.511 25.8799 374.782 26.129 376.174C26.4612 378.02 26.442 379.93 26.5698 381.687C28.1858 381.559 29.8082 381.502 31.4051 381.284C32.97 381.067 34.5157 380.684 36.4895 380.288C35.5761 375.172 34.6946 370.24 33.8259 365.405C30.9452 365.578 28.4668 365.725 25.503 365.897ZM103.768 356.961C104.35 357.766 105.276 358.449 105.238 359.082C105.078 362.026 107.952 363.042 108.942 365.233C109.147 365.68 110.245 366.082 110.756 365.923C111.28 365.763 111.683 364.933 111.951 364.313C112.334 363.419 112.519 362.441 112.845 361.522C113.567 359.478 114.327 357.446 115.221 354.987C111.325 355.658 107.773 356.271 103.768 356.961ZM132.538 394.871C132.704 394.896 132.87 394.922 133.042 394.947C133.975 390.438 137.711 386.803 136.875 381.035C134.684 382.243 132.774 383.188 130.979 384.312C129.855 385.015 128.213 385.864 128.054 386.848C127.888 387.883 129.21 389.16 129.893 390.329C130.768 391.849 131.65 393.363 132.538 394.871ZM114.001 372.355C117.61 375.491 120.708 378.18 123.736 380.812C124.432 377.663 125.135 374.482 125.888 371.09C121.896 371.512 118.115 371.914 114.001 372.355ZM125.262 392.003C124.138 395.931 123.174 399.329 122.203 402.727C122.343 402.887 122.477 403.053 122.618 403.213C124.477 402.516 126.501 402.082 128.124 401.028C129.076 400.415 130.034 398.69 129.836 397.694C129.58 396.372 128.232 395.241 127.281 394.085C126.636 393.299 125.863 392.616 125.262 392.003ZM127.99 381.578C128.711 381.265 129.152 381.125 129.542 380.895C131.33 379.847 133.157 378.851 134.837 377.65C135.303 377.318 135.719 376.008 135.476 375.721C134.013 373.971 133.253 371.39 130.059 371.013C129.401 374.392 128.731 377.79 127.99 381.578ZM89.7991 373.287C89.7991 369.333 89.7991 365.571 89.7991 361.643C87.2314 362.831 85.066 363.84 82.626 364.971C84.8552 365.98 85.775 367.347 86.3882 369.25C86.8928 370.809 87.5252 372.661 89.7991 373.287ZM28.5754 386.126C29.2397 386.752 29.6166 387.436 30.0956 387.512C33.0658 387.978 34.0814 390.54 35.7805 392.43C36.3106 393.025 37.5689 392.973 38.4887 393.216C38.642 392.565 38.9806 391.894 38.9167 391.262C38.757 389.665 38.4376 388.081 38.1374 386.497C38.0288 385.941 37.7925 385.404 37.7159 385.168C34.6307 385.487 31.8011 385.788 28.5754 386.126ZM119.507 391.498C118.875 391.798 118.019 392.162 117.195 392.59C116.556 392.916 115.994 393.395 115.336 393.67C112.698 394.756 112.392 396.129 114.308 398.262C114.697 398.697 114.825 399.431 115.266 399.744C115.911 400.204 116.741 400.415 117.489 400.728C118.159 399.118 119.022 397.56 119.437 395.886C119.763 394.634 119.507 393.242 119.507 391.498ZM93.7593 362.837C93.7593 366.261 93.7593 369.512 93.7593 373.038C96.0013 371.984 96.9339 370.157 97.9942 368.414C99.2206 366.395 98.7863 364.677 96.6018 363.661C95.7267 363.253 94.7239 363.106 93.7593 362.837ZM111.414 378.001C110.954 380.128 110.507 382.166 109.971 384.651C113.196 384.344 115.937 384.082 119.118 383.782C117.808 382.639 116.499 381.936 115.879 380.844C114.883 379.087 113.471 378.41 111.414 378.001ZM84.0313 374.15C83.2839 372.425 82.7027 370.879 81.949 369.423C81.2208 368.024 80.3393 368.056 79.5089 369.385C79.0299 370.157 78.4486 370.898 78.1293 371.735C77.8738 372.419 77.6949 373.332 77.9568 373.939C78.1548 374.411 79.0938 374.859 79.6878 374.833C81.0483 374.782 82.3961 374.431 84.0313 374.15ZM97.1894 389.435C95.6373 389.563 94.4747 389.773 93.325 389.735C89.7672 389.607 89.3137 390.086 89.946 393.657C92.303 392.399 95.6053 393.018 97.1894 389.435ZM101.348 361.656C100.786 360.104 100.294 358.743 99.7827 357.338C98.3902 357.338 96.7998 357.338 94.7813 357.338C97.2916 358.986 99.3037 360.314 101.348 361.656ZM108.712 370.668C107.058 369.174 105.646 367.903 104.235 366.632C104.133 366.664 104.03 366.695 103.928 366.727C104.503 368.222 105.078 369.717 105.704 371.326C106.63 371.122 107.505 370.937 108.712 370.668ZM114.876 388.579C113.567 388.509 112.634 388.355 111.727 388.458C111.363 388.496 110.871 389.058 110.782 389.454C110.686 389.863 110.884 390.533 111.197 390.776C111.472 390.987 112.194 390.929 112.519 390.706C113.267 390.182 113.893 389.486 114.876 388.579ZM85.3088 393.331C85.8006 391.9 86.0816 391.076 86.3691 390.246C86.2477 390.105 86.1263 389.965 86.005 389.831C85.2385 390.182 84.472 390.527 83.7119 390.878C84.1526 391.549 84.5934 392.226 85.3088 393.331Z" fill="#334D66"/>
<path d="M65.4436 356.68C66.012 354.783 66.7147 352.969 67.0851 351.084C67.4684 349.149 67.6408 347.15 67.6536 345.176C67.66 344.633 66.8296 343.72 66.2803 343.63C65.7118 343.541 64.6068 344.135 64.4599 344.64C63.9808 346.287 63.9233 348.057 63.5273 349.737C63.1249 351.461 62.5309 353.141 61.9879 354.828C61.6877 355.766 61.3173 356.68 60.9851 357.568C59.7204 357.836 58.4557 358.098 56.9482 358.417C57.6253 357.504 58.4365 356.827 58.6984 355.984C59.433 353.608 60.0142 351.168 60.4613 348.721C60.5316 348.325 59.5926 347.322 59.1775 347.354C58.3726 347.418 57.4145 347.846 56.878 348.44C56.3989 348.97 56.1306 349.986 56.252 350.701C56.7822 353.774 54.2974 355.658 53.416 358.162C53.2435 358.647 52.0044 358.762 51.257 359.043C51.3848 358.392 51.4423 357.708 51.653 357.082C52.1513 355.607 52.9561 354.195 53.186 352.688C53.4224 351.148 53.2499 349.5 52.9689 347.948C52.8667 347.367 51.9533 346.511 51.4295 346.53C50.8738 346.549 50.0115 347.373 49.8773 347.98C49.4749 349.775 49.6218 351.717 49.0597 353.441C48.4593 355.275 47.3926 356.993 46.3067 358.609C45.9618 359.12 44.8823 359.139 43.7645 359.51C44.4991 356.648 45.0165 354.272 45.7319 351.947C46.2237 350.344 45.4317 349.302 44.3713 348.504C43.3877 347.763 42.3785 348.159 42.0208 349.366C41.5928 350.823 41.4523 352.362 40.9924 353.806C40.3025 355.971 39.5488 358.123 38.6163 360.193C38.1436 361.247 37.1152 361.119 36.0549 360.25C36.9108 356.59 37.9903 353.09 38.4757 349.507C38.827 346.926 38.3799 344.243 38.3033 341.599C38.2266 339.019 38.4566 336.387 38.035 333.864C37.3196 329.565 35.3139 325.892 31.9861 322.903C30.1209 321.223 28.6902 319.064 26.9655 317.212C26.3332 316.535 25.4134 316.126 24.698 315.123C26.2949 315.046 27.9045 315.034 29.495 314.88C30.9322 314.74 32.3502 314.376 33.7873 314.248C35.9463 314.063 38.118 314.05 40.2834 313.878C45.9171 313.43 51.5445 312.964 57.1718 312.46C60.9723 312.121 64.7856 311.814 68.567 311.284C72.2142 310.773 75.8743 310.358 79.5023 309.898C83.6925 309.368 87.9593 309.579 92.092 308.589C95.6498 307.739 99.2459 307.848 102.842 308.391C103.296 308.461 103.775 308.423 104.241 308.372C108.099 307.95 111.919 310.166 113.592 313.801C113.701 314.037 113.822 314.331 114.027 314.452C118.549 317.225 118.951 322.271 120.21 326.582C121.698 331.679 121.385 337.038 118.734 341.906C117.725 343.758 116.345 345.406 115.132 347.143C114.953 347.08 114.774 347.022 114.595 346.958C114.882 345.527 115.259 344.109 115.445 342.666C115.681 340.82 115.834 338.955 115.853 337.096C115.86 336.713 115.042 335.953 114.691 336.004C113.905 336.119 113.068 336.502 112.474 337.019C112.098 337.345 112.066 338.112 111.97 338.699C111.606 341.011 111.484 343.381 110.884 345.623C110.36 347.591 109.568 349.596 108.399 351.231C107.799 352.068 106.112 352.132 104.848 352.566C106.266 349.443 107.55 346.594 108.859 343.752C109.709 341.899 108.948 340.213 108.112 338.693C107.626 337.811 106.413 337.632 105.902 338.859C105.435 339.983 105.314 341.248 105.001 342.436C104.746 343.413 104.458 344.39 104.126 345.342C103.826 346.211 103.385 347.041 103.11 347.916C102.484 349.935 100.881 351.033 99.5398 352.388C99.3609 352.266 99.1757 352.145 98.9968 352.023C99.6611 350.714 100.268 349.379 100.996 348.108C102.395 345.662 102.024 343.049 101.641 340.494C101.475 339.376 99.7633 339.255 99.1054 340.251C98.7094 340.852 98.4347 341.554 98.2112 342.251C97.4 344.793 96.857 347.45 95.7712 349.864C95.158 351.231 93.6761 352.209 92.5838 353.358C92.373 353.211 92.1686 353.065 91.9579 352.918C92.1048 352.407 92.1176 351.781 92.4241 351.397C94.4873 348.798 95.7009 345.86 95.8095 342.551C95.8351 341.816 95.3624 340.743 94.7747 340.373C93.7911 339.753 92.7563 340.239 92.4369 341.427C91.6002 344.563 90.444 347.552 88.7066 350.292C88.2659 350.989 87.6974 351.608 86.9565 352.56C86.7904 351.825 86.5605 351.404 86.6818 351.257C88.4001 349.117 87.327 346.415 88.1573 344.058C88.6555 342.653 87.0779 341.925 85.877 341.982C85.2383 342.014 84.1077 343.055 84.1268 343.598C84.261 346.69 83.2326 349.443 82.0765 352.189C81.7443 352.975 81.2908 353.71 80.5754 354.24C80.9331 352.151 81.5846 350.062 81.5782 347.98C81.5655 345.777 81.0098 343.56 80.486 341.395C80.3774 340.954 79.266 340.36 78.8253 340.5C78.3334 340.66 77.7522 341.574 77.7713 342.142C77.848 345.055 78.2057 347.929 77.4136 350.848C76.9537 352.541 75.2994 354.802 73.6642 355.198C73.8686 352.796 73.9836 350.337 74.3221 347.904C74.4882 346.671 74.0538 346.102 72.9744 345.917C71.6905 345.7 71.237 346.454 71.0198 347.616C70.6302 349.73 70.1064 351.813 69.6465 353.914C69.1483 356.118 67.7175 356.935 65.4436 356.68Z" fill="#FBF0DF"/>
<path d="M137.456 365.233C138.203 364.019 139.072 362.863 139.66 361.573C140.496 359.72 141.346 357.817 141.742 355.85C141.902 355.058 140.88 354.036 140.394 353.116C139.608 353.761 138.344 354.266 138.114 355.07C137.053 358.788 135.227 362.052 132.857 365.035C132.569 365.392 131.956 365.495 131.496 365.712C131.356 365.559 131.222 365.405 131.081 365.252C131.656 364.415 132.167 363.534 132.819 362.761C134.703 360.519 136.14 358.175 135.591 355.038C135.412 354.023 135.463 352.701 134.122 352.982C133.336 353.148 132.244 354.31 132.186 355.083C131.956 358.411 129.81 360.481 127.568 362.627C128.258 360.251 129.024 357.9 129.599 355.498C129.9 354.246 130.053 352.892 129.925 351.615C129.785 350.171 128.424 349.769 127.555 350.887C126.891 351.743 126.476 352.828 126.112 353.87C125.147 356.623 124.266 359.401 123.352 362.167C123.122 362.109 122.886 362.052 122.656 361.994C122.886 360.832 123.295 359.676 123.289 358.513C123.282 357.657 122.976 356.373 122.375 356.035C121.232 355.396 120.708 356.431 120.325 357.485C119.603 359.452 118.805 361.394 117.917 363.291C117.623 363.923 116.939 364.37 116.435 364.901C116.269 364.754 116.096 364.607 115.93 364.46C116.473 363.272 117.144 362.122 117.521 360.883C118.089 359.018 118.849 357.082 118.83 355.185C118.779 350.65 120.714 346.894 122.663 343.043C123.595 341.19 124.266 339.153 124.726 337.122C125.281 334.65 125.531 332.101 125.812 329.578C125.895 328.824 125.633 328.039 125.473 326.812C130.232 326.416 135.137 326.001 140.036 325.611C142.068 325.452 144.15 325.03 146.13 325.305C147.491 325.49 149.036 326.403 149.937 327.47C151.419 329.227 152.377 331.405 153.667 333.334C155.986 336.809 156.261 340.769 156.446 344.729C156.542 346.754 156.395 348.792 156.286 350.816C156.241 351.64 156.12 352.503 155.826 353.269C154.932 355.632 154.019 358.002 152.945 360.289C152.339 361.573 151.419 362.716 150.582 363.885C150.39 364.153 149.931 364.396 149.618 364.377C148.417 364.307 147.216 364.121 145.734 363.943C146.724 362.441 147.663 360.838 148.781 359.369C149.822 357.996 149.343 355.134 147.765 354.502C146.647 354.055 145.83 354.419 145.491 355.677C144.827 358.168 143.946 360.487 141.735 362.148C140.79 362.857 140.298 364.147 139.436 365.003C138.97 365.463 138.152 365.565 137.488 365.833C137.469 365.629 137.462 365.431 137.456 365.233Z" fill="#FBF0DF"/>
<path d="M12.3512 333.417C15.2575 332.714 18.0488 332.19 20.7188 331.309C21.6896 330.99 22.7436 329.961 23.1268 328.997C24.0338 326.742 24.3532 324.379 23.3568 321.939C22.9352 320.904 23.0757 319.633 22.9607 318.394C23.114 318.496 23.3951 318.604 23.5676 318.802C25.7137 321.21 27.8535 323.625 29.9678 326.065C30.3446 326.499 30.6704 327.01 30.894 327.534C32.8932 332.325 34.752 337.07 33.4873 342.513C33.0274 344.505 33.73 346.741 33.6981 348.868C33.6597 351.219 33.6725 353.64 33.104 355.894C32.7144 357.446 31.6668 359.344 30.3638 359.995C29.1183 360.621 27.1445 359.944 25.5349 359.637C24.5448 359.452 23.5867 358.96 22.6925 358.462C21.8557 357.996 20.9104 357.491 20.3866 356.737C19.1411 354.943 16.6436 353.876 16.9949 351.091C17.0396 350.733 16.535 350.331 16.3434 349.916C15.3277 347.712 13.9417 345.579 13.4243 343.26C12.7728 340.354 12.843 337.288 12.5875 334.286C12.562 334.024 12.4534 333.768 12.3512 333.417Z" fill="#FBF0DF"/>
<path d="M16.0752 269.178C15.6089 271.657 15.1235 274.231 14.6508 276.798C14.5678 277.252 14.4336 277.731 14.5039 278.172C14.9702 281.27 15.4812 284.361 15.9794 287.453C16.0497 287.893 16.2541 288.366 16.171 288.775C15.7878 290.64 15.3279 292.492 14.8999 294.351C14.8872 294.415 14.868 294.485 14.8744 294.549C15.1618 297.257 15.4492 299.966 15.7495 302.674C15.8069 303.198 16.0688 303.734 15.9922 304.226C15.4748 307.445 17.0717 310.313 17.506 313.373C17.934 316.42 19.0007 319.371 19.7736 322.367C19.8821 322.801 19.9141 323.248 19.9971 323.778C16.88 322.22 16.3307 322.552 14.638 325.873C14.1462 326.838 13.8971 329.188 11.4635 327.534C12.511 326.493 13.731 325.624 14.4528 324.449C14.9766 323.593 15.0021 322.322 14.9382 321.262C14.9127 320.885 13.8779 320.182 13.4819 320.291C12.7218 320.495 11.9745 321.064 11.4315 321.677C10.3648 322.871 9.55363 324.315 8.41027 325.413C7.9887 325.816 6.92839 325.554 6.16189 325.592C6.2577 324.922 6.14273 324.085 6.50043 323.606C7.03697 322.897 8.05258 322.552 8.59551 321.843C9.4131 320.782 10.071 319.575 10.5948 318.342C10.6778 318.138 9.64305 317.065 9.29174 317.142C8.06535 317.416 6.91561 318.017 5.84252 318.451C5.61257 316.701 6.7176 314.721 8.58912 313.673C9.15761 313.354 9.81551 312.428 9.71331 311.917C9.61111 311.393 8.62745 310.665 8.04619 310.684C5.85529 310.741 5.68922 310.128 6.09802 307.976C6.64734 305.082 6.29603 302.016 6.32796 299.027C6.41739 290.685 6.50681 282.343 6.58985 274.001C6.60901 272.225 6.58985 270.449 6.58985 268.45C9.84745 268.706 12.8559 268.929 16.0752 269.178Z" fill="#FBF0DF"/>
<path d="M43.0238 383.999C47.6036 383.501 52.177 382.983 56.7568 382.517C61.0811 382.076 65.4309 381.853 69.7233 381.221C72.5913 380.799 75.3826 379.822 78.2122 379.119C78.851 378.959 79.5983 378.697 80.1668 378.883C82.1213 379.502 83.7565 378.423 85.545 378.155C88.3747 377.733 91.2362 377.554 94.0787 377.254C94.5322 377.203 95.0496 377.158 95.42 376.922C96.6975 376.104 98.0133 376.059 99.4186 376.494C99.7826 376.602 100.204 376.596 100.587 376.538C102.759 376.219 104.925 375.868 106.822 375.568C106.502 378.244 106.042 380.824 105.934 383.424C105.851 385.353 104.19 385.494 103.481 385.136C100.811 383.788 98.3966 385.43 95.8671 385.404C90.8466 385.347 85.8197 385.545 80.7991 385.819C78.5572 385.941 76.3343 386.516 74.1051 386.873C72.2208 387.174 70.3301 387.435 68.4458 387.761C65.9803 388.189 63.5275 388.739 61.0491 389.09C59.184 389.352 57.2614 389.218 55.409 389.537C51.8448 390.144 48.3126 390.949 44.7675 391.658C44.5184 391.709 44.2501 391.664 43.6689 391.664C44.71 389.071 41.5994 387.218 42.7746 384.619C42.8577 384.427 42.9216 384.248 43.0238 383.999Z" fill="#FBF0DF"/>
<path d="M103.768 356.961C107.773 356.271 111.325 355.658 115.227 354.987C114.333 357.44 113.573 359.478 112.851 361.522C112.526 362.441 112.34 363.419 111.957 364.313C111.689 364.932 111.286 365.756 110.763 365.922C110.252 366.082 109.153 365.68 108.949 365.233C107.958 363.042 105.084 362.026 105.244 359.082C105.276 358.449 104.35 357.766 103.768 356.961Z" fill="#FBF0DF"/>
<path d="M28.5756 386.126C31.8012 385.787 34.6309 385.487 37.716 385.161C37.7927 385.404 38.0354 385.934 38.1376 386.49C38.4378 388.074 38.7572 389.658 38.9168 391.255C38.9807 391.888 38.6422 392.558 38.4889 393.21C37.5627 392.967 36.3108 393.018 35.7806 392.424C34.0879 390.533 33.0659 387.972 30.0958 387.506C29.6167 387.435 29.2399 386.752 28.5756 386.126Z" fill="#FBF0DF"/>
<path d="M111.414 378.001C113.471 378.416 114.883 379.087 115.873 380.844C116.492 381.936 117.802 382.639 119.111 383.782C115.93 384.082 113.19 384.344 109.964 384.651C110.507 382.166 110.954 380.122 111.414 378.001Z" fill="#FBF0DF"/>
</g>
<g clip-path="url(#clip1_799_106047)">
<g clip-path="url(#clip2_799_106047)">
<path d="M261.21 89.15C259.03 85.35 255.45 82.9 251.99 80.53L251.62 80.28C252.88 76.25 252.66 72.52 250.96 68.88C250.08 66.99 249.5 65.18 249.23 63.49C248.2 56.98 243.7 52.75 239.18 48.98C233.21 44 226.17 40.26 218.25 37.87C216.07 37.21 214.97 36.38 213.87 34.56C209.71 27.67 205.41 20.55 197.37 16.9C196.72 16.61 196.16 16.09 195.56 15.54C194.91 14.94 194.23 14.32 193.41 13.98L191.79 13.31C187.7 11.63 183.48 9.88998 179.15 8.79998C173.31 7.32998 167.23 7.52998 161.07 9.39998C157.8 10.4 155.29 12.53 152.86 14.6C151.85 15.46 150.81 16.34 149.72 17.15C149.62 17.02 149.52 16.88 149.42 16.75C149.02 16.22 148.65 15.73 148.38 15.18C145.25 8.73998 139.31 5.63998 134.49 3.64998C125.48 -0.0500212 115.81 -0.930021 105.75 1.02998C102.24 1.71998 97.72 2.78998 93.94 5.02998C89.23 7.79998 84.76 11.29 81 15.11L80.71 15.4C77.24 18.92 73.66 22.56 72.68 27.98C72.42 29.41 71.71 30.78 70.97 32.23C70.69 32.77 70.4 33.33 70.14 33.9C70.02 33.82 69.9 33.75 69.79 33.69C69.41 33.46 69.12 33.28 68.84 33.09C68.31 32.72 67.79 32.32 67.27 31.91C65.4 30.45 63.47 28.95 60.73 28.94C60.59 28.94 60.35 28.78 60.14 28.64C60.04 28.57 59.94 28.5 59.84 28.44C54.82 25.45 49.29 25.73 44.05 26.47C37.42 27.41 32.23 31.53 28.45 35.02C26.51 36.81 24.85 39.56 23.54 43.2C22.83 45.17 22.92 47.44 23.01 49.62C23.03 50 23.04 50.39 23.05 50.77C23.06 51.17 23.07 51.57 23.08 51.97C23.15 55.68 23.22 59.52 26.54 62.45C26.8 62.68 26.94 63.17 27.1 63.73C27.16 63.94 27.22 64.16 27.29 64.38C20.71 67.19 17.02 72.74 14.54 77.28C11.16 83.46 11.16 89.86 14.52 95.78C15.53 97.56 16.77 99.18 18.08 100.89C18.63 101.61 19.18 102.34 19.74 103.1C17.23 106.63 16.01 110.61 16.13 114.94C16.29 120.92 17.81 125.16 21.04 128.66C23.17 130.98 23.64 132.92 22.6 135.17C22.18 136.08 21.27 138.37 21.89 139.88C23.15 142.96 24.68 145.62 26.45 147.79C30.22 152.44 35.81 153.76 41.22 155.04L42.42 155.32C43.51 155.57 44.63 155.83 45.71 156.14C46.63 156.41 47.57 156.72 48.47 157.02C50.15 157.58 51.89 158.16 53.66 158.48C58.22 159.3 62.89 159.95 67.41 160.58L70.41 161C72.4 161.28 74.4 161.53 76.39 161.79C78.83 162.1 81.36 162.42 83.83 162.79C84.54 162.9 85.25 163 85.95 163.1C89.37 163.59 92.91 164.11 96.29 164.96C99.81 165.85 103.26 167.31 106.17 168.63C106.76 168.9 107.35 169.15 107.95 169.41C112.23 171.26 116.27 173 118.15 177.66C118.4 178.27 118.65 178.88 118.9 179.5C119.68 181.39 120.49 183.36 121.12 185.33C122.2 188.72 120.24 192.62 117.81 194.29C111.35 198.71 103.78 199.64 97.23 199.96C89.37 200.34 80.47 200.78 71.74 202.01C62.85 203.27 53.9 205.91 43.59 210.34C41.48 211.24 39.51 212.55 37.87 213.71C36.74 214.5 35.55 215.28 34.4 216.03C31.3 218.05 28.1 220.14 25.62 222.85C20.47 228.46 16.47 235.57 13.73 243.99C12.69 247.18 12.36 250.02 12.65 253.2L12.69 253.62L13.11 253.59C15.07 253.43 16.38 252.91 17.3 250.7C19.89 244.5 22.72 240.39 26.47 237.37C27.18 236.8 27.93 236.25 28.66 235.73C29.8 234.91 30.97 234.05 32.02 233.08C36.5 228.92 42.05 226.39 49.49 225.09C50.44 224.93 51.38 224.75 52.33 224.58C55.77 223.95 59.34 223.31 62.86 223.04C71.43 222.39 79.8 223.64 88.34 225.1C90.22 225.42 92.13 225.8 93.97 226.16C97.55 226.86 101.25 227.59 104.97 227.97C107.4 228.22 109.86 228.65 112.23 229.07C115.91 229.72 119.72 230.39 123.64 230.4C127.5 230.41 131.42 230.57 135.22 230.73C142.3 231.03 149.63 231.34 156.89 230.65C165.29 229.85 172.83 227.8 179.96 224.38C183.28 222.79 186.31 220.47 188.5 217.83C190.76 215.11 192.57 211.97 194.32 208.92C194.88 207.94 195.44 206.97 196.01 206.01C196.37 205.42 196.48 204.72 196.59 204.04C196.64 203.73 196.69 203.42 196.77 203.12C197.81 199.06 197 195.13 196.21 191.33C196.05 190.58 195.9 189.83 195.76 189.07C194.73 183.59 192.83 178.49 190.82 173.31C189.89 170.93 188.49 168.72 187.13 166.57L186.56 165.68C185.71 164.33 184.77 163.09 183.68 161.65C183.29 161.14 182.89 160.61 182.48 160.06C183.16 159.9 183.8 159.73 184.43 159.57C186.12 159.13 187.57 158.74 189.05 158.73C198.4 158.68 205.86 154.23 211.31 150.35C213.52 148.78 215.57 147.05 217.73 145.21C218.67 144.42 219.61 143.61 220.59 142.81C220.71 142.82 220.83 142.83 220.97 142.83C221.46 142.86 222.01 142.89 222.52 143.04C229.62 145.14 235.82 142.35 242.08 139.03C247.02 136.41 251.77 132.41 256.62 126.8C262.09 120.46 265.13 114.33 265.9 108.06C266.6 102.07 265.08 95.89 261.21 89.15ZM206.07 123.8L205.2 124.3L206.16 124.58C206.85 124.78 207.5 124.95 208.1 125.12C209.36 125.46 210.45 125.76 211.5 126.15C211.81 126.26 212.12 126.37 212.44 126.49C213.78 126.96 215.16 127.44 216.14 128.28C218.78 130.52 219 136.41 216.58 139.94C213.83 143.97 210.93 146.64 207.45 148.34C206.11 148.99 204.81 149.76 203.56 150.5C202.01 151.42 200.4 152.37 198.74 153.09C196.47 154.08 193.87 154.53 191.63 154.84C187.46 155.42 183.03 155.88 178.47 156.21C177.63 156.27 176.79 156.34 175.94 156.4C171.64 156.73 167.2 157.08 162.86 156.91C159.85 156.8 156.8 156.21 153.84 155.65C152.63 155.42 151.43 155.19 150.22 154.98C143.41 153.84 137.02 151.29 131.66 148.95C127.55 147.15 122.89 144.86 119.48 141.53C111.61 133.83 109.11 125.95 111.84 117.45C112.88 114.21 114.67 110.34 119.27 109.28C119.85 109.14 120.4 108.89 120.9 108.63C121.13 108.52 121.28 108.34 121.47 108.11C121.56 108 121.67 107.87 121.81 107.72L122.12 107.39L121.27 106.67C120.88 106.34 120.49 106.01 120.1 105.69C117.16 103.32 116.19 100.21 117.22 96.45C118.45 91.92 121.3 88.24 125.7 85.51C129.87 82.92 134.29 81.62 138.94 81.62C143.06 81.62 147.37 82.64 151.82 84.68C154.49 85.91 157.28 87.63 157.7 91.08C157.78 91.74 158.24 92.29 158.83 92.99C159.13 93.34 159.46 93.74 159.8 94.22L160.27 94.88L160.54 94.11C162.42 88.85 165.02 85.49 168.98 83.22C169.7 82.81 170.28 82.22 170.84 81.65C171.67 80.8 172.46 80 173.72 79.65L174.32 79.48C176.75 78.8 179.04 78.17 181.56 78.8C183.03 79.17 184.53 79.45 185.97 79.72C189.49 80.38 193.13 81.06 196.42 83.1C201.24 86.07 204.42 90 205.64 94.46C207.91 102.8 206.36 109.83 200.88 115.96C196.57 120.78 190.91 124.25 183.07 126.88C171.37 130.8 161.34 129.15 153.26 121.97C151.8 120.67 151.24 119.54 151.32 118.07C151.33 117.92 151.32 117.76 151.3 117.61C151.29 117.49 151.28 117.37 151.29 117.25C151.61 113.51 152.15 110.3 155.47 108.82C158.04 107.68 159.48 109.28 161.13 111.13C161.58 111.64 162.05 112.16 162.55 112.62L162.72 112.77L162.94 112.72C164.01 112.47 164.75 111.93 164.95 111.24C165.07 110.83 165.07 110.19 164.37 109.43C162.74 107.68 160.77 106.23 158.87 104.83L158.64 104.66C158.07 104.24 157.06 104.43 156.3 104.67C152.57 105.84 149.83 108.19 148.38 111.48C146.86 114.93 146.98 119.02 148.7 122.7C149.55 124.51 151.48 125.98 152.94 126.9C157.96 130.03 164.04 133.2 170.92 133.01C174.41 132.91 178.15 132.34 182.37 131.25C188.57 129.66 194.05 126.97 198.64 123.26C204.45 118.57 210.44 112.46 210.73 102.78C210.91 96.85 210.27 89.33 203.64 83.78C202.24 82.61 200.86 81.41 199.57 80.29C199.15 79.92 198.73 79.56 198.33 79.22L201.48 77.3C204.36 75.55 207.36 73.72 210.36 71.93C214.69 69.35 217.34 65.31 218.22 59.94C218.31 59.37 218.41 58.8 218.51 58.24C219.19 54.36 219.89 50.34 218.66 46.29C218.35 45.26 218.01 44.24 217.65 43.15C217.53 42.78 217.4 42.4 217.27 42.01C219.21 41.82 220.7 42.63 222.14 43.41C222.44 43.57 222.74 43.74 223.07 43.9C226.43 45.59 229.91 47.34 233.06 49.46C240.49 54.46 244.48 59.56 245.97 65.99C246.04 66.3 246.11 66.62 246.18 66.94C246.53 68.51 246.89 70.14 247.61 71.58C248.67 73.7 248.34 75.68 247.74 77.99C247.51 77.97 247.28 77.95 247.06 77.93C246.33 77.87 245.63 77.81 245 77.61C240.64 76.18 236.41 76.6 233.08 78.8C229.22 81.35 226.8 86.02 226.27 91.96C225.68 98.64 229.31 102.46 232.95 105.32C234.72 106.71 236.71 106.76 238.64 106.81C239.78 106.84 240.86 106.87 241.9 107.15C242.69 107.37 243.56 106.94 244.39 106.52C244.72 106.35 245.04 106.2 245.32 106.1L245.65 105.98L245.6 105.63C245.25 103.31 243.99 103.09 242.73 103.07C240.86 103.03 238.96 102.84 237.07 102.52C234.36 102.06 232.43 100.28 231 96.92C228.92 92.03 230.99 87.68 233.55 83.7C234.44 82.31 237.06 81.27 238.94 81.16C243.95 80.88 248.8 82.62 253.02 86.18C257.65 90.1 260.5 95.24 261.26 101.05C262.14 107.73 260.96 113.13 257.64 117.58C256.98 118.47 256.43 119.45 255.9 120.4C255.32 121.44 254.73 122.51 253.99 123.42C251.89 126.03 249.25 128.17 246.69 130.24C245.52 131.18 244.32 132.16 243.18 133.16C239.63 136.3 235.53 137.6 230.93 138.88C227.87 139.73 224.61 140.4 221.25 138.7C222.46 133.87 222.99 127.92 217.12 123.93C214.34 122.03 209.27 121.97 206.07 123.8ZM125.04 186.08C124 179.46 121.93 174.9 118.53 171.71C115.77 169.12 112.21 167.34 108.77 165.62L108 165.23C104.91 163.68 101.4 162.31 97.57 161.15C94.38 160.18 90.88 159.45 87.17 158.95C85.3 158.7 83.39 158.61 81.54 158.51C79.47 158.41 77.33 158.3 75.27 157.98C73.22 157.66 71.12 157.44 69.09 157.23C65.08 156.81 60.93 156.38 56.95 155.13C53.26 153.97 49.43 153.08 45.72 152.21C43.11 151.6 40.4 150.97 37.78 150.25C32.76 148.88 29.15 146.04 27.04 141.82C26.65 141.05 26.26 140.28 25.85 139.48L25.39 138.59L26.58 135.38C27.03 135.18 27.68 135.27 28.35 135.37C29.79 135.57 31.77 135.85 32.31 132.78L32.38 132.39L32 132.3C26.86 130.99 24.28 126.78 21.78 122.71C18.92 118.05 19.82 108.69 23.53 104.51C23.82 104.18 24.23 103.73 24.6 103.63L25.14 103.49C26.36 103.19 27.63 102.87 28.18 101.86C28.51 101.24 28.53 100.45 28.22 99.46C28.71 99.03 29.18 98.57 29.65 98.12C30.82 96.98 31.93 95.9 33.26 95.29C40.22 92.06 46.67 90.34 52.99 90.03C56.76 89.85 60.37 90.77 63.85 91.66C64.78 91.9 65.71 92.14 66.65 92.36C70.67 93.31 74.3 95.35 77.8 97.33C78.48 97.71 79.15 98.09 79.83 98.47C81.4 99.33 82.93 100.91 83.83 102.59C87.88 110.16 84.73 120.81 77.22 124.94C76.27 125.46 75.37 126.07 74.5 126.66C72.45 128.05 70.5 129.36 67.97 129.66C64.31 130.1 61.62 129.66 59.52 128.29C57.83 127.19 56.7 125.39 56.34 123.24C55.95 120.89 56.54 118.5 57.95 116.69C58.46 116.04 59.37 115.6 60.45 115.46C61.92 115.28 63.41 115.69 64.54 116.58C65.47 117.31 66.14 117.59 66.76 117.5C67.37 117.42 67.9 117.01 68.54 116.15L68.71 115.92L68.56 115.68C66.52 112.31 63.36 111.02 58.89 111.73C56.34 112.14 54.68 113.57 54.11 115.86C53.94 116.54 53.7 117.22 53.46 117.88C53.19 118.64 52.91 119.42 52.73 120.23C52.1 123.05 52.63 125.94 54.23 128.38C55.86 130.85 58.35 132.51 61.25 133.05C67.7 134.26 72.96 133.23 77.32 129.89C78.12 129.28 79 128.71 79.85 128.16C81.67 126.98 83.55 125.77 84.79 124.07C85.04 123.73 85.29 123.39 85.55 123.04C87.44 120.5 89.55 117.66 89.95 113.98C90.14 114.3 90.34 114.63 90.53 114.95C91.46 116.5 92.42 118.11 93.25 119.74C97.96 128.95 103.65 137.41 110.74 147.26C111.92 148.9 113.3 150.43 114.63 151.91C115.65 153.05 116.71 154.22 117.67 155.44L118.99 157.11C123.98 163.41 129.15 169.93 131.55 177.91C132.01 179.43 132.09 181.11 132.17 182.74L132.19 183.09C132.24 184.09 132.34 185.11 132.43 186.09C132.69 188.84 132.97 191.68 132.2 194.47C130.76 199.7 127.54 203.16 122.08 205.37C115.86 207.89 109.41 208.01 103.34 207.91C100.85 207.87 98.3 208.01 95.85 208.15C92.07 208.36 88.17 208.58 84.42 208.13C77.31 207.27 70.45 208.58 63.82 209.84C61.85 210.22 59.8 210.6 57.79 210.93C54.1 211.52 50.56 212.77 46.8 214.1C45.96 214.4 45.1 214.7 44.23 215C47.47 212.93 50.82 211.68 54.33 210.36L55.12 210.06C65.15 206.29 75.8 205.4 86.11 204.53C88.5 204.33 90.89 204.13 93.28 203.89C94.91 203.73 96.59 203.62 98.21 203.52C101.58 203.31 105.07 203.09 108.41 202.36C113.5 201.26 118.23 198.8 122.1 195.24C124.49 193.03 125.59 189.61 125.04 186.08ZM34.51 70.14C35.1 70.3 35.69 70.46 36.28 70.65L36.57 70.75L36.75 70.5C37.93 68.88 37.77 67.56 36.25 66.35C35.36 65.64 34.5 64.86 33.67 64.1C32.91 63.41 32.13 62.7 31.32 62.03C28.44 59.66 26.76 55.83 26.6 51.23C26.42 46.02 28.28 40.51 31.13 37.82C34.17 34.96 45.06 26.05 57.82 31.75C62.03 33.63 66.82 36.13 70.43 40.41C72.78 43.2 74.86 45.98 74.55 49.26C74.21 52.87 73.41 57.43 70.11 60.7C69.08 61.72 67.03 62.22 64.77 62.01C62.42 61.78 60.42 60.85 59.55 59.58C59.11 58.94 58.91 57.82 58.99 56.44C59.02 55.83 59.29 55.21 59.6 54.49C59.75 54.14 59.9 53.79 60.04 53.41L60.29 52.72L59.57 52.85C56.58 53.38 54.82 55.37 55.09 57.93C55.48 61.71 59.31 65.47 63.11 65.81C70.7 66.5 75.67 62.8 77.5 55.13C78.84 49.53 78.05 44.42 75.03 39.08C74.17 37.56 74.85 34.82 75.08 34.02L75.44 32.75C76.29 29.72 77.16 26.59 78.85 24.13C80.82 21.26 83.39 18.71 85.88 16.25C86.66 15.47 87.45 14.7 88.21 13.91C88.87 13.24 89.65 12.7 90.49 12.13C90.93 11.83 91.37 11.53 91.78 11.21C97.85 6.55998 105.1 4.23998 113.94 4.10998C121.26 4.01998 126.72 4.83998 131.63 6.80998C135.58 8.38998 139.37 10.81 143.22 14.18C144.21 15.05 144.79 16.52 145.34 17.94C145.54 18.46 145.75 18.98 145.97 19.47C146.33 20.26 146.59 21.11 146.9 22.08C147.05 22.56 147.21 23.07 147.4 23.62L147.57 24.13L148.02 23.85C148.47 23.57 148.88 23.34 149.25 23.12C150 22.69 150.64 22.32 151.18 21.83C152.05 21.04 152.88 20.2 153.69 19.38C155.15 17.9 156.65 16.37 158.34 15.21C159.81 14.2 162.71 12.49 165.69 12.31C176.45 11.63 186.4 14.21 195.25 19.96C202.01 24.36 207.4 30.68 211.72 39.3C213.39 42.64 214.91 45.9 215.13 49.16C215.53 55.1 214.82 59.65 212.91 63.47C211.06 67.16 207.77 69.32 203.98 71.57C203.39 71.92 202.8 72.3 202.21 72.68C199.99 74.12 197.68 75.64 194.88 75.55C192.79 75.5 190.72 75.31 188.43 75.08C187 74.94 185.58 74.76 184.16 74.59C182.37 74.38 180.51 74.15 178.68 73.99C173.93 73.56 170.77 71.79 168.73 68.41C167.46 66.3 167.07 64.44 167.59 62.88C168.12 61.27 169.6 59.96 171.99 58.98C173.97 58.17 175.67 58.75 177.46 59.37C177.94 59.54 178.42 59.7 178.91 59.84C179.52 60.02 180.09 60.38 180.82 60.83C181.2 61.07 181.61 61.33 182.08 61.59L182.52 61.84L182.69 61.36C183.88 57.91 181.34 56.56 180.38 56.06C177.73 54.65 174.39 54.5 171.24 55.63C167.88 56.84 165.12 59.38 163.85 62.42C163.21 63.97 162.95 65.35 163.79 67.07L164 67.5C165.26 70.09 166.55 72.76 169.27 74.44C169.84 74.79 170.34 75.31 170.88 75.85C171.04 76.01 171.19 76.17 171.36 76.33C170.82 76.69 170.29 77.04 169.76 77.39C168.23 78.4 166.78 79.35 165.41 80.46C164.01 81.59 162.74 82.84 161.4 84.16C160.89 84.66 160.37 85.17 159.84 85.68C159.49 85.4 159.13 85.12 158.78 84.84C155.4 82.17 151.9 79.41 147.27 78.92C143.93 78.57 140.52 78.31 137.23 78.06C135.97 77.96 134.7 77.87 133.44 77.77V77.76C133.7 77.26 133.99 76.69 134.39 76.23C137.96 72.08 137.42 67.42 136.43 63.4C134.47 55.48 129.21 50.5 120.79 48.59C113.29 46.89 101.96 51.27 97.9 57.43C94.61 62.43 92.06 67.47 89.99 71.74C88.49 74.84 87.74 78.06 87.01 81.18C86.73 82.37 86.44 83.6 86.12 84.8C85.5 87.08 85.73 89.59 85.95 92.01C86.04 93.03 86.14 94.09 86.17 95.11C86.19 95.92 86.25 96.74 86.31 97.67C86.32 97.85 86.33 98.04 86.35 98.23C63.44 81.51 42.5 81.63 22.35 98.61C15.69 94.01 14.65 85.12 17.9 79.59C19.97 76.07 22.69 73 25.77 69.64C26.77 68.55 27.74 68.02 28.75 68.02C29.41 68.02 30.08 68.25 30.77 68.7C31.86 69.43 33.21 69.79 34.51 70.14ZM70.68 212.48C74.85 212.02 79.05 212 83.11 211.99C84.7 211.99 86.29 211.98 87.88 211.95C89.35 211.92 90.82 211.9 92.29 211.87C100.44 211.74 108.87 211.6 117.08 210.68C123.04 210.01 128.57 206.98 132.64 202.15C134.17 200.33 134.89 197.84 135.59 195.43L135.75 194.86C136.3 192.96 136.52 190.94 136.73 189L136.86 187.84C136.94 187.13 136.75 186.41 136.57 185.72L136.49 185.43C136.41 185.1 136.27 184.78 136.13 184.48C135.94 184.05 135.76 183.65 135.78 183.29C135.92 180.24 135 177.42 134.1 174.7C133.76 173.65 133.4 172.57 133.11 171.49C132.74 170.08 132.02 168.59 131.09 167.31C130.02 165.82 128.95 164.32 127.89 162.82C124.31 157.77 120.61 152.54 116.56 147.74L115.44 146.42C113.54 144.19 111.57 141.88 109.95 139.4C106.98 134.86 104.06 130.17 101.25 125.63C100.42 124.3 99.6 122.97 98.77 121.64C97.71 119.94 96.69 118.17 95.71 116.46L95.63 116.32C95.48 116.07 95.33 115.82 95.17 115.57C94.73 114.87 94.31 114.21 94.15 113.5C93.75 111.75 93.31 109.99 92.87 108.24C91.69 103.54 90.48 98.67 90 93.83C89.24 86.13 90.56 79 93.91 72.64C94.7 71.15 95.38 69.59 96.04 68.09C97.25 65.34 98.5 62.49 100.4 59.97C103.96 55.25 111.91 52.33 117.69 52.33C118.95 52.33 120.1 52.47 121.09 52.76C126.32 54.29 129.98 57.63 131.94 62.7C132.63 64.49 133.04 66.38 133.31 67.82C133.88 70.86 132.52 73.72 129.26 76.32C124.69 79.98 119.77 81.56 114.66 81.02C109.2 80.44 108.38 79.59 108.38 74.12C110.24 72.99 112.07 73.56 114 74.16C114.47 74.31 114.95 74.45 115.41 74.57C117.07 74.99 118.14 74.85 118.77 72.86L118.86 72.58L118.63 72.4C116.08 70.41 112.98 70.1 110.28 69.98C108.22 69.86 106.39 70.75 105.26 72.36C104.07 74.06 103.87 76.31 104.74 78.38C105.88 81.1 107.98 84.69 113.08 84.49C114.91 84.42 116.77 84.44 118.75 84.45C119.34 84.45 119.94 84.46 120.56 84.46C117.28 87.22 115.1 90.53 114.09 94.33L113.94 94.9C112.92 98.69 111.76 102.97 115.74 106.42C110.67 110.14 107.9 115.14 107.3 121.67C106.99 124.98 107.31 128.2 108.19 130.74C111.27 139.59 117.14 146.03 125.65 149.85C128.2 151 130.77 152.2 133.25 153.37C135.44 154.4 137.63 155.43 139.84 156.43C140.99 156.95 142.25 157.22 143.1 157.38C144.51 157.64 145.91 157.91 147.32 158.18C151.54 158.99 155.89 159.83 160.22 160.4C163.6 160.85 167.07 160.86 170.44 160.87L171.79 160.88C173.28 160.87 174.79 160.73 176.39 160.56C177.07 160.49 177.76 160.41 178.49 160.35C179.21 161.47 179.95 162.59 180.7 163.71C182.55 166.49 184.46 169.37 186.08 172.36C187.55 175.08 188.56 178.14 189.54 181.09L189.92 182.24C190.85 185.02 191.9 188.18 192.38 191.36C192.9 194.81 193.5 198.71 192.97 202.31C192.61 204.76 191.37 207.5 189.18 210.67C187.47 213.15 185.15 215.67 182.27 218.15C176.85 222.83 170.1 224.57 163.65 225.95C156.98 227.38 150.17 227.42 143.56 227.42C136.51 227.42 129.35 226.94 122.62 226.42C119.41 226.17 116.16 225.67 113.02 225.19C111.92 225.02 110.81 224.85 109.71 224.69L106.76 224.27C102.14 223.61 97.37 222.93 92.69 222.14C91.01 221.86 89.31 221.46 87.66 221.08C86.04 220.71 84.37 220.32 82.7 220.03C80.42 219.64 77.97 219.42 75.23 219.34C69.84 219.2 65.13 219.16 60.81 219.24C53.75 219.36 47.1 221.18 40.95 223.12C37.48 224.22 34.23 226.03 30.72 228.81C28.26 230.76 26.07 232.33 23.93 233.66C29.82 227.2 36.46 222.39 43.68 219.38C52.44 215.81 61.26 213.53 70.68 212.48Z" fill="#FFBDA6"/>
<path d="M34.51 70.1399C35.1 70.2999 35.69 70.4599 36.28 70.6499L36.57 70.7499L36.75 70.4999C37.93 68.8799 37.77 67.5599 36.25 66.3499C35.36 65.6399 34.5 64.8599 33.67 64.0999C32.91 63.4099 32.13 62.6999 31.32 62.0299C28.44 59.6599 26.76 55.8299 26.6 51.2299C26.42 46.0199 28.28 40.5099 31.13 37.8199C34.17 34.9599 45.06 26.0499 57.82 31.7499C62.03 33.6299 66.82 36.1299 70.43 40.4099C72.78 43.1999 74.86 45.9799 74.55 49.2599C74.21 52.8699 73.41 57.4299 70.11 60.6999C69.08 61.7199 67.03 62.2199 64.77 62.0099C62.42 61.7799 60.42 60.8499 59.55 59.5799C59.11 58.9399 58.91 57.8199 58.99 56.4399C59.02 55.8299 59.29 55.2099 59.6 54.4899C59.75 54.1399 59.9 53.7899 60.04 53.4099L60.29 52.7199L59.57 52.8499C56.58 53.3799 54.82 55.3699 55.09 57.9299C55.48 61.7099 59.31 65.4699 63.11 65.8099C70.7 66.4999 75.67 62.7999 77.5 55.1299C78.84 49.5299 78.05 44.4199 75.03 39.0799C74.17 37.5599 74.85 34.8199 75.08 34.0199L75.44 32.7499C76.29 29.7199 77.16 26.5899 78.85 24.1299C80.82 21.2599 83.39 18.7099 85.88 16.2499C86.66 15.4699 87.45 14.6999 88.21 13.9099C88.87 13.2399 89.65 12.6999 90.49 12.1299C90.93 11.8299 91.37 11.5299 91.78 11.2099C97.85 6.55992 105.1 4.23992 113.94 4.10992C121.26 4.01992 126.72 4.83992 131.63 6.80992C135.58 8.38992 139.37 10.8099 143.22 14.1799C144.21 15.0499 144.79 16.5199 145.34 17.9399C145.54 18.4599 145.75 18.9799 145.97 19.4699C146.33 20.2599 146.59 21.1099 146.9 22.0799C147.05 22.5599 147.21 23.0699 147.4 23.6199L147.57 24.1299L148.02 23.8499C148.47 23.5699 148.88 23.3399 149.25 23.1199C150 22.6899 150.64 22.3199 151.18 21.8299C152.05 21.0399 152.88 20.1999 153.69 19.3799C155.15 17.8999 156.65 16.3699 158.34 15.2099C159.81 14.1999 162.71 12.4899 165.69 12.3099C176.45 11.6299 186.4 14.2099 195.25 19.9599C202.01 24.3599 207.4 30.6799 211.72 39.2999C213.39 42.6399 214.91 45.8999 215.13 49.1599C215.53 55.0999 214.82 59.6499 212.91 63.4699C211.06 67.1599 207.77 69.3199 203.98 71.5699C203.39 71.9199 202.8 72.2999 202.21 72.6799C199.99 74.1199 197.68 75.6399 194.88 75.5499C192.79 75.4999 190.72 75.3099 188.43 75.0799C187 74.9399 185.58 74.7599 184.16 74.5899C182.37 74.3799 180.51 74.1499 178.68 73.9899C173.93 73.5599 170.77 71.7899 168.73 68.4099C167.46 66.2999 167.07 64.4399 167.59 62.8799C168.12 61.2699 169.6 59.9599 171.99 58.9799C173.97 58.1699 175.67 58.7499 177.46 59.3699C177.94 59.5399 178.42 59.6999 178.91 59.8399C179.52 60.0199 180.09 60.3799 180.82 60.8299C181.2 61.0699 181.61 61.3299 182.08 61.5899L182.52 61.8399L182.69 61.3599C183.88 57.9099 181.34 56.5599 180.38 56.0599C177.73 54.6499 174.39 54.4999 171.24 55.6299C167.88 56.8399 165.12 59.3799 163.85 62.4199C163.21 63.9699 162.95 65.3499 163.79 67.0699L164 67.4999C165.26 70.0899 166.55 72.7599 169.27 74.4399C169.84 74.7899 170.34 75.3099 170.88 75.8499C171.04 76.0099 171.19 76.1699 171.36 76.3299C170.82 76.6899 170.29 77.0399 169.76 77.3899C168.23 78.3999 166.78 79.3499 165.41 80.4599C164.01 81.5899 162.74 82.8399 161.4 84.1599C160.89 84.6599 160.37 85.1699 159.84 85.6799C159.49 85.3999 159.13 85.1199 158.78 84.8399C155.4 82.1699 151.9 79.4099 147.27 78.9199C143.93 78.5699 140.52 78.3099 137.23 78.0599C135.97 77.9599 134.7 77.8699 133.44 77.7699V77.7599C133.7 77.2599 133.99 76.6899 134.39 76.2299C137.96 72.0799 137.42 67.4199 136.43 63.3999C134.47 55.4799 129.21 50.4999 120.79 48.5899C113.29 46.8899 101.96 51.2699 97.9 57.4299C94.61 62.4299 92.06 67.4699 89.99 71.7399C88.49 74.8399 87.74 78.0599 87.01 81.1799C86.73 82.3699 86.44 83.5999 86.12 84.7999C85.5 87.0799 85.73 89.5899 85.95 92.0099C86.04 93.0299 86.14 94.0899 86.17 95.1099C86.19 95.9199 86.25 96.7399 86.31 97.6699C86.32 97.8499 86.33 98.0399 86.35 98.2299C63.44 81.5099 42.5 81.6299 22.35 98.6099C15.69 94.0099 14.65 85.1199 17.9 79.5899C19.97 76.0699 22.69 72.9999 25.77 69.6399C26.77 68.5499 27.74 68.0199 28.75 68.0199C29.41 68.0199 30.08 68.2499 30.77 68.6999C31.86 69.4299 33.21 69.7899 34.51 70.1399Z" fill="white"/>
<path d="M206.07 123.8L205.2 124.3L206.16 124.58C206.85 124.78 207.5 124.95 208.1 125.12C209.36 125.46 210.45 125.76 211.5 126.15C211.81 126.26 212.12 126.37 212.44 126.49C213.78 126.96 215.16 127.44 216.14 128.28C218.78 130.52 219 136.41 216.58 139.94C213.83 143.97 210.93 146.64 207.45 148.34C206.11 148.99 204.81 149.76 203.56 150.5C202.01 151.42 200.4 152.37 198.74 153.09C196.47 154.08 193.87 154.53 191.63 154.84C187.46 155.42 183.03 155.88 178.47 156.21C177.63 156.27 176.79 156.34 175.94 156.4C171.64 156.73 167.2 157.08 162.86 156.91C159.85 156.8 156.8 156.21 153.84 155.65C152.63 155.42 151.43 155.19 150.22 154.98C143.41 153.84 137.02 151.29 131.66 148.95C127.55 147.15 122.89 144.86 119.48 141.53C111.61 133.83 109.11 125.95 111.84 117.45C112.88 114.21 114.67 110.34 119.27 109.28C119.85 109.14 120.4 108.89 120.9 108.63C121.13 108.52 121.28 108.34 121.47 108.11C121.56 108 121.67 107.87 121.81 107.72L122.12 107.39L121.27 106.67C120.88 106.34 120.49 106.01 120.1 105.69C117.16 103.32 116.19 100.21 117.22 96.45C118.45 91.92 121.3 88.24 125.7 85.51C129.87 82.92 134.29 81.62 138.94 81.62C143.06 81.62 147.37 82.64 151.82 84.68C154.49 85.91 157.28 87.63 157.7 91.08C157.78 91.74 158.24 92.29 158.83 92.99C159.13 93.34 159.46 93.74 159.8 94.22L160.27 94.88L160.54 94.11C162.42 88.85 165.02 85.49 168.98 83.22C169.7 82.81 170.28 82.22 170.84 81.65C171.67 80.8 172.46 80 173.72 79.65L174.32 79.48C176.75 78.8 179.04 78.17 181.56 78.8C183.03 79.17 184.53 79.45 185.97 79.72C189.49 80.38 193.13 81.06 196.42 83.1C201.24 86.07 204.42 90 205.64 94.46C207.91 102.8 206.36 109.83 200.88 115.96C196.57 120.78 190.91 124.25 183.07 126.88C171.37 130.8 161.34 129.15 153.26 121.97C151.8 120.67 151.24 119.54 151.32 118.07C151.33 117.92 151.32 117.76 151.3 117.61C151.29 117.49 151.28 117.37 151.29 117.25C151.61 113.51 152.15 110.3 155.47 108.82C158.04 107.68 159.48 109.28 161.13 111.13C161.58 111.64 162.05 112.16 162.55 112.62L162.72 112.77L162.94 112.72C164.01 112.47 164.75 111.93 164.95 111.24C165.07 110.83 165.07 110.19 164.37 109.43C162.74 107.68 160.77 106.23 158.87 104.83L158.64 104.66C158.07 104.24 157.06 104.43 156.3 104.67C152.57 105.84 149.83 108.19 148.38 111.48C146.86 114.93 146.98 119.02 148.7 122.7C149.55 124.51 151.48 125.98 152.94 126.9C157.96 130.03 164.04 133.2 170.92 133.01C174.41 132.91 178.15 132.34 182.37 131.25C188.57 129.66 194.05 126.97 198.64 123.26C204.45 118.57 210.44 112.46 210.73 102.78C210.91 96.85 210.27 89.33 203.64 83.78C202.24 82.61 200.86 81.41 199.57 80.29C199.15 79.92 198.73 79.56 198.33 79.22L201.48 77.3C204.36 75.55 207.36 73.72 210.36 71.93C214.69 69.35 217.34 65.31 218.22 59.94C218.31 59.37 218.41 58.8 218.51 58.24C219.19 54.36 219.89 50.34 218.66 46.29C218.35 45.26 218.01 44.24 217.65 43.15C217.53 42.78 217.4 42.4 217.27 42.01C219.21 41.82 220.7 42.63 222.14 43.41C222.44 43.57 222.74 43.74 223.07 43.9C226.43 45.59 229.91 47.34 233.06 49.46C240.49 54.46 244.48 59.56 245.97 65.99C246.04 66.3 246.11 66.62 246.18 66.94C246.53 68.51 246.89 70.14 247.61 71.58C248.67 73.7 248.34 75.68 247.74 77.99C247.51 77.97 247.28 77.95 247.06 77.93C246.33 77.87 245.63 77.81 245 77.61C240.64 76.18 236.41 76.6 233.08 78.8C229.22 81.35 226.8 86.02 226.27 91.96C225.68 98.64 229.31 102.46 232.95 105.32C234.72 106.71 236.71 106.76 238.64 106.81C239.78 106.84 240.86 106.87 241.9 107.15C242.69 107.37 243.56 106.94 244.39 106.52C244.72 106.35 245.04 106.2 245.32 106.1L245.65 105.98L245.6 105.63C245.25 103.31 243.99 103.09 242.73 103.07C240.86 103.03 238.96 102.84 237.07 102.52C234.36 102.06 232.43 100.28 231 96.92C228.92 92.03 230.99 87.68 233.55 83.7C234.44 82.31 237.06 81.27 238.94 81.16C243.95 80.88 248.8 82.62 253.02 86.18C257.65 90.1 260.5 95.24 261.26 101.05C262.14 107.73 260.96 113.13 257.64 117.58C256.98 118.47 256.43 119.45 255.9 120.4C255.32 121.44 254.73 122.51 253.99 123.42C251.89 126.03 249.25 128.17 246.69 130.24C245.52 131.18 244.32 132.16 243.18 133.16C239.63 136.3 235.53 137.6 230.93 138.88C227.87 139.73 224.61 140.4 221.25 138.7C222.46 133.87 222.99 127.92 217.12 123.93C214.34 122.03 209.27 121.97 206.07 123.8Z" fill="white"/>
<path d="M70.68 212.48C74.85 212.02 79.05 212 83.11 211.99C84.7 211.99 86.29 211.98 87.88 211.95C89.35 211.92 90.82 211.9 92.29 211.87C100.44 211.74 108.87 211.6 117.08 210.68C123.04 210.01 128.57 206.98 132.64 202.15C134.17 200.33 134.89 197.84 135.59 195.43L135.75 194.86C136.3 192.96 136.52 190.94 136.73 189L136.86 187.84C136.94 187.13 136.75 186.41 136.57 185.72L136.49 185.43C136.41 185.1 136.27 184.78 136.13 184.48C135.94 184.05 135.76 183.65 135.78 183.29C135.92 180.24 135 177.42 134.1 174.7C133.76 173.65 133.4 172.57 133.11 171.49C132.74 170.08 132.02 168.59 131.09 167.31C130.02 165.82 128.95 164.32 127.89 162.82C124.31 157.77 120.61 152.54 116.56 147.74L115.44 146.42C113.54 144.19 111.57 141.88 109.95 139.4C106.98 134.86 104.06 130.17 101.25 125.63C100.42 124.3 99.6 122.97 98.77 121.64C97.71 119.94 96.69 118.17 95.71 116.46L95.63 116.32C95.48 116.07 95.33 115.82 95.17 115.57C94.73 114.87 94.31 114.21 94.15 113.5C93.75 111.75 93.31 109.99 92.87 108.24C91.69 103.54 90.48 98.67 90 93.83C89.24 86.13 90.56 79 93.91 72.64C94.7 71.15 95.38 69.59 96.04 68.09C97.25 65.34 98.5 62.49 100.4 59.97C103.96 55.25 111.91 52.33 117.69 52.33C118.95 52.33 120.1 52.47 121.09 52.76C126.32 54.29 129.98 57.63 131.94 62.7C132.63 64.49 133.04 66.38 133.31 67.82C133.88 70.86 132.52 73.72 129.26 76.32C124.69 79.98 119.77 81.56 114.66 81.02C109.2 80.44 108.38 79.59 108.38 74.12C110.24 72.99 112.07 73.56 114 74.16C114.47 74.31 114.95 74.45 115.41 74.57C117.07 74.99 118.14 74.85 118.77 72.86L118.86 72.58L118.63 72.4C116.08 70.41 112.98 70.1 110.28 69.98C108.22 69.86 106.39 70.75 105.26 72.36C104.07 74.06 103.87 76.31 104.74 78.38C105.88 81.1 107.98 84.69 113.08 84.49C114.91 84.42 116.77 84.44 118.75 84.45C119.34 84.45 119.94 84.46 120.56 84.46C117.28 87.22 115.1 90.53 114.09 94.33L113.94 94.9C112.92 98.69 111.76 102.97 115.74 106.42C110.67 110.14 107.9 115.14 107.3 121.67C106.99 124.98 107.31 128.2 108.19 130.74C111.27 139.59 117.14 146.03 125.65 149.85C128.2 151 130.77 152.2 133.25 153.37C135.44 154.4 137.63 155.43 139.84 156.43C140.99 156.95 142.25 157.22 143.1 157.38C144.51 157.64 145.91 157.91 147.32 158.18C151.54 158.99 155.89 159.83 160.22 160.4C163.6 160.85 167.07 160.86 170.44 160.87L171.79 160.88C173.28 160.87 174.79 160.73 176.39 160.56C177.07 160.49 177.76 160.41 178.49 160.35C179.21 161.47 179.95 162.59 180.7 163.71C182.55 166.49 184.46 169.37 186.08 172.36C187.55 175.08 188.56 178.14 189.54 181.09L189.92 182.24C190.85 185.02 191.9 188.18 192.38 191.36C192.9 194.81 193.5 198.71 192.97 202.31C192.61 204.76 191.37 207.5 189.18 210.67C187.47 213.15 185.15 215.67 182.27 218.15C176.85 222.83 170.1 224.57 163.65 225.95C156.98 227.38 150.17 227.42 143.56 227.42C136.51 227.42 129.35 226.94 122.62 226.42C119.41 226.17 116.16 225.67 113.02 225.19C111.92 225.02 110.81 224.85 109.71 224.69L106.76 224.27C102.14 223.61 97.37 222.93 92.69 222.14C91.01 221.86 89.31 221.46 87.66 221.08C86.04 220.71 84.37 220.32 82.7 220.03C80.42 219.64 77.97 219.42 75.23 219.34C69.84 219.2 65.13 219.16 60.81 219.24C53.75 219.36 47.1 221.18 40.95 223.12C37.48 224.22 34.23 226.03 30.72 228.81C28.26 230.76 26.07 232.33 23.93 233.66C29.82 227.2 36.46 222.39 43.68 219.38C52.44 215.81 61.26 213.53 70.68 212.48Z" fill="white"/>
<path d="M125.04 186.08C124 179.46 121.93 174.9 118.53 171.71C115.77 169.12 112.21 167.34 108.77 165.62L108 165.23C104.91 163.68 101.4 162.31 97.57 161.15C94.38 160.18 90.88 159.45 87.17 158.95C85.3 158.7 83.39 158.61 81.54 158.51C79.47 158.41 77.33 158.3 75.27 157.98C73.22 157.66 71.12 157.44 69.09 157.23C65.08 156.81 60.93 156.38 56.95 155.13C53.26 153.97 49.43 153.08 45.72 152.21C43.11 151.6 40.4 150.97 37.78 150.25C32.76 148.88 29.15 146.04 27.04 141.82C26.65 141.05 26.26 140.28 25.85 139.48L25.39 138.59L26.58 135.38C27.03 135.18 27.68 135.27 28.35 135.37C29.79 135.57 31.77 135.85 32.31 132.78L32.38 132.39L32 132.3C26.86 130.99 24.28 126.78 21.78 122.71C18.92 118.05 19.82 108.69 23.53 104.51C23.82 104.18 24.23 103.73 24.6 103.63L25.14 103.49C26.36 103.19 27.63 102.87 28.18 101.86C28.51 101.24 28.53 100.45 28.22 99.46C28.71 99.03 29.18 98.57 29.65 98.12C30.82 96.98 31.93 95.9 33.26 95.29C40.22 92.06 46.67 90.34 52.99 90.03C56.76 89.85 60.37 90.77 63.85 91.66C64.78 91.9 65.71 92.14 66.65 92.36C70.67 93.31 74.3 95.35 77.8 97.33C78.48 97.71 79.15 98.09 79.83 98.47C81.4 99.33 82.93 100.91 83.83 102.59C87.88 110.16 84.73 120.81 77.22 124.94C76.27 125.46 75.37 126.07 74.5 126.66C72.45 128.05 70.5 129.36 67.97 129.66C64.31 130.1 61.62 129.66 59.52 128.29C57.83 127.19 56.7 125.39 56.34 123.24C55.95 120.89 56.54 118.5 57.95 116.69C58.46 116.04 59.37 115.6 60.45 115.46C61.92 115.28 63.41 115.69 64.54 116.58C65.47 117.31 66.14 117.59 66.76 117.5C67.37 117.42 67.9 117.01 68.54 116.15L68.71 115.92L68.56 115.68C66.52 112.31 63.36 111.02 58.89 111.73C56.34 112.14 54.68 113.57 54.11 115.86C53.94 116.54 53.7 117.22 53.46 117.88C53.19 118.64 52.91 119.42 52.73 120.23C52.1 123.05 52.63 125.94 54.23 128.38C55.86 130.85 58.35 132.51 61.25 133.05C67.7 134.26 72.96 133.23 77.32 129.89C78.12 129.28 79 128.71 79.85 128.16C81.67 126.98 83.55 125.77 84.79 124.07C85.04 123.73 85.29 123.39 85.55 123.04C87.44 120.5 89.55 117.66 89.95 113.98C90.14 114.3 90.34 114.63 90.53 114.95C91.46 116.5 92.42 118.11 93.25 119.74C97.96 128.95 103.65 137.41 110.74 147.26C111.92 148.9 113.3 150.43 114.63 151.91C115.65 153.05 116.71 154.22 117.67 155.44L118.99 157.11C123.98 163.41 129.15 169.93 131.55 177.91C132.01 179.43 132.09 181.11 132.17 182.74L132.19 183.09C132.24 184.09 132.34 185.11 132.43 186.09C132.69 188.84 132.97 191.68 132.2 194.47C130.76 199.7 127.54 203.16 122.08 205.37C115.86 207.89 109.41 208.01 103.34 207.91C100.85 207.87 98.3 208.01 95.85 208.15C92.07 208.36 88.17 208.58 84.42 208.13C77.31 207.27 70.45 208.58 63.82 209.84C61.85 210.22 59.8 210.6 57.79 210.93C54.1 211.52 50.56 212.77 46.8 214.1C45.96 214.4 45.1 214.7 44.23 215C47.47 212.93 50.82 211.68 54.33 210.36L55.12 210.06C65.15 206.29 75.8 205.4 86.11 204.53C88.5 204.33 90.89 204.13 93.28 203.89C94.91 203.73 96.59 203.62 98.21 203.52C101.58 203.31 105.07 203.09 108.41 202.36C113.5 201.26 118.23 198.8 122.1 195.24C124.49 193.03 125.59 189.61 125.04 186.08Z" fill="white"/>
</g>
</g>
<defs>
<clipPath id="clip0_799_106047">
<rect width="161.269" height="163.712" fill="white" transform="translate(0.391846 263.201)"/>
</clipPath>
<clipPath id="clip1_799_106047">
<rect width="255" height="254" fill="white" transform="translate(12)"/>
</clipPath>
<clipPath id="clip2_799_106047">
<rect width="254.04" height="253.59" fill="white" transform="translate(12)"/>
</clipPath>
</defs>
</svg>
