<svg xmlns="http://www.w3.org/2000/svg" width="196" height="73" fill="none" xmlns:v="https://vecta.io/nano"><path fill-rule="evenodd" d="M194.932 22.521a24.04 24.04 0 0 0-.39-2.1 23.58 23.58 0 0 0-3.201-7.627l-.008-.016c-2.342-3.817-5.753-7.003-9.875-9.212C177.469 1.42 173.027.288 168.6.288c-4.051 0-8.173.96-11.913 2.787-3.833 1.866-7.151 4.598-9.602 7.893-1.624 2.069-2.881 4.348-3.739 6.792-.273.781-.508 1.624-.742 2.662-.156.687-.281 1.39-.375 2.1-.171 1.257-.257 2.404-.257 3.513 0 15.902 13.818 25.739 26.628 25.739 6.542 0 13.147-2.522 18.12-6.917 2.615-2.311 4.668-5.035 6.104-8.088 1.554-3.294 2.335-6.893 2.335-10.687.007-1.21-.071-2.404-.227-3.56zm-2.935 3.505c0 14.138-11.898 22.585-23.397 22.585s-23.388-8.439-23.396-22.569l.242-3.404a23.06 23.06 0 0 1 .374-1.998c1.218-5.137 4.193-9.516 8.611-12.662A24.62 24.62 0 0 1 168.6 3.442a24.58 24.58 0 0 1 14.169 4.536c4.419 3.146 7.393 7.526 8.611 12.662.156.648.281 1.327.383 2.014.156 1.132.234 2.264.234 3.372zm-6.604-5.667c-1.203-3.451-3.521-6.37-6.706-8.439a18.72 18.72 0 0 0-10.079-2.99 18.72 18.72 0 0 0-10.078 2.99c-3.193 2.069-5.512 4.989-6.706 8.439a16.77 16.77 0 0 0-.578 2.123c-.234 1.155-.351 2.35-.351 3.544 0 10.703 9.009 17.097 17.721 17.097s17.721-6.394 17.721-17.097c0-1.194-.117-2.389-.351-3.544-.164-.726-.359-1.444-.593-2.123zm-2.436 5.668c0 8.673-7.299 13.857-14.357 13.857s-14.356-5.184-14.356-13.857c0-1.116.133-2.233.39-3.326a12.48 12.48 0 0 1 .648-1.983c2.124-5.113 7.471-8.548 13.311-8.548s11.194 3.435 13.31 8.548a12.75 12.75 0 0 1 .648 1.983c.273 1.093.406 2.209.406 3.326zM11.749 38.112h17.175V28.33h11.647v21.484H0L.031.866 11.749.835v37.277zm20.243-6.721v9.789H8.689V3.887l-5.59.055-.031 42.804h34.443V31.39h-5.519zm53.241-11.031c-1.202-3.451-3.521-6.37-6.706-8.439a18.72 18.72 0 0 0-10.078-2.99 18.72 18.72 0 0 0-10.078 2.99c-3.193 2.069-5.511 4.989-6.706 8.439a16.62 16.62 0 0 0-.578 2.123c-.234 1.155-.351 2.35-.351 3.544 0 10.703 9.009 17.097 17.721 17.097s17.721-6.394 17.721-17.097c0-1.194-.117-2.389-.351-3.544a19.7 19.7 0 0 0-.593-2.123zm-2.436 5.668c0 8.673-7.299 13.857-14.356 13.857S54.085 34.7 54.085 26.027c0-1.116.133-2.233.39-3.326a12.49 12.49 0 0 1 .648-1.983c2.123-5.113 7.471-8.548 13.31-8.548s11.195 3.435 13.31 8.548a12.77 12.77 0 0 1 .648 1.983c.273 1.093.406 2.209.406 3.326zm49.417-9.696c0 1.132-.211 1.905-.227 1.952-.289 1.015-.796 1.881-1.491 2.584-1.21 1.218-2.982 1.936-5.425 2.201-.851.094-2.303.125-3.295.125h-.414c-.054 0-6.003 0-11.351-.039-.71 0-1.389-.008-2.029-.016l-.492-.008v-.016h-.094V9.555l.992-.008.811-.008.812-.008 12.148-.078c1.538-.016 3.825.047 5.753.742 2.131.765 3.505 2.178 4.075 4.184l.002.007c.022.084.225.848.225 1.945zm-10.461 3.763h.117c.804.008 1.499-.016 2.123-.078 2.701-.211 4.208-1.023 4.739-2.553.047-.172.14-.664.14-1.163 0-.609-.125-1.116-.148-1.194-.835-2.326-3.927-2.615-6.846-2.592h-.055l-11.117.063v7.479l7.74.028h.009l3.298.011zm18.08 2.678a16.19 16.19 0 0 0 .64-1.944s.016-.078.047-.187c.125-.57.421-2.116.421-4.239 0-2.607-.445-4.364-.468-4.434-1.171-4.543-4.005-7.736-8.423-9.485C127.967.866 123.103.725 119.801.764l-9.797.109-11.383.125v19.025h-4.34c-.632-2.584-1.671-5.012-3.107-7.237l-.008-.016c-2.342-3.817-5.754-7.003-9.876-9.212C77.309 1.42 72.867.288 68.441.288c-4.059 0-8.174.96-11.913 2.787-3.833 1.866-7.151 4.598-9.602 7.893-1.624 2.069-2.881 4.348-3.739 6.792-.273.781-.508 1.624-.742 2.662-.156.687-.281 1.39-.375 2.1-.172 1.257-.258 2.404-.258 3.513 0 15.902 13.818 25.739 26.629 25.739 6.542 0 13.146-2.522 18.119-6.917 2.615-2.311 4.668-5.035 6.105-8.088a24.43 24.43 0 0 0 1.733-5.106h4.223v18.915h11.882V31.913l6.417.07 13.834 18.595h15.27L131.105 30.64c4.278-1.436 7.206-4.083 8.728-7.869zm-7.463 24.638l-13.779-18.572h-.25l-10.469-.148-.546-.008v18.736h-5.535V28.626l-10.094-.062-.055.437c-.718 5.8-3.544 10.789-8.166 14.427-4.255 3.349-9.594 5.191-15.043 5.191-11.499 0-23.397-8.447-23.397-22.585 0-1.109.078-2.241.242-3.372.101-.687.226-1.366.383-2.014 1.218-5.137 4.192-9.516 8.611-12.662A24.62 24.62 0 0 1 68.441 3.45c5.035 0 10.063 1.608 14.161 4.536 4.411 3.146 7.393 7.526 8.603 12.662a22.64 22.64 0 0 1 .382 1.983l.063.429h3.193v-.008h6.948V4.137l10.024-.109 8.002-.086c3.224-.031 7.369.094 10.788 1.382 3.513 1.327 5.699 3.661 6.691 7.128.039.164.413 1.842.413 3.95a22.07 22.07 0 0 1-.374 3.833l-.008.031c-.004.007-.005.014-.007.02-.005.015-.007.017-.009.019-.004.015-.007.029-.011.042v.001l-.012.043a11.56 11.56 0 0 1-.773 1.975c-1.678 3.357-4.934 5.355-9.946 6.105l-.819.125 13.997 18.814h-7.377zM70.119 67.785c0-2.576 1.85-4.145 4.208-4.145 2.373 0 4.224 1.569 4.224 4.145 0 2.631-1.85 4.223-4.224 4.223-2.358-.008-4.208-1.593-4.208-4.223zm6.925 0c0-1.811-1.21-2.912-2.717-2.912-1.491 0-2.701 1.101-2.701 2.912 0 1.866 1.21 2.99 2.701 2.99 1.507-.008 2.717-1.124 2.717-2.99zm-28.057 1.319h1.335c0 1.038.492 1.749 2.045 1.749 1.655 0 2.077-.617 2.077-1.28 0-.445-.187-.703-.57-.835-.386-.156-1.196-.263-1.886-.353l-.105-.014c-.812-.109-1.678-.297-2.123-.578-.492-.312-.804-.867-.804-1.632 0-1.483 1.273-2.514 3.396-2.514 2.404 0 3.279 1.062 3.279 2.912h-1.335c0-1.195-.656-1.764-1.928-1.764-1.226 0-1.952.507-1.952 1.249 0 .453.164.726.484.874.359.172 1.273.32 1.975.421.851.133 1.639.273 2.147.546.554.281.874.851.874 1.608 0 1.311-.765 2.529-3.529 2.529-2.678-.023-3.38-1.436-3.38-2.92zm-27.315-5.347h-1.468v8.119h1.468v-8.119zm-18.978 6.3H6.48l.679 1.827h1.717l-3.294-8.119H3.778l-3.31 8.119h1.53l.695-1.827zm1.913-5.035l1.507 4.044H3.06l1.522-4.044h.023zm25.457 5.035h-3.786l-.695 1.827h-1.53l3.31-8.119h1.803l3.294 8.119h-1.718l-.679-1.827zm-.367-.991l-1.507-4.052h-.023l-1.514 4.052h3.045zm7.323-5.309h-2.225-.008v8.119h1.397l-.016-6.885h.016l4.333 6.885h1.764v-8.119h-1.397l.023 6.167h-.023l-3.864-6.167zm23.841 0h-2.373v8.119h1.397l-.023-6.964h.023l2.482 6.964h1.234l2.483-6.964h.023l-.039 6.964h1.483v-8.119H65.24l-2.186 6.136h-.023l-2.17-6.136zm21.734 0h-1.483v8.119h1.483V69.9l1.514-1.483 2.888 3.458h1.975l-3.825-4.403 3.607-3.716h-1.842l-4.294 4.505h-.023v-4.504zm8.626 0h5.551v1.233h-4.075v2.319h3.232v.96h-3.232v2.373h4.184v1.233h-5.668v-8.119h.008zm9.571 0h-1.484v8.119h1.484v-3.614h4.317v3.614h1.467v-8.119h-1.467v3.318h-4.317v-3.318zm8.368 4.028c0-2.576 1.85-4.145 4.208-4.145 2.373 0 4.223 1.569 4.223 4.145 0 2.631-1.85 4.223-4.223 4.223-2.358-.008-4.208-1.593-4.208-4.223zm6.917 0c0-1.811-1.21-2.912-2.717-2.912-1.491 0-2.701 1.101-2.701 2.912 0 1.866 1.21 2.99 2.701 2.99 1.507-.008 2.717-1.124 2.717-2.99zm4.028-4.028v5.067c0 1.944 1.382 3.177 3.576 3.177 2.186 0 3.552-1.234 3.552-3.185v-5.059h-1.32v5.035c0 1.233-.835 1.936-2.17 1.936-1.319 0-2.17-.703-2.17-1.936v-5.035h-1.468zm9.688 5.347h1.335c0 1.038.492 1.749 2.046 1.749 1.655 0 2.076-.617 2.076-1.28 0-.445-.187-.703-.57-.835-.386-.156-1.196-.263-1.886-.353l-.104-.014c-.812-.109-1.679-.297-2.124-.578-.492-.312-.804-.867-.804-1.632 0-1.483 1.273-2.514 3.396-2.514 2.404 0 3.279 1.062 3.279 2.912h-1.335c0-1.195-.656-1.764-1.928-1.764-1.226 0-1.952.507-1.952 1.249 0 .453.164.726.484.874.359.172 1.272.32 1.975.421.851.133 1.639.273 2.147.546.554.281.874.851.874 1.608 0 1.311-.765 2.529-3.528 2.529-2.678-.023-3.381-1.436-3.381-2.92zm15.051-5.347h-5.55-.008v8.119h5.668v-1.233h-4.185v-2.373h3.232v-.96h-3.232V64.99h4.075v-1.233zm14.287 7.026v1.163c-.063.016-.188.039-.344.039-.741 0-1.506-.25-2.248-.765-.664.507-1.46.788-2.358.788-1.865 0-2.927-1.124-2.927-2.639 0-1.148.726-2.108 2.076-2.342-.21-.554-.32-1.023-.32-1.382 0-1.194.781-1.998 2.171-1.998 1.342 0 2.1.788 2.1 1.889 0 1.163-.812 1.991-2.21 2.123.398.664.961 1.358 1.515 1.897.46-.632.804-1.405 1.023-2.248h1.233c-.297 1.085-.749 2.131-1.382 2.959.531.359 1.038.531 1.483.531.039 0 .102 0 .188-.016zm-4.864.07a2.56 2.56 0 0 0 1.398-.398 11.15 11.15 0 0 1-1.866-2.459h-.047c-.718.109-1.124.64-1.124 1.335 0 .882.617 1.522 1.639 1.522zm.11-5.168c0 .398.101.749.273 1.132.983-.125 1.421-.593 1.421-1.234a.79.79 0 0 0-.836-.843c-.523.008-.858.375-.858.945zm14.707-1.928h-3.435v8.127h3.716c2.014 0 2.912-.898 2.912-2.358 0-1.054-.601-1.741-1.616-1.889v-.016c.867-.164 1.312-.812 1.312-1.741 0-1.312-.992-2.123-2.889-2.123zm1.562 2.35c0 .71-.469 1.132-1.429 1.132h-2.084V64.92h1.936c1.108 0 1.577.461 1.577 1.187zm.226 3.271c0 .828-.422 1.343-1.53 1.343h-2.209v-2.514h2.162c1.007 0 1.577.468 1.577 1.171zm9.438.679h-3.786l-.695 1.827h-1.53l3.31-8.119h1.803l3.295 8.119h-1.718l-.679-1.827zm-.367-.991l-1.506-4.052h-.024l-1.514 4.052h3.044zm8.666-5.309h-3.56v8.127h1.483v-3.224h2.28c1.085 0 1.42.445 1.42 1.257v1.959h1.492v-1.991c0-.976-.375-1.663-1.359-1.811v-.023c.953-.172 1.405-.89 1.405-1.936 0-1.46-1.077-2.358-3.161-2.358zm1.741 2.545c0 .867-.524 1.382-1.718 1.382h-2.116V64.99h2.077c1.187 0 1.757.5 1.757 1.311zM10.64 69.103h1.335c0 1.038.492 1.749 2.045 1.749 1.655 0 2.077-.617 2.077-1.28 0-.445-.187-.703-.57-.835-.386-.156-1.196-.262-1.886-.353h0l-.105-.014c-.812-.109-1.678-.297-2.123-.578-.492-.312-.804-.867-.804-1.632 0-1.483 1.273-2.514 3.396-2.514 2.405 0 3.279 1.062 3.279 2.912h-1.335c0-1.195-.656-1.764-1.928-1.764-1.226 0-1.952.507-1.952 1.249 0 .453.164.726.484.874.359.172 1.272.32 1.975.421.851.133 1.639.273 2.147.546.554.281.874.851.874 1.608 0 1.311-.765 2.529-3.529 2.529-2.678-.023-3.38-1.436-3.38-2.92z" fill="#334d66"/></svg>