<svg width="70" height="36" viewBox="0 0 70 36" fill="none" xmlns="http://www.w3.org/2000/svg">
<path d="M49.0325 32.0389C48.9861 31.7683 48.9242 31.4977 48.8701 31.2425C48.7155 30.6086 49.0866 29.9823 49.7051 29.8122L68.6315 24.6786L65.4617 22.135L66.0338 18.1069L48.5918 27.3537C48.0429 27.6397 47.3625 27.4619 47.03 26.9362C46.8909 26.7042 46.7285 26.48 46.5739 26.2481C46.2028 25.7301 46.311 25.0188 46.8058 24.6245L62.2377 12.5712L58.3179 11.4502L57.2896 7.51491L44.8962 22.6994C44.4941 23.1864 43.7829 23.2792 43.2803 22.9081C43.0561 22.7457 42.8242 22.5911 42.5768 22.4288C42.051 22.0886 41.8732 21.3928 42.1747 20.8438L51.6611 3.89662L47.6176 4.3837L45.1359 1.15198L39.6698 19.6996C39.4919 20.3104 38.858 20.666 38.2472 20.5114C37.9689 20.4418 37.6828 20.3799 37.3735 20.3258C36.7628 20.2099 36.3375 19.6455 36.4071 19.0269L38.5332 0L35 2.01789L31.459 0L33.5697 18.8878C33.6393 19.5295 33.1986 20.0939 32.5569 20.1944C32.2631 20.233 31.9616 20.2872 31.66 20.349C31.0415 20.4727 30.4539 20.1248 30.2761 19.5295L24.8564 1.15198L22.3824 4.3837L18.3389 3.89662L27.6011 20.465C27.918 21.0294 27.7248 21.7329 27.1681 22.0654C26.913 22.22 26.6501 22.3824 26.3872 22.5602C25.877 22.9081 25.1889 22.8153 24.7946 22.336L12.6949 7.51491L11.6667 11.4502L7.75458 12.5712L22.653 24.207C23.1632 24.609 23.256 25.3358 22.8694 25.8615C22.6916 26.0934 22.5061 26.3563 22.3283 26.6192C21.9803 27.1372 21.3232 27.3073 20.7742 27.0212L3.95847 18.0992L4.53833 22.1272L1.36072 24.6709L19.5063 29.5958C20.1403 29.7736 20.5036 30.3998 20.349 31.0338C20.2794 31.3276 20.2176 31.6368 20.148 31.9616C20.032 32.5723 19.4908 32.9898 18.8801 32.9357L0 31.2425L2.30395 35.1314H67.696L70 31.2425L50.3082 33.013C49.6896 33.0672 49.1484 32.6497 49.0325 32.0389Z" fill="#E56960"/>
</svg>
